<svg width="381" height="401" viewBox="0 0 381 401" fill="none" xmlns="http://www.w3.org/2000/svg">
<g style="mix-blend-mode:multiply">
<path d="M61.9408 123.854C61.9408 123.854 32.6057 120.331 10.5332 110.189C10.5332 110.189 13.4304 106.858 14.74 101.742C14.74 101.742 32.6163 114.772 52.9991 117.339L61.9408 123.854Z" fill="#473E99"/>
</g>
<g style="mix-blend-mode:multiply">
<path d="M90.0189 82.0471C90.0189 82.0471 92.1381 117.839 61.1697 121.391L61.9406 114.676C61.9406 114.676 87.9384 111.827 86.583 91.5644L90.0189 82.0471Z" fill="#473E99"/>
</g>
<path d="M132.464 265.822H43.4095C41.6599 265.822 40.2412 264.383 40.2412 262.609V161.738C40.2412 159.964 41.6599 158.525 43.4095 158.525H132.464C134.213 158.525 135.632 159.964 135.632 161.738V262.609C135.632 264.383 134.213 265.822 132.464 265.822ZM132.464 265.822C132.464 265.822 134.213 265.822 132.464 265.822Z" stroke="white" stroke-width="2" stroke-miterlimit="10" stroke-linecap="round"/>
<path d="M224.911 231.115H186.353V243.81H224.911V231.115Z" fill="#212121"/>
<g style="mix-blend-mode:multiply" opacity="0.39">
<path d="M224.911 231.115H212.213V243.81H224.911V231.115Z" fill="#B6B5BA"/>
</g>
<path d="M308.519 85.3778H109.222C103.414 85.3778 98.7034 90.1543 98.7034 96.0447V223.497C98.7034 229.388 103.414 234.164 109.222 234.164H189.592V241.286C181.41 241.422 174.82 248.18 174.82 256.508H242.921C242.921 248.18 236.328 241.425 228.15 241.286V234.164H308.519C314.328 234.164 319.038 229.388 319.038 223.497V96.0447C319.038 90.1543 314.328 85.3778 308.519 85.3778Z" fill="#212121"/>
<path d="M339.72 151.128H231.445C229.696 151.128 228.277 149.69 228.277 147.915V43.7813C228.277 42.007 229.696 40.5684 231.445 40.5684H339.72C341.47 40.5684 342.889 42.007 342.889 43.7813V147.915C342.889 149.69 341.47 151.128 339.72 151.128C339.72 151.128 341.47 151.128 339.72 151.128V151.128Z" stroke="white" stroke-width="2" stroke-miterlimit="10" stroke-linecap="round"/>
<path d="M312.367 85.3778H98.9008C97.0052 85.3778 95.4685 86.9361 95.4685 88.8584V230.684C95.4685 232.606 97.0052 234.164 98.9008 234.164H312.367C314.263 234.164 315.8 232.606 315.8 230.684V88.8584C315.8 86.9361 314.263 85.3778 312.367 85.3778Z" fill="#212121"/>
<path d="M315.8 96.548H95.4685V215.883H315.8V96.548Z" fill="#EDEDED"/>
<g style="mix-blend-mode:multiply" opacity="0.5">
<path d="M89.526 56.1403C95.7464 60.1885 99.1647 68.2387 95.669 70.4056C93.0745 72.0156 84.4954 74.8858 78.4439 76.8064C75.9762 77.5918 73.7901 74.9894 74.9377 72.6404C78.6622 65.0329 85.2593 53.3665 89.5225 56.1403H89.526ZM38.5303 64.7544C40.8713 57.6468 47.7254 52.3062 50.6579 55.2121C52.8335 57.3683 57.688 65.0936 61.0077 70.5698C62.363 72.8046 60.4163 75.5927 57.8852 75.0393C49.6968 73.2472 36.925 69.6309 38.5268 64.758L38.5303 64.7544ZM63.317 93.1209C62.6763 101.589 60.8774 114.915 55.8962 113.962C48.6337 112.573 42.4872 106.412 44.9268 103.074C46.7362 100.596 53.6291 94.6702 58.5259 90.5898C60.5254 88.9227 63.5142 90.5042 63.317 93.1209ZM35.0628 92.1998C31.7466 85.5027 32.852 76.81 36.9462 76.7529C39.9877 76.71 48.8132 78.6735 54.9809 80.1479C57.4979 80.7476 58.0717 84.1176 55.9032 85.542C48.8766 90.1614 37.3369 96.7943 35.0628 92.1998ZM64.7533 69.9487C61.0464 62.3305 55.8997 49.9358 60.6627 48.1794C67.6083 45.6198 75.9938 47.7474 75.5713 51.8814C75.258 54.9479 72.3045 63.6085 70.143 69.6488C69.2594 72.1156 65.8939 72.3012 64.7498 69.9487H64.7533ZM85.6008 110.367C80.1091 115.379 71.5476 116.597 70.4105 112.605C69.5656 109.642 69.101 100.493 68.8721 94.0705C68.7771 91.4502 71.8292 89.9972 73.7619 91.7429C80.014 97.3941 89.3676 106.929 85.6008 110.367ZM93.3385 97.8439C90.5046 96.7265 83.0486 91.5501 77.8737 87.841C75.7614 86.3274 76.4761 82.9859 79.0142 82.4897C87.2378 80.8797 100.386 79.1197 100.798 84.239C101.397 91.7072 97.1581 99.3468 93.3385 97.8439Z" fill="#BDBDBD"/>
</g>
<path d="M186.606 241.272H224.665C232.962 241.272 239.686 248.094 239.686 256.505H171.585C171.585 248.09 178.312 241.272 186.606 241.272Z" fill="#212121"/>
<g style="mix-blend-mode:multiply" opacity="0.39">
<path d="M224.661 241.272H209.89C218.187 241.272 224.911 248.094 224.911 256.505H239.683C239.683 248.09 232.955 241.272 224.661 241.272Z" fill="#B6B5BA"/>
</g>
<path d="M65.007 105.034C78.8868 105.034 90.1387 93.6234 90.1387 79.5481C90.1387 65.4729 78.8868 54.0626 65.007 54.0626C51.1271 54.0626 39.8752 65.4729 39.8752 79.5481C39.8752 93.6234 51.1271 105.034 65.007 105.034Z" fill="#5C4EA0"/>
<g style="mix-blend-mode:multiply">
<path d="M65.0068 95.884C73.9036 95.884 81.1159 88.5702 81.1159 79.5481C81.1159 70.5261 73.9036 63.2123 65.0068 63.2123C56.11 63.2123 48.8977 70.5261 48.8977 79.5481C48.8977 88.5702 56.11 95.884 65.0068 95.884Z" fill="#473E99"/>
</g>
<path d="M65.0069 35.1029C40.801 35.1029 21.1821 55.0015 21.1821 79.5446C21.1821 104.088 40.8045 123.986 65.0069 123.986C89.2092 123.986 108.832 104.088 108.832 79.5446C108.832 55.0015 89.2092 35.1029 65.0069 35.1029ZM87.3681 53.9519C93.5885 58.0002 97.0068 66.0503 93.5111 68.2173C90.9166 69.8273 82.3375 72.6975 76.286 74.6181C73.8183 75.4035 71.6321 72.801 72.7798 70.452C76.5043 62.8446 83.1014 51.1781 87.3646 53.9519H87.3681ZM36.3724 62.5661C38.7134 55.4584 45.5675 50.1179 48.5 53.0238C50.6756 55.18 55.5301 62.9053 58.8498 68.3815C60.2051 70.6162 58.2584 73.4043 55.7272 72.851C47.5389 71.0589 34.7671 67.4426 36.3689 62.5697L36.3724 62.5661ZM32.9013 90.0115C29.5852 83.3144 30.6906 74.6217 34.7847 74.5646C37.8263 74.5217 46.6518 76.4852 52.8194 77.9595C55.3365 78.5593 55.9103 81.9293 53.7418 83.3537C46.7152 87.9731 35.1755 94.606 32.9013 90.0115ZM61.1556 90.9326C60.5149 99.4004 58.716 112.727 53.7347 111.774C46.4723 110.385 40.3257 104.223 42.7653 100.885C44.5748 98.4079 51.4676 92.4819 56.3644 88.4015C58.364 86.7344 61.3527 88.3158 61.1556 90.9326ZM62.5884 67.7603C58.8815 60.1422 53.7347 47.7475 58.4978 45.9911C65.4434 43.4314 73.8288 45.5591 73.4064 49.693C73.0931 52.7596 70.1395 61.4202 67.978 67.4605C67.0944 69.9273 63.729 70.1129 62.5849 67.7603H62.5884ZM83.4359 108.179C77.9441 113.191 69.3826 114.408 68.2456 110.417C67.4007 107.454 66.936 98.3044 66.7072 91.8822C66.6121 89.2618 69.6643 87.8089 71.5969 89.5546C77.8491 95.2057 87.2026 104.741 83.4359 108.179ZM91.1736 95.6555C88.3397 94.5382 80.8836 89.3618 75.7087 85.6527C73.5965 84.139 74.3111 80.7976 76.8493 80.3014C85.0728 78.6914 98.2213 76.9314 98.6332 82.0506C99.2316 89.5189 94.9931 97.1585 91.1736 95.6555Z" fill="#FAB317"/>
<g style="mix-blend-mode:multiply" opacity="0.34">
<g style="mix-blend-mode:multiply">
<path d="M75.7229 36.4487C91.7862 43.0423 103.122 58.9998 103.122 77.6525C103.122 102.199 83.4993 122.094 59.297 122.094C55.6006 122.094 52.0099 121.623 48.5811 120.752C53.6539 122.833 59.1984 123.99 65.007 123.99C89.2128 123.99 108.832 104.091 108.832 79.5481C108.832 58.7535 94.7468 41.2966 75.7229 36.4487Z" fill="#F7A81C"/>
</g>
</g>
<path d="M69.6468 79.5481C69.6468 76.9492 67.5698 74.843 65.007 74.843C62.4442 74.843 60.3672 76.9492 60.3672 79.5481C60.3672 82.147 62.4442 84.2533 65.007 84.2533C67.5698 84.2533 69.6468 82.147 69.6468 79.5481Z" fill="white"/>
<path d="M142.416 57.504C142.416 57.504 148.509 54.9765 148.784 49.079C148.784 49.079 149.854 55.1193 155.955 56.8007C155.955 56.8007 150.139 61.1524 149.185 65.2257C149.185 65.2257 146.985 58.0645 142.416 57.504Z" fill="white"/>
<path d="M49.8201 250.618C49.8201 250.618 57.336 247.501 57.6775 240.226C57.6775 240.226 58.9976 247.676 66.5206 249.754C66.5206 249.754 59.3461 255.123 58.1703 260.146C58.1703 260.146 55.4561 251.314 49.8201 250.618Z" fill="white"/>
<path d="M32.9399 292.611C32.9399 292.611 44.4726 287.827 44.9971 276.664C44.9971 276.664 47.0248 288.095 58.568 291.283C58.568 291.283 47.5599 299.522 45.754 307.229C45.754 307.229 41.5894 293.674 32.9399 292.611Z" fill="white"/>
<path d="M85.1538 28.5592C85.1538 28.5592 91.2475 26.0317 91.5221 20.1343C91.5221 20.1343 92.5923 26.1745 98.693 27.856C98.693 27.856 92.8774 32.2077 91.9234 36.2809C91.9234 36.2809 89.7232 29.1197 85.1538 28.5592Z" fill="white"/>
<path d="M149.977 40.4006C149.977 40.4006 154.314 38.6014 154.511 34.4031C154.511 34.4031 155.275 38.7013 159.616 39.9008C159.616 39.9008 155.476 42.9995 154.797 45.8982C154.797 45.8982 153.23 40.8004 149.977 40.4006Z" fill="white"/>
<path d="M326.881 175.261C326.881 175.261 332.232 173.04 332.475 167.864C332.475 167.864 333.415 173.165 338.77 174.647C338.77 174.647 333.662 178.47 332.824 182.044C332.824 182.044 330.891 175.753 326.878 175.261H326.881Z" fill="white"/>
<path d="M67.8653 240.908C67.8653 240.908 73.2163 238.687 73.4592 233.511C73.4592 233.511 74.3991 238.812 79.7535 240.294C79.7535 240.294 74.6455 244.117 73.8077 247.691C73.8077 247.691 71.875 241.4 67.8618 240.908H67.8653Z" fill="white"/>
<path d="M304.38 106.769H105.642V199.218H304.38V106.769Z" fill="#5C4EA0"/>
<path d="M195.031 185.928C194.658 185.928 194.355 185.621 194.355 185.242V150.018C194.355 149.64 194.658 149.333 195.031 149.333C195.404 149.333 195.707 149.64 195.707 150.018V185.242C195.707 185.621 195.404 185.928 195.031 185.928Z" fill="#FAB317"/>
<path d="M197.953 177.317C197.579 177.317 197.277 177.01 197.277 176.632V158.632C197.277 158.254 197.579 157.947 197.953 157.947C198.326 157.947 198.628 158.254 198.628 158.632V176.632C198.628 177.01 198.326 177.317 197.953 177.317Z" fill="#FAB317"/>
<path d="M200.874 181.326C200.501 181.326 200.198 181.019 200.198 180.641V154.62C200.198 154.241 200.501 153.934 200.874 153.934C201.248 153.934 201.55 154.241 201.55 154.62V180.641C201.55 181.019 201.248 181.326 200.874 181.326Z" fill="#FAB317"/>
<path d="M206.718 176.221C206.345 176.221 206.042 175.914 206.042 175.536V159.725C206.042 159.346 206.345 159.039 206.718 159.039C207.091 159.039 207.394 159.346 207.394 159.725V175.536C207.394 175.914 207.091 176.221 206.718 176.221Z" fill="#FAB317"/>
<path d="M203.796 183.607C203.423 183.607 203.12 183.3 203.12 182.922V152.342C203.12 151.964 203.423 151.657 203.796 151.657C204.169 151.657 204.472 151.964 204.472 152.342V182.922C204.472 183.3 204.169 183.607 203.796 183.607Z" fill="#FAB317"/>
<path d="M180.2 185.928C179.826 185.928 179.524 185.621 179.524 185.242V150.018C179.524 149.64 179.826 149.333 180.2 149.333C180.573 149.333 180.876 149.64 180.876 150.018V185.242C180.876 185.621 180.573 185.928 180.2 185.928Z" fill="#FAB317"/>
<path d="M183.121 177.317C182.748 177.317 182.446 177.01 182.446 176.632V158.632C182.446 158.254 182.748 157.947 183.121 157.947C183.495 157.947 183.797 158.254 183.797 158.632V176.632C183.797 177.01 183.495 177.317 183.121 177.317Z" fill="#FAB317"/>
<path d="M186.043 181.326C185.67 181.326 185.367 181.019 185.367 180.641V154.62C185.367 154.241 185.67 153.934 186.043 153.934C186.416 153.934 186.719 154.241 186.719 154.62V180.641C186.719 181.019 186.416 181.326 186.043 181.326Z" fill="#FAB317"/>
<path d="M191.887 176.221C191.514 176.221 191.211 175.914 191.211 175.536V159.725C191.211 159.346 191.514 159.039 191.887 159.039C192.26 159.039 192.563 159.346 192.563 159.725V175.536C192.563 175.914 192.26 176.221 191.887 176.221Z" fill="#FAB317"/>
<path d="M188.965 183.607C188.592 183.607 188.289 183.3 188.289 182.922V152.342C188.289 151.964 188.592 151.657 188.965 151.657C189.338 151.657 189.641 151.964 189.641 152.342V182.922C189.641 183.3 189.338 183.607 188.965 183.607Z" fill="#FAB317"/>
<path d="M165.499 185.928C165.125 185.928 164.823 185.621 164.823 185.242V150.018C164.823 149.64 165.125 149.333 165.499 149.333C165.872 149.333 166.175 149.64 166.175 150.018V185.242C166.175 185.621 165.872 185.928 165.499 185.928Z" fill="#FAB317"/>
<path d="M168.42 177.317C168.047 177.317 167.744 177.01 167.744 176.632V158.632C167.744 158.254 168.047 157.947 168.42 157.947C168.793 157.947 169.096 158.254 169.096 158.632V176.632C169.096 177.01 168.793 177.317 168.42 177.317Z" fill="#FAB317"/>
<path d="M171.342 181.326C170.969 181.326 170.666 181.019 170.666 180.641V154.62C170.666 154.241 170.969 153.934 171.342 153.934C171.715 153.934 172.018 154.241 172.018 154.62V180.641C172.018 181.019 171.715 181.326 171.342 181.326Z" fill="#FAB317"/>
<path d="M177.186 176.221C176.813 176.221 176.51 175.914 176.51 175.536V159.725C176.51 159.346 176.813 159.039 177.186 159.039C177.559 159.039 177.862 159.346 177.862 159.725V175.536C177.862 175.914 177.559 176.221 177.186 176.221Z" fill="#FAB317"/>
<path d="M174.264 183.607C173.891 183.607 173.588 183.3 173.588 182.922V152.342C173.588 151.964 173.891 151.657 174.264 151.657C174.637 151.657 174.94 151.964 174.94 152.342V182.922C174.94 183.3 174.637 183.607 174.264 183.607Z" fill="#FAB317"/>
<path d="M150.801 185.928C150.428 185.928 150.125 185.621 150.125 185.242V150.018C150.125 149.64 150.428 149.333 150.801 149.333C151.174 149.333 151.477 149.64 151.477 150.018V185.242C151.477 185.621 151.174 185.928 150.801 185.928Z" fill="#FAB317"/>
<path d="M153.723 177.317C153.35 177.317 153.047 177.01 153.047 176.632V158.632C153.047 158.254 153.35 157.947 153.723 157.947C154.096 157.947 154.399 158.254 154.399 158.632V176.632C154.399 177.01 154.096 177.317 153.723 177.317Z" fill="#FAB317"/>
<path d="M156.645 181.326C156.272 181.326 155.969 181.019 155.969 180.641V154.62C155.969 154.241 156.272 153.934 156.645 153.934C157.018 153.934 157.321 154.241 157.321 154.62V180.641C157.321 181.019 157.018 181.326 156.645 181.326Z" fill="#FAB317"/>
<path d="M162.489 176.221C162.115 176.221 161.813 175.914 161.813 175.536V159.725C161.813 159.346 162.115 159.039 162.489 159.039C162.862 159.039 163.165 159.346 163.165 159.725V175.536C163.165 175.914 162.862 176.221 162.489 176.221Z" fill="#FAB317"/>
<path d="M159.567 183.607C159.194 183.607 158.891 183.3 158.891 182.922V152.342C158.891 151.964 159.194 151.657 159.567 151.657C159.94 151.657 160.243 151.964 160.243 152.342V182.922C160.243 183.3 159.94 183.607 159.567 183.607Z" fill="#FAB317"/>
<path d="M136.776 150.022C136.776 149.643 136.474 149.336 136.102 149.336C135.73 149.336 135.428 149.643 135.428 150.022V185.242C135.428 185.621 135.73 185.928 136.102 185.928C136.474 185.928 136.776 185.621 136.776 185.242V150.022Z" fill="#FAB317"/>
<path d="M139.026 177.317C138.652 177.317 138.35 177.01 138.35 176.632V158.632C138.35 158.254 138.652 157.947 139.026 157.947C139.399 157.947 139.701 158.254 139.701 158.632V176.632C139.701 177.01 139.399 177.317 139.026 177.317Z" fill="#FAB317"/>
<path d="M141.947 181.326C141.574 181.326 141.271 181.019 141.271 180.641V154.62C141.271 154.241 141.574 153.934 141.947 153.934C142.321 153.934 142.623 154.241 142.623 154.62V180.641C142.623 181.019 142.321 181.326 141.947 181.326Z" fill="#FAB317"/>
<path d="M147.791 176.221C147.418 176.221 147.115 175.914 147.115 175.536V159.725C147.115 159.346 147.418 159.039 147.791 159.039C148.165 159.039 148.467 159.346 148.467 159.725V175.536C148.467 175.914 148.165 176.221 147.791 176.221Z" fill="#FAB317"/>
<path d="M144.869 183.607C144.496 183.607 144.193 183.3 144.193 182.922V152.342C144.193 151.964 144.496 151.657 144.869 151.657C145.242 151.657 145.545 151.964 145.545 152.342V182.922C145.545 183.3 145.242 183.607 144.869 183.607Z" fill="#FAB317"/>
<path d="M121.403 185.928C121.03 185.928 120.727 185.621 120.727 185.242V150.018C120.727 149.64 121.03 149.333 121.403 149.333C121.776 149.333 122.079 149.64 122.079 150.018V185.242C122.079 185.621 121.776 185.928 121.403 185.928Z" fill="#FAB317"/>
<path d="M124.325 177.317C123.952 177.317 123.649 177.01 123.649 176.632V158.632C123.649 158.254 123.952 157.947 124.325 157.947C124.698 157.947 125.001 158.254 125.001 158.632V176.632C125.001 177.01 124.698 177.317 124.325 177.317Z" fill="#FAB317"/>
<path d="M127.247 181.326C126.874 181.326 126.571 181.019 126.571 180.641V154.62C126.571 154.241 126.874 153.934 127.247 153.934C127.62 153.934 127.923 154.241 127.923 154.62V180.641C127.923 181.019 127.62 181.326 127.247 181.326Z" fill="#FAB317"/>
<path d="M133.09 176.221C132.717 176.221 132.415 175.914 132.415 175.536V159.725C132.415 159.346 132.717 159.039 133.09 159.039C133.464 159.039 133.766 159.346 133.766 159.725V175.536C133.766 175.914 133.464 176.221 133.09 176.221Z" fill="#FAB317"/>
<path d="M130.844 152.342C130.844 151.963 130.543 151.657 130.17 151.657C129.798 151.657 129.496 151.963 129.496 152.342V182.918C129.496 183.297 129.798 183.604 130.17 183.604C130.543 183.604 130.844 183.297 130.844 182.918V152.342Z" fill="#FAB317"/>
<path d="M209.461 185.928C209.087 185.928 208.785 185.621 208.785 185.242V150.018C208.785 149.64 209.087 149.333 209.461 149.333C209.834 149.333 210.136 149.64 210.136 150.018V185.242C210.136 185.621 209.834 185.928 209.461 185.928Z" fill="#FAB317"/>
<path d="M212.382 177.317C212.009 177.317 211.707 177.01 211.707 176.632V158.632C211.707 158.254 212.009 157.947 212.382 157.947C212.756 157.947 213.058 158.254 213.058 158.632V176.632C213.058 177.01 212.756 177.317 212.382 177.317Z" fill="#FAB317"/>
<path d="M215.304 181.326C214.931 181.326 214.628 181.019 214.628 180.641V154.62C214.628 154.241 214.931 153.934 215.304 153.934C215.677 153.934 215.98 154.241 215.98 154.62V180.641C215.98 181.019 215.677 181.326 215.304 181.326Z" fill="#FAB317"/>
<path d="M221.148 176.221C220.775 176.221 220.472 175.914 220.472 175.536V159.725C220.472 159.346 220.775 159.039 221.148 159.039C221.521 159.039 221.824 159.346 221.824 159.725V175.536C221.824 175.914 221.521 176.221 221.148 176.221Z" fill="#FAB317"/>
<path d="M218.226 183.607C217.853 183.607 217.55 183.3 217.55 182.922V152.342C217.55 151.964 217.853 151.657 218.226 151.657C218.599 151.657 218.902 151.964 218.902 152.342V182.922C218.902 183.3 218.599 183.607 218.226 183.607Z" fill="#FAB317"/>
<path d="M223.891 185.928C223.517 185.928 223.215 185.621 223.215 185.242V150.018C223.215 149.64 223.517 149.333 223.891 149.333C224.264 149.333 224.566 149.64 224.566 150.018V185.242C224.566 185.621 224.264 185.928 223.891 185.928Z" fill="#FAB317"/>
<path d="M226.812 177.317C226.439 177.317 226.136 177.01 226.136 176.632V158.632C226.136 158.254 226.439 157.947 226.812 157.947C227.186 157.947 227.488 158.254 227.488 158.632V176.632C227.488 177.01 227.186 177.317 226.812 177.317Z" fill="#FAB317"/>
<path d="M229.734 181.326C229.361 181.326 229.058 181.019 229.058 180.641V154.62C229.058 154.241 229.361 153.934 229.734 153.934C230.107 153.934 230.41 154.241 230.41 154.62V180.641C230.41 181.019 230.107 181.326 229.734 181.326Z" fill="#FAB317"/>
<path d="M235.578 176.221C235.205 176.221 234.902 175.914 234.902 175.536V159.725C234.902 159.346 235.205 159.039 235.578 159.039C235.951 159.039 236.254 159.346 236.254 159.725V175.536C236.254 175.914 235.951 176.221 235.578 176.221Z" fill="#FAB317"/>
<path d="M232.656 183.607C232.283 183.607 231.98 183.3 231.98 182.922V152.342C231.98 151.964 232.283 151.657 232.656 151.657C233.029 151.657 233.332 151.964 233.332 152.342V182.922C233.332 183.3 233.029 183.607 232.656 183.607Z" fill="#FAB317"/>
<path d="M238.993 150.022C238.993 149.643 238.691 149.336 238.318 149.336C237.946 149.336 237.644 149.643 237.644 150.022V185.242C237.644 185.621 237.946 185.928 238.318 185.928C238.691 185.928 238.993 185.621 238.993 185.242V150.022Z" fill="#FAB317"/>
<path d="M241.239 177.317C240.866 177.317 240.563 177.01 240.563 176.632V158.632C240.563 158.254 240.866 157.947 241.239 157.947C241.612 157.947 241.915 158.254 241.915 158.632V176.632C241.915 177.01 241.612 177.317 241.239 177.317Z" fill="#FAB317"/>
<path d="M244.161 181.326C243.788 181.326 243.485 181.019 243.485 180.641V154.62C243.485 154.241 243.788 153.934 244.161 153.934C244.534 153.934 244.837 154.241 244.837 154.62V180.641C244.837 181.019 244.534 181.326 244.161 181.326Z" fill="#FAB317"/>
<path d="M250.004 176.221C249.631 176.221 249.328 175.914 249.328 175.536V159.725C249.328 159.346 249.631 159.039 250.004 159.039C250.377 159.039 250.68 159.346 250.68 159.725V175.536C250.68 175.914 250.377 176.221 250.004 176.221Z" fill="#FAB317"/>
<path d="M247.082 183.607C246.709 183.607 246.406 183.3 246.406 182.922V152.342C246.406 151.964 246.709 151.657 247.082 151.657C247.456 151.657 247.758 151.964 247.758 152.342V182.922C247.758 183.3 247.456 183.607 247.082 183.607Z" fill="#FAB317"/>
<path d="M252.746 185.928C252.373 185.928 252.071 185.621 252.071 185.242V150.018C252.071 149.64 252.373 149.333 252.746 149.333C253.12 149.333 253.422 149.64 253.422 150.018V185.242C253.422 185.621 253.12 185.928 252.746 185.928Z" fill="#FAB317"/>
<path d="M255.669 177.317C255.295 177.317 254.993 177.01 254.993 176.632V158.632C254.993 158.254 255.295 157.947 255.669 157.947C256.042 157.947 256.344 158.254 256.344 158.632V176.632C256.344 177.01 256.042 177.317 255.669 177.317Z" fill="#FAB317"/>
<path d="M258.59 181.326C258.217 181.326 257.915 181.019 257.915 180.641V154.62C257.915 154.241 258.217 153.934 258.59 153.934C258.964 153.934 259.266 154.241 259.266 154.62V180.641C259.266 181.019 258.964 181.326 258.59 181.326Z" fill="#FAB317"/>
<path d="M264.434 176.221C264.061 176.221 263.758 175.914 263.758 175.536V159.725C263.758 159.346 264.061 159.039 264.434 159.039C264.807 159.039 265.11 159.346 265.11 159.725V175.536C265.11 175.914 264.807 176.221 264.434 176.221Z" fill="#FAB317"/>
<path d="M262.188 152.342C262.188 151.963 261.887 151.657 261.514 151.657C261.142 151.657 260.84 151.963 260.84 152.342V182.918C260.84 183.297 261.142 183.604 261.514 183.604C261.887 183.604 262.188 183.297 262.188 182.918V152.342Z" fill="#FAB317"/>
<path d="M267.177 185.928C266.803 185.928 266.501 185.621 266.501 185.242V150.018C266.501 149.64 266.803 149.333 267.177 149.333C267.55 149.333 267.853 149.64 267.853 150.018V185.242C267.853 185.621 267.55 185.928 267.177 185.928Z" fill="#FAB317"/>
<path d="M270.099 177.317C269.725 177.317 269.423 177.01 269.423 176.632V158.632C269.423 158.254 269.725 157.947 270.099 157.947C270.472 157.947 270.774 158.254 270.774 158.632V176.632C270.774 177.01 270.472 177.317 270.099 177.317Z" fill="#FAB317"/>
<path d="M273.02 181.326C272.647 181.326 272.344 181.019 272.344 180.641V154.62C272.344 154.241 272.647 153.934 273.02 153.934C273.394 153.934 273.696 154.241 273.696 154.62V180.641C273.696 181.019 273.394 181.326 273.02 181.326Z" fill="#FAB317"/>
<path d="M278.864 176.221C278.491 176.221 278.188 175.914 278.188 175.536V159.725C278.188 159.346 278.491 159.039 278.864 159.039C279.237 159.039 279.54 159.346 279.54 159.725V175.536C279.54 175.914 279.237 176.221 278.864 176.221Z" fill="#FAB317"/>
<path d="M275.942 183.607C275.569 183.607 275.266 183.3 275.266 182.922V152.342C275.266 151.964 275.569 151.657 275.942 151.657C276.315 151.657 276.618 151.964 276.618 152.342V182.922C276.618 183.3 276.315 183.607 275.942 183.607Z" fill="#FAB317"/>
<path d="M281.607 185.928C281.233 185.928 280.931 185.621 280.931 185.242V150.018C280.931 149.64 281.233 149.333 281.607 149.333C281.98 149.333 282.282 149.64 282.282 150.018V185.242C282.282 185.621 281.98 185.928 281.607 185.928Z" fill="#FAB317"/>
<path d="M284.528 177.317C284.155 177.317 283.852 177.01 283.852 176.632V158.632C283.852 158.254 284.155 157.947 284.528 157.947C284.901 157.947 285.204 158.254 285.204 158.632V176.632C285.204 177.01 284.901 177.317 284.528 177.317Z" fill="#FAB317"/>
<path d="M287.45 181.326C287.077 181.326 286.774 181.019 286.774 180.641V154.62C286.774 154.241 287.077 153.934 287.45 153.934C287.823 153.934 288.126 154.241 288.126 154.62V180.641C288.126 181.019 287.823 181.326 287.45 181.326Z" fill="#FAB317"/>
<path d="M293.29 176.221C292.917 176.221 292.615 175.914 292.615 175.536V159.725C292.615 159.346 292.917 159.039 293.29 159.039C293.664 159.039 293.966 159.346 293.966 159.725V175.536C293.966 175.914 293.664 176.221 293.29 176.221Z" fill="#FAB317"/>
<path d="M290.372 183.607C289.999 183.607 289.696 183.3 289.696 182.922V152.342C289.696 151.964 289.999 151.657 290.372 151.657C290.745 151.657 291.048 151.964 291.048 152.342V182.922C291.048 183.3 290.745 183.607 290.372 183.607Z" fill="#FAB317"/>
<path d="M293.428 193.046H120.459C120.16 193.046 119.921 192.8 119.921 192.5C119.921 192.2 120.164 191.954 120.459 191.954H293.424C293.723 191.954 293.963 192.2 293.963 192.5C293.963 192.8 293.72 193.046 293.424 193.046H293.428Z" fill="#FAB317"/>
<g style="mix-blend-mode:multiply" opacity="0.5">
<path d="M180.379 95.3307H125.518C123.071 95.3307 121.086 97.3441 121.086 99.8252V172.276C121.086 174.757 123.071 176.771 125.518 176.771H167.836L184.811 157.408V99.8252C184.811 97.3441 182.826 95.3307 180.379 95.3307Z" fill="#BDBDBD"/>
</g>
<path d="M182.143 96.2232C182.143 93.7421 180.157 91.7287 177.711 91.7287H122.85C120.403 91.7287 118.417 93.7421 118.417 96.2232V168.674C118.417 171.155 120.403 173.169 122.85 173.169H165.168L182.143 153.806V96.2232Z" fill="#F4F3F2"/>
<path d="M182.143 153.802H169.6C167.153 153.802 165.167 155.816 165.167 158.297V173.169L182.143 153.806V153.802Z" fill="#DCDBDB"/>
<path d="M172.74 107.011H127.803C127.116 107.011 126.556 106.447 126.556 105.748C126.556 105.052 127.113 104.484 127.803 104.484H172.74C173.426 104.484 173.986 105.048 173.986 105.748C173.986 106.444 173.43 107.011 172.74 107.011Z" fill="#B6B5BA"/>
<path d="M172.74 126.128H127.803C127.116 126.128 126.556 125.564 126.556 124.864C126.556 124.168 127.113 123.601 127.803 123.601H172.74C173.426 123.601 173.986 124.165 173.986 124.864C173.986 125.561 173.43 126.128 172.74 126.128Z" fill="#B6B5BA"/>
<path d="M172.74 116.568H127.803C127.116 116.568 126.556 116.004 126.556 115.304C126.556 114.608 127.113 114.041 127.803 114.041H172.74C173.426 114.041 173.986 114.605 173.986 115.304C173.986 116 173.43 116.568 172.74 116.568Z" fill="#B6B5BA"/>
<path d="M172.74 134.307H127.803C127.116 134.307 126.556 133.743 126.556 133.043C126.556 132.347 127.113 131.779 127.803 131.779H172.74C173.426 131.779 173.986 132.343 173.986 133.043C173.986 133.739 173.43 134.307 172.74 134.307Z" fill="#B6B5BA"/>
<path d="M164.175 142.486H136.364C135.678 142.486 135.118 141.921 135.118 141.222C135.118 140.526 135.674 139.958 136.364 139.958H164.175C164.861 139.958 165.421 140.522 165.421 141.222C165.421 141.918 164.865 142.486 164.175 142.486Z" fill="#B6B5BA"/>
<g style="mix-blend-mode:multiply" opacity="0.5">
<path d="M296.906 102.981H222.232C221.439 102.981 220.796 103.633 220.796 104.437V150.543C220.796 151.347 221.439 151.999 222.232 151.999H296.906C297.699 151.999 298.342 151.347 298.342 150.543V104.437C298.342 103.633 297.699 102.981 296.906 102.981Z" fill="#BDBDBD"/>
</g>
<path d="M294.748 100.793H220.074C219.281 100.793 218.638 101.445 218.638 102.249V148.354C218.638 149.159 219.281 149.811 220.074 149.811H294.748C295.541 149.811 296.184 149.159 296.184 148.354V102.249C296.184 101.445 295.541 100.793 294.748 100.793Z" fill="#FAB317"/>
<g style="mix-blend-mode:multiply" opacity="0.5">
<path d="M376.497 248.533L302.982 193.649L295.068 204.552L368.172 259.129L286.18 219.678L284.226 223.854L260.263 275.072C258.855 278.085 260.119 281.683 263.09 283.111L334.813 317.621C337.784 319.049 341.333 317.768 342.741 314.755L362.937 271.595L368.661 259.364L368.647 259.357L376.505 248.537L376.497 248.533Z" fill="#BDBDBD"/>
</g>
<path d="M257.411 143.835C267.506 143.835 275.689 135.537 275.689 125.3C275.689 115.063 267.506 106.765 257.411 106.765C247.317 106.765 239.134 115.063 239.134 125.3C239.134 135.537 247.317 143.835 257.411 143.835Z" fill="#EE9421"/>
<path d="M251.92 119.035V131.565C251.92 132.886 253.402 133.646 254.451 132.865L262.255 127.042C263.083 126.425 263.125 125.186 262.34 124.515L254.535 117.807C253.504 116.918 251.916 117.664 251.916 119.038L251.92 119.035Z" fill="white"/>
<path d="M304.38 204.023H105.642V207.315H304.38V204.023Z" fill="#B6B5BA"/>
<path d="M181.794 204.023H105.642V207.315H181.794V204.023Z" fill="#F7A81C"/>
<path d="M282.085 220.558L364.564 260.238L338.884 315.13C338.424 316.114 337.266 316.533 336.296 316.066L257.325 278.074C256.355 277.607 255.942 276.433 256.402 275.449L282.082 220.557L282.085 220.558Z" fill="#FAB317"/>
<path d="M366.517 256.062L284.039 216.383L278.317 228.613L360.796 268.293L366.517 256.062Z" fill="#EFEBE0"/>
<path d="M285.303 209.178L286.669 243.814" stroke="#454546" stroke-width="4" stroke-miterlimit="10"/>
<path d="M295.501 213.798L296.867 248.433" stroke="#454546" stroke-width="4" stroke-miterlimit="10"/>
<path d="M305.7 218.421L307.066 253.056" stroke="#454546" stroke-width="4" stroke-miterlimit="10"/>
<path d="M315.898 223.044L317.264 257.679" stroke="#454546" stroke-width="4" stroke-miterlimit="10"/>
<path d="M326.096 227.667L327.462 262.299" stroke="#454546" stroke-width="4" stroke-miterlimit="10"/>
<path d="M336.295 232.286L337.661 266.922" stroke="#454546" stroke-width="4" stroke-miterlimit="10"/>
<path d="M346.493 236.909L347.859 271.545" stroke="#454546" stroke-width="4" stroke-miterlimit="10"/>
<path d="M356.692 241.532L358.061 276.164" stroke="#454546" stroke-width="4" stroke-miterlimit="10"/>
<path d="M292.902 201.271L366.418 256.155L374.333 245.253L300.816 190.37L292.902 201.271Z" fill="#EFEBE0"/>
<path d="M380 240.69L349.267 255.866" stroke="#454546" stroke-width="4" stroke-miterlimit="10"/>
<path d="M371.157 233.768L340.424 248.944" stroke="#454546" stroke-width="4" stroke-miterlimit="10"/>
<path d="M362.314 226.846L331.581 242.022" stroke="#454546" stroke-width="4" stroke-miterlimit="10"/>
<path d="M353.471 219.924L322.738 235.099" stroke="#454546" stroke-width="4" stroke-miterlimit="10"/>
<path d="M344.628 213.002L313.895 228.177" stroke="#454546" stroke-width="4" stroke-miterlimit="10"/>
<path d="M335.785 206.08L305.052 221.255" stroke="#454546" stroke-width="4" stroke-miterlimit="10"/>
<path d="M326.941 199.158L296.212 214.333" stroke="#454546" stroke-width="4" stroke-miterlimit="10"/>
<path d="M318.098 192.236L287.369 207.411" stroke="#454546" stroke-width="4" stroke-miterlimit="10"/>
<path d="M164.351 96.0518H134.315L132.485 95.0451L134.315 92.821L132.485 92.0892L134.315 90.6684L132.485 89.5938H166.182L164.351 90.597L166.182 91.8893L164.351 93.3958L166.182 94.8844L164.351 96.0518Z" fill="#FAB317"/>
<g style="mix-blend-mode:multiply" opacity="0.5">
<path d="M355.111 2.18835H262.776C258.862 2.18835 255.69 5.40483 255.69 9.37456V61.9664C255.69 65.9361 258.862 69.1526 262.776 69.1526H275.439C277.231 69.1526 278.892 70.0986 279.822 71.6515L284.461 79.3768C285.327 80.819 287.39 80.8154 288.253 79.3768L292.872 71.6586C293.801 70.1022 295.466 69.1561 297.258 69.1561H355.108C359.022 69.1561 362.194 65.9397 362.194 61.9699V9.37456C362.194 5.40483 359.022 2.18835 355.108 2.18835H355.111Z" fill="#BDBDBD"/>
</g>
<path d="M352.953 0H260.618C256.704 0 253.532 3.21648 253.532 7.18621V59.778C253.532 63.7477 256.704 66.9642 260.618 66.9642H273.281C275.073 66.9642 276.734 67.9102 277.664 69.4632L282.303 77.1884C283.169 78.6307 285.232 78.6271 286.095 77.1884L290.714 69.4703C291.643 67.9138 293.308 66.9678 295.1 66.9678H352.95C356.864 66.9678 360.036 63.7513 360.036 59.7816V7.18621C360.036 3.21648 356.864 0 352.95 0H352.953Z" fill="#FBBF13"/>
<path d="M352.953 0H329.286C333.201 0 336.372 3.21648 336.372 7.18621V59.778C336.372 63.7477 333.201 66.9642 329.286 66.9642H352.953C356.868 66.9642 360.04 63.7477 360.04 59.778V7.18621C360.04 3.21648 356.868 0 352.953 0Z" fill="#F7A81C"/>
<path d="M360.043 9.68156H253.532V59.0355H360.043V9.68156Z" fill="#5C4EA0"/>
<path d="M360.043 51.2531H253.532V59.0355H360.043V51.2531Z" fill="#EFEBE0"/>
<path d="M360.043 9.68156H253.532V18.6956H360.043V9.68156Z" fill="#EFEBE0"/>
<g style="mix-blend-mode:multiply">
<path d="M264.899 12.1877H258.031C257.817 12.1877 257.643 12.3635 257.643 12.5803V15.8004C257.643 16.0173 257.817 16.1931 258.031 16.1931H264.899C265.113 16.1931 265.286 16.0173 265.286 15.8004V12.5803C265.286 12.3635 265.113 12.1877 264.899 12.1877Z" fill="#473E99"/>
</g>
<g style="mix-blend-mode:multiply">
<path d="M277.636 12.1877H270.767C270.553 12.1877 270.38 12.3635 270.38 12.5803V15.8004C270.38 16.0173 270.553 16.1931 270.767 16.1931H277.636C277.849 16.1931 278.023 16.0173 278.023 15.8004V12.5803C278.023 12.3635 277.849 12.1877 277.636 12.1877Z" fill="#473E99"/>
</g>
<g style="mix-blend-mode:multiply">
<path d="M290.376 12.1877H283.507C283.293 12.1877 283.12 12.3635 283.12 12.5803V15.8004C283.12 16.0173 283.293 16.1931 283.507 16.1931H290.376C290.589 16.1931 290.763 16.0173 290.763 15.8004V12.5803C290.763 12.3635 290.589 12.1877 290.376 12.1877Z" fill="#473E99"/>
</g>
<g style="mix-blend-mode:multiply">
<path d="M303.112 12.1877H296.244C296.03 12.1877 295.857 12.3635 295.857 12.5803V15.8004C295.857 16.0173 296.03 16.1931 296.244 16.1931H303.112C303.326 16.1931 303.5 16.0173 303.5 15.8004V12.5803C303.5 12.3635 303.326 12.1877 303.112 12.1877Z" fill="#473E99"/>
</g>
<g style="mix-blend-mode:multiply">
<path d="M315.849 12.1877H308.981C308.767 12.1877 308.594 12.3635 308.594 12.5803V15.8004C308.594 16.0173 308.767 16.1931 308.981 16.1931H315.849C316.063 16.1931 316.236 16.0173 316.236 15.8004V12.5803C316.236 12.3635 316.063 12.1877 315.849 12.1877Z" fill="#473E99"/>
</g>
<g style="mix-blend-mode:multiply">
<path d="M328.585 12.1877H321.717C321.503 12.1877 321.33 12.3635 321.33 12.5803V15.8004C321.33 16.0173 321.503 16.1931 321.717 16.1931H328.585C328.799 16.1931 328.973 16.0173 328.973 15.8004V12.5803C328.973 12.3635 328.799 12.1877 328.585 12.1877Z" fill="#473E99"/>
</g>
<g style="mix-blend-mode:multiply">
<path d="M341.322 12.1877H334.454C334.24 12.1877 334.067 12.3635 334.067 12.5803V15.8004C334.067 16.0173 334.24 16.1931 334.454 16.1931H341.322C341.536 16.1931 341.709 16.0173 341.709 15.8004V12.5803C341.709 12.3635 341.536 12.1877 341.322 12.1877Z" fill="#473E99"/>
</g>
<g style="mix-blend-mode:multiply">
<path d="M354.059 12.1877H347.19C346.977 12.1877 346.803 12.3635 346.803 12.5803V15.8004C346.803 16.0173 346.977 16.1931 347.19 16.1931H354.059C354.273 16.1931 354.446 16.0173 354.446 15.8004V12.5803C354.446 12.3635 354.273 12.1877 354.059 12.1877Z" fill="#473E99"/>
</g>
<g style="mix-blend-mode:multiply">
<path d="M264.899 53.1416H258.031C257.817 53.1416 257.643 53.3174 257.643 53.5343V56.7543C257.643 56.9712 257.817 57.147 258.031 57.147H264.899C265.113 57.147 265.286 56.9712 265.286 56.7543V53.5343C265.286 53.3174 265.113 53.1416 264.899 53.1416Z" fill="#473E99"/>
</g>
<g style="mix-blend-mode:multiply">
<path d="M277.636 53.1416H270.767C270.553 53.1416 270.38 53.3174 270.38 53.5343V56.7543C270.38 56.9712 270.553 57.147 270.767 57.147H277.636C277.849 57.147 278.023 56.9712 278.023 56.7543V53.5343C278.023 53.3174 277.849 53.1416 277.636 53.1416Z" fill="#473E99"/>
</g>
<g style="mix-blend-mode:multiply">
<path d="M290.376 53.1416H283.507C283.293 53.1416 283.12 53.3174 283.12 53.5343V56.7543C283.12 56.9712 283.293 57.147 283.507 57.147H290.376C290.589 57.147 290.763 56.9712 290.763 56.7543V53.5343C290.763 53.3174 290.589 53.1416 290.376 53.1416Z" fill="#473E99"/>
</g>
<g style="mix-blend-mode:multiply">
<path d="M303.112 53.1416H296.244C296.03 53.1416 295.857 53.3174 295.857 53.5343V56.7543C295.857 56.9712 296.03 57.147 296.244 57.147H303.112C303.326 57.147 303.5 56.9712 303.5 56.7543V53.5343C303.5 53.3174 303.326 53.1416 303.112 53.1416Z" fill="#473E99"/>
</g>
<g style="mix-blend-mode:multiply">
<path d="M315.849 53.1416H308.981C308.767 53.1416 308.594 53.3174 308.594 53.5343V56.7543C308.594 56.9712 308.767 57.147 308.981 57.147H315.849C316.063 57.147 316.236 56.9712 316.236 56.7543V53.5343C316.236 53.3174 316.063 53.1416 315.849 53.1416Z" fill="#473E99"/>
</g>
<g style="mix-blend-mode:multiply">
<path d="M328.585 53.1416H321.717C321.503 53.1416 321.33 53.3174 321.33 53.5343V56.7543C321.33 56.9712 321.503 57.147 321.717 57.147H328.585C328.799 57.147 328.973 56.9712 328.973 56.7543V53.5343C328.973 53.3174 328.799 53.1416 328.585 53.1416Z" fill="#473E99"/>
</g>
<g style="mix-blend-mode:multiply">
<path d="M341.322 53.1416H334.454C334.24 53.1416 334.067 53.3174 334.067 53.5343V56.7543C334.067 56.9712 334.24 57.147 334.454 57.147H341.322C341.536 57.147 341.709 56.9712 341.709 56.7543V53.5343C341.709 53.3174 341.536 53.1416 341.322 53.1416Z" fill="#473E99"/>
</g>
<g style="mix-blend-mode:multiply">
<path d="M354.059 53.1416H347.19C346.977 53.1416 346.803 53.3174 346.803 53.5343V56.7543C346.803 56.9712 346.977 57.147 347.19 57.147H354.059C354.273 57.147 354.446 56.9712 354.446 56.7543V53.5343C354.446 53.3174 354.273 53.1416 354.059 53.1416Z" fill="#473E99"/>
</g>
<path d="M288.101 18.6991H285.961V51.2531H288.101V18.6991Z" fill="#EFEBE0"/>
<path d="M327.29 18.6991H325.149V51.2531H327.29V18.6991Z" fill="#EFEBE0"/>
<path d="M301.493 28.32V40.397C301.493 41.6715 302.922 42.4033 303.933 41.6501L311.455 36.0382C312.251 35.442 312.293 34.2496 311.54 33.5999L304.017 27.1348C303.021 26.2781 301.493 26.9956 301.493 28.32Z" fill="white"/>
<path d="M278.812 243.814C301.813 254.188 324.872 265.108 347.476 276.35C324.474 265.979 301.416 255.052 278.812 243.814Z" fill="white"/>
<path d="M272.858 258.579C295.86 268.953 318.919 279.873 341.523 291.115C318.521 280.744 295.463 269.817 272.858 258.579Z" fill="white"/>
<path d="M282.483 282.233C284.409 277.01 286.785 271.962 289.584 267.164C287.662 272.387 285.278 277.435 282.483 282.233Z" fill="white"/>
<path d="M316.722 298.24C318.648 293.018 321.024 287.97 323.822 283.172C321.9 288.395 319.517 293.442 316.722 298.24Z" fill="white"/>
<g style="mix-blend-mode:multiply" opacity="0.5">
<path d="M303.735 287.67L303.2 287.384C302.232 286.867 301.039 287.245 300.528 288.227L281.557 324.786L280.55 331.369L281.853 330.227L285.595 326.942L304.566 290.383C305.073 289.401 304.703 288.191 303.735 287.673V287.67Z" fill="#BDBDBD"/>
</g>
<path d="M300.909 285.67L303.803 287.215C304.118 287.383 304.239 287.778 304.073 288.097L284.477 325.851L280.44 323.696L300.036 285.942C300.201 285.623 300.591 285.501 300.906 285.668L300.909 285.67Z" fill="#F04F29"/>
<path d="M301.877 292.331L297.84 290.176L280.44 323.699L284.477 325.854L301.877 292.331Z" fill="#F89624"/>
<path d="M280.477 323.69L279.47 330.273L284.514 325.846L280.477 323.69Z" fill="#FED8BA"/>
<path d="M279.47 330.273L279.744 328.485L280.772 329.127L279.47 330.273Z" fill="#454546"/>
<path d="M299.659 293.607C295.272 302.389 290.192 311.981 285.398 320.542C289.788 311.76 294.864 302.167 299.659 293.607Z" fill="#F58023"/>
<path d="M297.902 293.607C294.773 300.022 291.414 306.365 287.869 312.556C290.999 306.137 294.357 299.793 297.902 293.607Z" fill="#F58023"/>
<g style="mix-blend-mode:multiply" opacity="0.5">
<path d="M145.472 25.7069C141.733 7.59318 120.16 0.963872 110.233 19.6416C100.851 37.2948 114.355 52.9381 116.175 56.8079C120.329 65.6327 119.713 68.4672 119.713 68.4672V72.6796C119.713 76.6351 122.874 79.8409 126.775 79.8409C130.676 79.8409 133.837 76.6351 133.837 72.6796V68.4672C134.46 51.6172 149.207 43.8241 145.468 25.7104L145.472 25.7069Z" fill="#BDBDBD"/>
</g>
<path d="M55.6851 395.592C55.6851 395.592 63.2995 372.277 68.6364 348.519C75.0152 320.11 53.6996 329.359 51.1403 335.25C51.1403 335.25 61.1768 310.981 51.3198 305.427C44.3636 301.507 39.7309 312.727 39.7309 312.727C39.7309 312.727 38.5058 278.128 23.3894 277.189C8.26957 276.253 15.6658 304.199 24.6251 316.986C24.6251 316.986 5.46738 299.747 4.0346 312.159C2.81304 322.737 21.1927 337.356 25.8396 343.103C25.8396 343.103 5.98839 327.842 2.92921 335.939C-0.129965 344.035 22.6783 379.474 55.6886 395.588L55.6851 395.592Z" fill="#5C4EA0"/>
<path d="M28.5784 299.665C28.5784 299.665 36.9814 352.185 51.4782 383.39" stroke="white" stroke-width="2" stroke-linecap="round" stroke-linejoin="round"/>
<path d="M19.1226 322.219C19.1226 322.219 32.3098 333.025 37.3157 341.343" stroke="white" stroke-width="2" stroke-linecap="round" stroke-linejoin="round"/>
<path d="M45.4479 318.664C45.4479 318.664 40.4983 334.55 38.3403 344.899" stroke="white" stroke-width="2" stroke-linecap="round" stroke-linejoin="round"/>
<path d="M19.2388 344.285C19.2388 344.285 37.534 355.744 44.8141 366.575C44.8141 366.575 47.5634 347.234 56.0862 338.316" stroke="white" stroke-width="2" stroke-linecap="round" stroke-linejoin="round"/>
<path d="M354.71 387.074C354.71 387.074 364.922 377.878 374.142 367.814C385.168 355.78 372.192 354.184 369.302 356.326C369.302 356.326 380.957 347.359 377.698 341.825C375.395 337.92 370.009 342.068 370.009 342.068C370.009 342.068 379.049 324.833 371.935 320.045C364.817 315.258 360.642 331.012 361.451 339.819C361.451 339.819 356.903 325.918 352.749 331.565C349.207 336.378 354.104 348.776 354.77 352.913C354.77 352.913 349.334 339.78 345.585 342.853C341.836 345.927 343.093 369.753 354.713 387.074H354.71Z" fill="#5C4EA0"/>
<path d="M368.207 332.501C368.207 332.501 357.677 360.535 356.058 379.916" stroke="white" stroke-width="2" stroke-linecap="round" stroke-linejoin="round"/>
<path d="M357.308 340.797C357.308 340.797 360.733 349.847 360.856 355.341" stroke="white" stroke-width="2" stroke-linecap="round" stroke-linejoin="round"/>
<path d="M371.146 346.602C371.146 346.602 364.306 352.935 360.37 357.369" stroke="white" stroke-width="2" stroke-linecap="round" stroke-linejoin="round"/>
<path d="M351.221 351.596C351.221 351.596 356.956 362.431 357.491 369.799C357.491 369.799 364.222 361.149 370.865 359.239" stroke="white" stroke-width="2" stroke-linecap="round" stroke-linejoin="round"/>
<g style="mix-blend-mode:multiply" opacity="0.5">
<path d="M61.1602 194.771L13.6132 198.514C13.0317 198.56 12.5969 199.075 12.6421 199.665L17.248 259.819C17.2932 260.409 17.8012 260.85 18.3827 260.804L65.9297 257.06C66.5112 257.014 66.946 256.499 66.9009 255.909L62.2949 195.755C62.2497 195.166 61.7417 194.725 61.1602 194.771Z" fill="#BDBDBD"/>
</g>
<path d="M59.1978 192.785L11.6508 196.529C11.0693 196.575 10.6345 197.09 10.6797 197.679L15.2856 257.833C15.3308 258.423 15.8388 258.864 16.4203 258.818L63.9673 255.074C64.5488 255.028 64.9836 254.513 64.9385 253.924L60.3325 193.77C60.2873 193.18 59.7793 192.739 59.1978 192.785Z" fill="#F89624"/>
<g style="mix-blend-mode:multiply" opacity="0.5">
<path d="M68.1042 185.122L17.4403 172.968C16.8727 172.832 16.3037 173.188 16.1695 173.763L1.22635 237.817C1.09207 238.393 1.44335 238.97 2.01095 239.106L52.6748 251.26C53.2424 251.397 53.8114 251.04 53.9457 250.465L68.8888 186.411C69.0231 185.835 68.6718 185.258 68.1042 185.122Z" fill="#BDBDBD"/>
</g>
<g style="mix-blend-mode:multiply">
<path d="M67.1211 183.136L16.4572 170.982C15.8896 170.846 15.3206 171.202 15.1863 171.778L0.243204 235.831C0.108924 236.407 0.460201 236.984 1.0278 237.12L51.6917 249.275C52.2593 249.411 52.8283 249.055 52.9625 248.479L67.9057 184.425C68.0399 183.85 67.6887 183.273 67.1211 183.136Z" fill="#473E99"/>
</g>
<path d="M55.177 190.982L23.6632 183.422C23.0956 183.285 22.5266 183.642 22.3924 184.217L19.6133 196.13C19.479 196.705 19.8303 197.282 20.3979 197.418L51.9117 204.979C52.4793 205.115 53.0483 204.759 53.1825 204.183L55.9616 192.271C56.0959 191.695 55.7446 191.118 55.177 190.982Z" fill="white"/>
<g style="mix-blend-mode:multiply" opacity="0.74">
<g style="mix-blend-mode:multiply">
<path d="M2.88013 237.563L29.5291 243.953L2.88013 237.563Z" fill="#BDBDBD"/>
</g>
</g>
<path d="M117.555 66.2788C117.555 66.2788 118.171 63.4407 114.017 54.6195C112.197 50.7497 98.693 35.1064 108.075 17.4532C117.999 -1.22091 139.575 5.40483 143.313 23.5185C147.052 41.6322 132.305 49.4253 131.682 66.2752H117.559L117.555 66.2788Z" fill="#FBBF13"/>
<g style="mix-blend-mode:multiply" opacity="0.47">
<path d="M143.313 23.5185C140.965 12.1484 131.591 5.30844 122.48 6.40797C130.263 7.30758 137.494 13.7298 139.515 23.5185C143.254 41.6322 128.507 49.4253 127.884 66.2752H131.682C132.305 49.4253 147.052 41.6322 143.313 23.5185Z" fill="#FBBF13"/>
</g>
<path d="M122.402 67.821C122.402 67.821 123.649 47.3191 118.664 41.7036C113.679 36.0881 112.296 41.0003 115.062 42.8281C117.833 44.6523 124.504 41.4252 124.353 32.7182C124.201 24.0112 120.604 27.3812 120.604 30.7511C120.604 34.1211 124.62 41.2824 130.436 40.5791C136.251 39.8758 134.174 34.089 130.436 36.2809C126.697 38.4728 125.173 56.7258 127.25 67.821" stroke="white" stroke-miterlimit="10"/>
<g style="mix-blend-mode:multiply">
<path d="M117.555 66.2788H131.678V75.3142C131.678 76.603 130.647 77.6525 129.373 77.6525H119.857C118.586 77.6525 117.551 76.6065 117.551 75.3142V66.2788H117.555Z" fill="#473E99"/>
</g>
<path d="M118.801 68.6635C122.406 69.7523 126.243 69.4167 129.88 68.6635C129.436 68.817 128.986 68.9634 128.535 69.099C125.37 69.9237 121.832 70.0557 118.805 68.6635H118.801Z" fill="#454546"/>
<path d="M118.801 71.5266C122.406 72.6154 126.243 72.2798 129.88 71.5266C129.436 71.6801 128.986 71.8264 128.535 71.9621C125.37 72.7867 121.832 72.9188 118.805 71.5266H118.801Z" fill="#454546"/>
<g style="mix-blend-mode:screen" opacity="0.53">
<g style="mix-blend-mode:screen">
<path d="M110.226 28.2807C111.05 21.3766 115.369 13.6263 122.48 11.9877C121.494 12.5018 120.555 13.0265 119.678 13.687C114.915 17.2176 112.225 22.7795 110.226 28.2807Z" fill="white"/>
</g>
</g>
<g style="mix-blend-mode:multiply" opacity="0.39">
<path d="M206.827 225.45C206.827 223.601 205.349 222.105 203.529 222.105C201.709 222.105 200.23 223.604 200.23 225.45C200.23 227.296 201.709 228.795 203.529 228.795C205.349 228.795 206.827 227.296 206.827 225.45Z" fill="#B6B5BA"/>
</g>
<path d="M251.62 272.858H136.716C135.711 272.858 134.896 273.685 134.896 274.704V332.743C134.896 333.763 135.711 334.589 136.716 334.589H251.62C252.625 334.589 253.44 333.763 253.44 332.743V274.704C253.44 273.685 252.625 272.858 251.62 272.858Z" fill="#303030"/>
<path d="M250.543 271.762H135.639C134.634 271.762 133.819 272.589 133.819 273.608V331.648C133.819 332.667 134.634 333.493 135.639 333.493H250.543C251.548 333.493 252.363 332.667 252.363 331.648V273.608C252.363 272.589 251.548 271.762 250.543 271.762Z" fill="#212121"/>
<path d="M238.743 279.884H141.427V325.368H238.743V279.884Z" fill="#F4F3F2"/>
<path d="M248.558 302.628C248.558 300.721 247.033 299.176 245.153 299.176C243.274 299.176 241.749 300.721 241.749 302.628C241.749 304.534 243.274 306.08 245.153 306.08C247.033 306.08 248.558 304.534 248.558 302.628Z" fill="#FDFEFE"/>
<path d="M190.088 319.481C199.267 319.481 206.708 311.936 206.708 302.628C206.708 293.32 199.267 285.774 190.088 285.774C180.91 285.774 173.469 293.32 173.469 302.628C173.469 311.936 180.91 319.481 190.088 319.481Z" fill="#FAB317"/>
<path d="M185.093 295.438V309.818C185.093 311.335 186.793 312.206 187.997 311.306L196.953 304.627C197.903 303.92 197.949 302.499 197.051 301.725L188.096 294.024C186.909 293.007 185.093 293.86 185.093 295.434V295.438Z" fill="white"/>
<path d="M106.828 369.078C106.828 369.078 115.471 356.287 115.471 353.917C115.471 351.546 114.654 329.163 115.939 326.792C117.224 324.422 124.465 315.897 125.398 312.581C126.331 309.264 127.852 302.396 133.808 302.631V339.583C133.808 339.583 134.393 342.664 137.427 340.769C140.465 338.873 142.215 333.425 142.331 331.412C142.447 329.398 143.264 318.382 146.07 316.251C148.872 314.119 151.326 315.422 151.794 321.58C152.262 327.738 152.963 335.674 151.794 338.755C150.625 341.836 147.471 349.415 142.099 356.758C136.727 364.101 134.974 364.93 131.939 367.061C128.901 369.192 123.297 377.01 121.66 380.209L106.825 369.074L106.828 369.078Z" fill="#FBB680"/>
<path d="M146.777 315.251C146.598 315.251 146.446 315.387 146.429 315.569C146.316 316.743 145.957 320.777 146.267 321.463C146.626 322.266 150.108 322.298 150.829 321.777C151.449 321.33 151.104 316.847 150.998 315.612C150.984 315.429 150.836 315.297 150.657 315.294L146.781 315.251H146.777Z" fill="white"/>
<g style="mix-blend-mode:multiply">
<path d="M105.262 365.979L126.388 376.739L116.407 399.893H82.2461L105.262 365.979Z" fill="#473E99"/>
</g>
<path d="M254.591 371.845C254.591 371.845 248.1 360.956 247.991 359.507C247.882 358.058 248.079 346.42 246.762 343.3C245.445 340.183 242.369 329.713 236 331.83C236 331.83 234.244 330.159 232.927 329.937C231.611 329.716 229.305 331.162 228.534 329.937C227.766 328.713 226.337 328.377 224.471 328.934C222.605 329.491 222.056 329.827 220.187 329.491C218.321 329.156 215.685 329.045 214.804 330.048C213.924 331.051 211.069 326.15 210.084 323.922C209.094 321.695 202.944 306.216 199.322 306.551C195.7 306.887 199.762 319.024 202.177 326.596C204.592 334.168 206.57 336.842 207.12 342.297C207.669 347.755 208.658 353.767 210.193 356.551C211.731 359.336 224.468 371.584 227.323 372.923C230.178 374.258 237.095 382.833 237.095 382.833L254.591 371.845Z" fill="#FBB680"/>
<path d="M198.505 306.08C198.167 306.162 197.967 306.515 198.079 306.851C198.477 308.054 199.389 310.631 200.079 311.078C200.984 311.663 203.592 310.549 203.367 310.203C203.18 309.921 201.469 306.997 200.853 305.941C200.72 305.712 200.459 305.605 200.206 305.666L198.505 306.08Z" fill="white"/>
<g style="mix-blend-mode:multiply">
<path d="M252.497 364.876L231.698 378.056L244.213 401L279.498 397.651L252.497 364.876Z" fill="#473E99"/>
</g>
<path d="M309.674 387.074C309.674 387.074 326.399 374.715 341.759 360.899C360.124 344.381 340.776 340.055 336.108 342.857C336.108 342.857 354.981 331.058 350.859 322.227C347.947 315.993 339.227 321.452 339.227 321.452C339.227 321.452 355.347 296.795 345.303 288.52C335.26 280.244 326.691 303.392 326.642 316.793C326.642 316.793 321.784 295.152 314.705 303.056C308.667 309.789 314.268 329.216 314.68 335.553C314.68 335.553 308.375 314.937 302.278 319.021C296.181 323.101 294.646 359.225 309.678 387.074H309.674Z" fill="#FAB317"/>
<path d="M341.547 298.726C341.547 298.726 316.307 350.336 309.674 387.074" stroke="white" stroke-width="2" stroke-linecap="round" stroke-linejoin="round"/>
<path d="M319.204 312.541C319.204 312.541 324.097 330.484 323.337 341.004" stroke="white" stroke-width="2" stroke-linecap="round" stroke-linejoin="round"/>
<path d="M344.593 326.236C344.593 326.236 330.363 337.059 322.031 344.792" stroke="white" stroke-width="2" stroke-linecap="round" stroke-linejoin="round"/>
<path d="M305.591 332.044C305.591 332.044 314.575 353.827 314.254 368.014C314.254 368.014 328.698 352.742 341.741 350.336" stroke="white" stroke-width="2" stroke-linecap="round" stroke-linejoin="round"/>
</svg>
