<svg width="80" height="68" viewBox="0 0 80 68" fill="none" xmlns="http://www.w3.org/2000/svg">
<path d="M0.457218 55.5256C0.577207 56.0868 0.719699 56.6398 0.884683 57.1769C1.98708 60.792 4.01189 63.6777 6.76413 64.8721C17.1881 69.393 26.9897 67.8299 46.9378 67.333C66.8785 66.836 81.6896 61.1928 79.8447 43.6382C79.6947 42.2515 79.4473 40.9609 79.1098 39.7505C78.6673 38.1634 78.0674 36.7285 77.355 35.43C76.5225 33.899 75.5326 32.5523 74.4527 31.382C68.8583 25.306 60.4291 23.3181 52.8773 26.0836C45.423 28.817 32.2467 30.1396 18.5305 30.4281C3.79441 30.7488 -1.71758 45.4658 0.457218 55.5096V55.5256Z" fill="#FBB416"/>
<path d="M0.457214 55.5257C0.577203 56.0868 0.719695 56.6398 0.884679 57.1769C4.41685 60.4714 11.0762 62.5555 20.7278 63.3731C23.7575 63.6377 27.0947 63.7579 30.6794 63.7579C38.9811 63.7579 48.6552 63.0685 59.2217 61.7139C68.1608 60.5676 74.2053 57.201 77.1975 51.7101C79.4248 47.6221 79.5372 43.1573 79.1098 39.7586C78.6673 38.1714 78.0674 36.7366 77.3549 35.438C78.1274 37.979 79.8297 45.1933 76.5075 51.2933C73.6503 56.5437 67.8008 59.766 59.1242 60.8802C27.7771 64.9042 6.44165 62.9483 0.457214 55.5257Z" fill="#F8A81B"/>
<path d="M60.0541 33.8108C66.181 34.3398 70.7105 40.3116 69.7056 46.7964C69.6831 46.9247 69.6681 47.0449 69.6382 47.1732C68.3183 54.2351 59.4316 54.0267 34.759 54.2752C15.4333 54.4676 5.49672 47.077 10.6412 37.947C14.7284 30.6846 47.0053 32.6886 60.0541 33.8108Z" fill="#F8A81B"/>
<path d="M13.446 39.1574C22.4377 51.125 59.1092 51.7983 63.9238 42.8366C66.271 38.476 65.6186 32.881 64.3437 28.2959C64.2087 27.815 64.0663 27.342 63.9238 26.8851C62.6039 22.757 60.9465 19.743 60.9465 19.743C60.9465 19.743 61.0965 24.0075 47.5678 22.4764C46.023 22.3001 44.2606 22.2279 42.3783 22.252C42.0258 22.252 41.6734 22.26 41.3134 22.276C26.7273 22.741 5.68428 28.8249 13.4535 39.1653L13.446 39.1574Z" fill="#28100C"/>
<path d="M42.9107 32.0233C45.0255 34.5483 48.7077 35.5022 53.5447 34.7727C53.6572 34.7567 53.7622 34.7407 53.8672 34.7246C59.9641 33.7226 62.9338 30.6205 64.3362 28.2959C64.2012 27.815 64.0587 27.3421 63.9162 26.8852C62.8813 29.0254 60.1516 32.6726 53.3947 33.6825C48.9176 34.3559 45.5505 33.5222 43.6756 31.2858C41.9883 29.2658 41.5383 26.1477 42.3633 22.244C42.0108 22.244 41.6583 22.252 41.2983 22.268C40.4659 26.4202 41.0209 29.7788 42.9032 32.0233H42.9107Z" fill="#FBAB47"/>
<path d="M18.5305 30.4441C18.5305 30.4441 9.92135 29.7628 8.90145 25.1217C7.88155 20.4805 27.6347 24.5525 29.8095 14.9817C31.9918 5.41878 23.2551 -2.21229 20.4204 0.58523C17.0607 3.90378 24.4175 5.31457 24.8149 10.2363C25.1449 14.3243 22.7751 18.0918 15.4183 18.6529C8.06153 19.214 4.77685 20.4324 4.80684 24.0876C4.84434 28.0635 10.7988 32.1675 14.4209 32.424C18.0431 32.6806 18.5305 30.4441 18.5305 30.4441Z" fill="#28100C"/>
<path d="M56.3044 16.2161C56.3044 16.2161 58.8617 12.6651 63.0163 10.3004C63.6238 9.95575 64.3437 10.4768 64.2687 11.2062L63.4813 19.3503C63.4813 19.3503 57.5118 19.8953 56.2969 16.2241L56.3044 16.2161Z" fill="#28100C"/>
<path d="M62.0264 18.3643C62.3639 16.5207 62.4464 14.5809 62.8438 12.4006C62.8438 12.4006 58.3518 15.2622 58.0893 16.8333C58.0893 16.8333 60.5641 18.8373 62.0264 18.3643Z" fill="#5A4C54"/>
<path d="M48.5127 16.5447C48.5127 16.5447 45.003 14.2842 40.406 13.667C39.6561 13.5628 39.1011 14.4125 39.4386 15.1419L42.5808 21.8432C42.5808 21.8432 48.6327 20.4404 48.5052 16.5447H48.5127Z" fill="#28100C"/>
<path d="M43.9156 20.7691C42.9707 19.1819 42.2357 17.4024 41.1259 15.5347C41.1259 15.5347 46.2779 16.4565 47.0653 17.8192C47.0653 17.8192 45.4379 20.6488 43.9156 20.7771V20.7691Z" fill="#5A4C54"/>
<path d="M59.6417 16.3604C59.6417 16.3604 64.9587 17.2261 64.5612 23.8872C64.1638 30.5483 58.0968 31.2537 58.0968 31.2537C58.0968 31.2537 57.0169 33.394 53.2673 34.2597C50.8675 34.8128 47.2979 34.6364 46.3904 32.7527C46.3904 32.7527 41.1859 30.7167 41.2459 25.7549C41.3134 20.2561 47.5078 13.5067 59.6417 16.3604Z" fill="#28100C"/>
<path d="M65.0411 32.1035C65.0411 32.1035 62.8738 41.5541 61.0515 43.51C59.2367 45.4578 57.2643 46.5319 54.7296 46.8606C50.6425 47.3896 51.3924 50.3074 52.6148 51.3094C54.0247 52.4717 56.5294 51.8063 60.2941 51.8063C63.5413 51.8063 66.601 51.117 67.7034 48.8325C68.7983 46.548 68.7308 39.7987 67.5609 35.9992C66.8409 33.6585 65.8285 32.4321 65.0486 32.1115L65.0411 32.1035Z" fill="#28100C"/>
<path d="M37.5713 32.7287C37.5713 32.7287 39.7385 42.1793 41.5609 44.1352C43.3757 46.083 45.363 47.0529 47.8828 47.4858C50.965 48.0068 50.68 51.117 49.9976 51.9346C48.8052 53.3534 46.0829 52.4316 42.3183 52.4316C39.0711 52.4316 35.2315 51.0448 34.1291 48.7603C33.0342 46.4758 33.8816 40.4239 35.0515 36.6244C35.7714 34.2837 36.7838 33.0573 37.5638 32.7367L37.5713 32.7287Z" fill="#28100C"/>
<path d="M19.4154 30.845C19.4154 30.845 13.6935 29.3781 11.8487 33.9872C8.94644 41.2335 11.2637 45.3776 18.9955 46.5319C26.7273 47.6862 35.5089 49.2493 28.8721 43.3657C22.2277 37.4901 19.4154 30.845 19.4154 30.845Z" fill="#28100C"/>
<path d="M50.2076 27.1176C50.2076 27.1176 52.5174 26.8531 53.1323 27.1577C54.1672 27.6627 52.5024 29.7227 51.445 29.8991C50.3876 30.0754 49.3602 28.7528 49.3752 27.8871C49.3902 27.0294 50.2076 27.1176 50.2076 27.1176Z" fill="#5A4C54"/>
<path d="M49.0227 25.2179C49.1352 25.1457 49.2551 25.298 49.1726 25.4022C48.7152 25.9874 47.8678 26.7569 46.7204 26.5004C45.7755 26.284 45.4155 25.5786 45.288 24.9613C45.258 24.8251 45.438 24.7449 45.498 24.8732C45.7455 25.3301 46.2179 25.795 47.1403 25.8591C47.8378 25.9072 48.5502 25.5385 49.0227 25.2259V25.2179Z" fill="#5A4C54"/>
<path d="M57.9693 24.7128C58.0668 24.6166 58.2093 24.7449 58.1493 24.8651C57.7968 25.5305 57.0994 26.4523 55.9295 26.4282C54.9621 26.4042 54.4896 25.7789 54.2572 25.1938C54.2047 25.0655 54.3621 24.9533 54.4521 25.0655C54.7671 25.4663 55.3146 25.8351 56.237 25.7148C56.9269 25.6266 57.5719 25.1217 57.9768 24.7209L57.9693 24.7128Z" fill="#5A4C54"/>
</svg>
