<svg width="994" height="656" viewBox="0 0 994 656" fill="none" xmlns="http://www.w3.org/2000/svg">
<g clip-path="url(#clip0_6_1676)">
<path d="M130.843 69.7259C183.109 28.3157 254.47 20.7376 315.42 43.7598C396.401 74.3507 456.004 151.822 534.655 189.025C589.893 215.149 653.323 219.83 711.245 202.045C739.431 193.39 766.845 179.525 796.09 178.596C822 177.769 847.595 187.391 869.614 202.389C934.427 246.52 966.959 340.643 945.116 420.844C933.424 463.787 908.312 501.073 879.068 532.352C818.638 596.97 738.483 638.965 654.706 649.905C607.947 656.006 560.51 652.7 513.917 645.196C412.384 628.852 312.355 591.834 228.754 526.538C128.679 448.361 29.486 312.011 66.9585 169.885C77.4527 130.1 100.206 93.9925 130.843 69.7166V69.7259Z" fill="#7775B7"/>
<path d="M915.417 184.53C912.12 176.116 909.39 165.436 914.934 158.592C917.014 156.029 919.986 154.496 923.023 153.679C937.677 149.723 952.044 160.988 962.26 173.172C971.76 184.502 979.868 197.235 986.285 210.924C989.563 217.907 992.442 225.29 993.129 233.11C993.817 240.929 992.052 249.306 987.093 254.962C953.66 293.029 924.555 207.85 915.426 184.54L915.417 184.53Z" fill="#7775B7"/>
<path d="M621.71 406.867C639.838 389.129 664.318 447.145 672.788 469.294L689.746 449.828C677.877 435.675 635.055 380.938 670.188 367.073C694.371 357.526 693.823 423.909 692.978 446.114L715.879 419.832C709.963 406.18 681.666 336.269 720.773 333.232C746.972 331.198 726.197 395.909 719.065 416.164L743.433 388.201C752.479 366.349 778.584 308.882 796.238 327.14C821.09 352.827 767.245 383 747.278 392.928L724.024 419.609C744.511 407.425 799.442 377.289 802.665 402.391C807.596 440.848 735.159 428.125 719.399 424.921L694.584 453.395C711.83 448.946 784.5 431.747 779.829 458.809C773.096 497.804 705.032 462.152 692.82 455.41L675.147 475.692C675.249 475.98 675.351 476.25 675.425 476.473C694.891 479.407 765.23 491.722 750.733 514.372C729.995 546.756 683.236 491.703 672.686 478.525L633.532 523.455L629.01 519.508L668.73 473.928C648.967 463.406 596.181 431.821 621.692 406.867H621.71Z" fill="#F7B21A"/>
<path d="M715.443 618.246C695.494 618.246 676.057 612.767 668.86 596.338C653.026 560.194 695.476 528.386 723.058 515.292C733.487 510.342 744.418 506.153 754.977 502.104C764.617 498.408 774.591 494.591 784.101 490.208C809.379 478.581 832.114 462.607 851.663 442.743C852.879 441.498 854.699 441.155 856.306 441.842C857.922 442.548 858.916 444.126 858.841 445.882C857.69 473.64 855.749 500.6 844.762 525.229C836.432 543.895 822.66 561.661 801.439 581.145C790.508 591.184 775.687 603.601 758.069 610.575C747.492 614.763 731.305 618.237 715.443 618.237V618.246ZM785.726 493.728C776.095 498.157 766.065 502.002 756.37 505.717C745.876 509.738 735.019 513.899 724.72 518.793C698.401 531.293 657.771 561.364 672.407 594.787C684.517 622.444 736.858 614.819 756.639 606.99C773.671 600.248 788.122 588.119 798.811 578.303C819.632 559.191 833.107 541.834 841.215 523.659C851.923 499.662 853.836 473.101 854.969 445.733C854.969 445.668 854.978 445.501 854.764 445.408C854.569 445.315 854.467 445.426 854.421 445.473C834.538 465.672 811.423 481.915 785.716 493.737L785.726 493.728Z" fill="#F7B21A"/>
<path d="M370.212 510.11C352.084 492.372 327.604 550.387 319.134 572.536L302.176 553.071C314.045 538.917 356.867 484.181 321.735 470.315C297.552 460.768 298.1 527.151 298.945 549.356L276.043 523.074C281.959 509.422 310.256 439.511 271.149 436.474C244.951 434.44 265.726 499.151 272.858 519.406L248.489 491.443C239.444 469.591 213.338 412.124 195.684 430.382C170.832 456.069 224.678 486.242 244.644 496.17L267.899 522.851C247.412 510.667 192.48 480.531 189.257 505.633C184.326 544.09 256.764 531.367 272.524 528.163L297.338 556.637C280.092 552.188 207.422 534.989 212.094 562.051C218.827 601.047 286.89 565.394 299.103 558.652L316.775 578.935C316.673 579.223 316.571 579.492 316.497 579.715C297.032 582.649 226.693 594.964 241.19 617.614C261.927 649.998 308.687 594.936 319.236 581.767L358.39 626.697L362.913 622.75L323.193 577.17C342.955 566.648 395.742 535.063 370.231 510.11H370.212Z" fill="#5C4FA1"/>
<path d="M304.898 481.487C300.04 454.008 290.131 427.429 275.848 403.459C274.789 401.685 276.498 399.549 278.476 400.153C304.173 408.028 330.121 416.776 351.025 433.53C369.348 448.222 382.666 468.244 393.643 489.001C401.75 504.324 408.827 520.529 410.926 537.738C413.851 561.773 406.422 613.5 376.165 618.283C338.256 624.273 319.134 575.591 313.692 546.876C309.597 525.247 308.724 503.163 304.898 481.487Z" fill="#443D98"/>
<path d="M780.98 153.345L780.952 151.32C785.531 151.246 790.016 149.983 793.935 147.661L794.966 149.407C790.74 151.905 785.911 153.271 780.98 153.345ZM766.883 149.853C762.583 147.485 758.942 144.021 756.37 139.823L758.097 138.765C760.493 142.656 763.864 145.878 767.867 148.079L766.892 149.853H766.883ZM805.163 139.052L803.408 138.049C805.664 134.103 806.863 129.589 806.863 125.011C806.863 124.453 806.844 123.896 806.807 123.339L808.831 123.218C808.868 123.813 808.887 124.407 808.887 125.011C808.887 129.942 807.605 134.799 805.172 139.062L805.163 139.052ZM752.2 125.911C752.191 125.605 752.191 125.308 752.191 125.001C752.191 120.395 753.324 115.807 755.478 111.758L757.261 112.706C755.265 116.467 754.215 120.72 754.215 125.011C754.215 125.299 754.215 125.568 754.225 125.846L752.2 125.911ZM802.526 110.542C800.009 106.725 796.536 103.614 792.468 101.543L793.387 99.7411C797.761 101.97 801.504 105.322 804.216 109.427L802.526 110.542ZM766.418 102.787L765.332 101.078C769.474 98.4409 774.266 96.9271 779.188 96.695L779.28 98.7195C774.711 98.9331 770.272 100.335 766.418 102.787Z" fill="#69649B"/>
<path d="M82.9968 517.075C78.2234 516.805 73.4499 516.155 68.8158 515.124L69.2522 513.146C73.7842 514.149 78.4463 514.79 83.1083 515.05L82.9968 517.075ZM97.3079 516.722L97.0943 514.707C101.728 514.214 106.353 513.341 110.839 512.106L111.378 514.057C106.79 515.32 102.053 516.211 97.3079 516.713V516.722ZM55.1362 510.89C50.7156 509.107 46.4065 506.952 42.3296 504.482L43.379 502.754C47.3631 505.178 51.57 507.286 55.8884 509.023L55.1362 510.899V510.89ZM124.825 509.153L123.98 507.314C128.205 505.364 132.301 503.052 136.155 500.442L137.288 502.123C133.341 504.797 129.153 507.166 124.825 509.153ZM30.7303 496.077C27.1084 492.975 23.7187 489.558 20.6447 485.917L22.1956 484.608C25.1953 488.165 28.5107 491.508 32.049 494.535L30.7303 496.077ZM148.451 493.161L147.058 491.694C150.438 488.499 153.586 484.998 156.419 481.292L158.026 482.518C155.137 486.307 151.915 489.892 148.451 493.161ZM12.3144 474.262C9.87195 470.176 7.74526 465.848 5.99932 461.418L7.88456 460.676C9.59334 465.003 11.6643 469.219 14.0603 473.222L12.3237 474.262H12.3144ZM165.752 470.455L163.969 469.498C166.161 465.384 168.027 461.066 169.513 456.645L171.436 457.295C169.913 461.818 168 466.238 165.761 470.445L165.752 470.455ZM1.85738 447.72C0.86368 443.077 0.232172 438.303 0 433.521L2.02454 433.419C2.25671 438.081 2.86036 442.752 3.83548 447.284L1.85738 447.711V447.72ZM174.881 443.411L172.885 443.086C173.627 438.508 174.008 433.818 174.008 429.147C174.008 426.296 173.869 423.417 173.59 420.593L175.606 420.398C175.893 423.287 176.033 426.24 176.033 429.147C176.033 433.929 175.643 438.731 174.881 443.411ZM2.46102 419.442L0.44577 419.219C0.975122 414.473 1.90381 409.746 3.19469 405.168L5.14493 405.716C3.88191 410.183 2.98109 414.808 2.46102 419.442ZM171.083 406.821C169.876 402.326 168.297 397.896 166.374 393.652L168.223 392.816C170.191 397.163 171.817 401.695 173.042 406.292L171.083 406.812V406.821ZM10.0391 392.603L8.2096 391.739C10.2341 387.43 12.6302 383.251 15.3326 379.313L17.0043 380.456C14.3668 384.3 12.0172 388.377 10.0391 392.593V392.603ZM159.586 381.431C157.004 377.558 154.079 373.871 150.902 370.463L152.379 369.079C155.63 372.562 158.62 376.341 161.267 380.307L159.586 381.431ZM25.8361 369.618L24.3781 368.215C27.6842 364.77 31.2782 361.575 35.0858 358.715L36.3024 360.331C32.5877 363.126 29.0679 366.247 25.8361 369.618ZM140.566 361.037C136.879 358.186 132.932 355.613 128.846 353.403L129.812 351.62C134 353.886 138.04 356.514 141.811 359.43L140.575 361.027L140.566 361.037ZM48.1153 352.855L47.1773 351.063C51.4029 348.852 55.842 346.976 60.3647 345.481L60.9962 347.403C56.5757 348.862 52.248 350.691 48.1153 352.855ZM116.03 347.775C111.638 346.261 107.078 345.091 102.481 344.311L102.824 342.314C107.523 343.113 112.195 344.311 116.699 345.862L116.04 347.775H116.03ZM74.5922 344.125L74.2765 342.129C78.7713 341.432 83.359 341.07 87.9282 341.07H88.5597L88.5411 343.094H87.9653C83.5448 343.057 78.9942 343.438 74.5922 344.125Z" fill="#69649B"/>
<path d="M932.551 465.57C927.648 465.198 922.967 463.852 918.639 461.549L919.587 459.765C923.663 461.929 928.075 463.211 932.7 463.554L932.551 465.579V465.57ZM946.909 463.694L946.24 461.781C950.595 460.258 954.533 457.889 957.932 454.732L959.306 456.218C955.694 459.561 951.524 462.078 946.909 463.694ZM907.495 452.289C904.43 448.445 902.239 444.089 900.985 439.353L902.944 438.833C904.133 443.3 906.195 447.395 909.083 451.026L907.495 452.289ZM967.702 444.414L965.844 443.606C967.693 439.381 968.631 434.886 968.631 430.233H970.655C970.655 435.164 969.661 439.929 967.702 444.414ZM968.436 426.593C967.943 421.996 966.522 417.631 964.21 413.61L965.965 412.597C968.417 416.86 969.921 421.494 970.441 426.37L968.426 426.583L968.436 426.593ZM902.201 425.2L900.205 424.893C900.938 420.045 902.638 415.476 905.266 411.325L906.975 412.412C904.495 416.331 902.898 420.631 902.201 425.2ZM955.137 403.413C951.422 400.645 947.252 398.714 942.748 397.683L943.203 395.714C947.977 396.81 952.406 398.853 956.353 401.797L955.146 403.422L955.137 403.413ZM916.466 402.586L915.324 400.915C919.391 398.147 923.896 396.29 928.716 395.398L929.087 397.385C924.546 398.231 920.302 399.977 916.466 402.586Z" fill="#69649B"/>
<path d="M779.132 12.1472C779.132 18.8524 773.69 24.2945 766.985 24.2945C760.28 24.2945 754.837 18.8524 754.837 12.1472C754.837 5.44211 760.28 0 766.985 0C773.69 0 779.132 5.44211 779.132 12.1472Z" fill="#69649B"/>
<path d="M100.112 310.702C100.112 316.85 95.1254 321.837 88.9775 321.837C82.8296 321.837 77.8425 316.85 77.8425 310.702C77.8425 304.554 82.8296 299.567 88.9775 299.567C95.1254 299.567 100.112 304.554 100.112 310.702Z" fill="#69649B"/>
<path d="M906.446 398.101C910.918 398.101 914.544 394.475 914.544 390.002C914.544 385.53 910.918 381.904 906.446 381.904C901.973 381.904 898.347 385.53 898.347 390.002C898.347 394.475 901.973 398.101 906.446 398.101Z" fill="#69649B"/>
<path d="M319.561 21.2577C319.561 25.1674 316.385 28.3436 312.476 28.3436C308.566 28.3436 305.39 25.1674 305.39 21.2577C305.39 17.3479 308.566 14.1718 312.476 14.1718C316.385 14.1718 319.561 17.3479 319.561 21.2577Z" fill="#69649B"/>
<path d="M348.62 38.4662H703.509C713.957 38.4662 722.445 46.9545 722.445 57.4022V637.024C722.445 647.472 713.957 655.96 703.509 655.96H348.62C338.172 655.96 329.684 647.472 329.684 637.024V57.4022C329.684 46.9545 338.172 38.4662 348.62 38.4662Z" fill="#14202E"/>
<path d="M571.617 53.316H480.512V60.0675H571.617V53.316Z" fill="#2E3D4C"/>
<path d="M569.248 621.543H482.871V639.086H569.248V621.543Z" fill="#2E3D4C"/>
<path d="M713 78.2791H339.129V610.269H713V78.2791Z" fill="white"/>
<path d="M713 78.2791H339.129V98.5245H713V78.2791Z" fill="#5C4FA1"/>
<path d="M372.367 538.611C380.66 538.611 387.384 531.888 387.384 523.594C387.384 515.301 380.66 508.577 372.367 508.577C364.073 508.577 357.35 515.301 357.35 523.594C357.35 531.888 364.073 538.611 372.367 538.611Z" fill="#FCB32B"/>
<path d="M413.87 538.611C422.163 538.611 428.887 531.888 428.887 523.594C428.887 515.301 422.163 508.577 413.87 508.577C405.576 508.577 398.853 515.301 398.853 523.594C398.853 531.888 405.576 538.611 413.87 538.611Z" fill="#FCB32B"/>
<path d="M517.288 511.948H437.319V519.712H517.288V511.948Z" fill="#FCB32B"/>
<path d="M692.077 548.39H360.052V556.154H692.077V548.39Z" fill="#FCB32B"/>
<path d="M692.077 564.252H360.052V572.016H692.077V564.252Z" fill="#FCB32B"/>
<path d="M440.022 580.114H360.052V587.878H440.022V580.114Z" fill="#FCB32B"/>
<path d="M386.962 173.507C388.874 165.437 383.882 157.345 375.812 155.433C367.742 153.521 359.649 158.513 357.737 166.583C355.825 174.653 360.817 182.745 368.887 184.657C376.957 186.57 385.05 181.578 386.962 173.507Z" fill="#5C4FA1"/>
<path d="M473.427 157.747H393.457V165.511H473.427V157.747Z" fill="#D6D6D6"/>
<path d="M566.212 526.464H437.319V534.228H566.212V526.464Z" fill="#FCB32B"/>
<path d="M713 190.307H339.129V433.251H713V190.307Z" fill="#5C4FA1"/>
<path d="M609.321 454.973C597.304 454.973 585.157 449.401 575.619 445.027C563.128 439.297 555.095 423.742 557.714 410.359C559.525 401.082 566.388 393.234 574.783 390.829C575.684 390.569 576.604 390.365 577.523 390.17C578.944 389.863 580.281 389.566 581.554 389.064C586.206 387.226 589.847 382.48 591.295 376.351C592.549 371.076 592.187 365.448 591.843 359.997L591.788 359.086C591.203 349.725 590.924 339.816 594.342 330.724C597.49 322.338 605.291 313.525 615.608 312.745C616.844 312.652 618.088 312.68 619.295 312.698C621.004 312.736 622.62 312.763 624.208 312.485C631.628 311.175 636.355 303.43 640.154 297.208C643.961 290.967 650.081 282.711 658.811 282.841C664.216 282.943 669.491 286.658 671.952 292.1C674.06 296.762 674.218 302.511 672.407 308.287C671.906 309.894 671.255 311.528 670.633 313.107C668.664 318.113 666.798 322.849 668.674 327.251C669.51 329.22 671.023 330.817 672.621 332.498C673.206 333.111 673.791 333.733 674.339 334.365C682.186 343.429 683.273 357.907 676.874 368.039C672.639 374.744 665.804 379.406 659.192 383.92C650.852 389.612 642.977 394.989 640.321 403.988C638.946 408.66 639.29 413.517 639.643 418.652C639.949 423.054 640.274 427.605 639.401 432.026C637.646 440.96 630.95 448.835 621.914 452.568C617.809 454.268 613.575 454.964 609.321 454.964V454.973ZM617.633 314.704C617.002 314.704 616.379 314.723 615.757 314.769C606.331 315.475 599.161 323.657 596.236 331.439C592.967 340.15 593.246 349.809 593.812 358.956L593.868 359.867C594.221 365.457 594.583 371.243 593.264 376.806C591.667 383.576 587.562 388.86 582.296 390.931C580.876 391.488 579.39 391.823 577.95 392.129C577.077 392.324 576.195 392.51 575.341 392.761C567.651 394.962 561.364 402.187 559.692 410.731C557.287 423.045 564.958 437.904 576.455 443.179C589.029 448.946 606.266 456.849 621.125 450.701C629.539 447.228 635.77 439.919 637.396 431.635C638.213 427.475 637.897 423.064 637.6 418.792C637.238 413.703 636.866 408.437 638.352 403.413C641.212 393.717 649.756 387.885 658.022 382.239C664.457 377.846 671.125 373.295 675.128 366.952C681.072 357.545 680.059 344.097 672.779 335.683C672.249 335.071 671.683 334.476 671.125 333.882C669.472 332.145 667.773 330.344 666.788 328.031C664.587 322.858 666.696 317.518 668.729 312.346C669.342 310.795 669.974 309.197 670.457 307.656C672.119 302.362 671.989 297.124 670.085 292.917C667.94 288.172 663.389 284.931 658.755 284.847C651.047 284.764 645.41 292.425 641.853 298.239C637.841 304.814 632.854 312.986 624.533 314.454C622.75 314.769 620.967 314.732 619.23 314.695C618.682 314.686 618.144 314.677 617.605 314.677L617.633 314.704Z" fill="#F9F9FA"/>
<path d="M677.143 270.787C673.373 270.787 670.308 267.722 670.308 263.952C670.308 260.181 673.373 257.116 677.143 257.116C680.914 257.116 683.979 260.181 683.979 263.952C683.979 267.722 680.914 270.787 677.143 270.787ZM677.143 259.141C674.497 259.141 672.333 261.296 672.333 263.952C672.333 266.608 674.487 268.762 677.143 268.762C679.8 268.762 681.954 266.608 681.954 263.952C681.954 261.296 679.8 259.141 677.143 259.141Z" fill="#F9F9FA"/>
<path d="M647.035 234.847C647.035 236.249 645.902 237.382 644.5 237.382C643.098 237.382 641.974 236.249 641.974 234.847C641.974 233.444 643.107 232.311 644.5 232.311C645.893 232.311 647.035 233.444 647.035 234.847Z" fill="#F9F9FA"/>
<path d="M374.976 384.161C376.792 384.161 378.264 382.689 378.264 380.873C378.264 379.058 376.792 377.586 374.976 377.586C373.161 377.586 371.689 379.058 371.689 380.873C371.689 382.689 373.161 384.161 374.976 384.161Z" fill="#F9F9FA"/>
<path d="M676.642 398.834C673.15 398.834 670.317 395.992 670.317 392.51C670.317 389.027 673.159 386.186 676.642 386.186C680.124 386.186 682.966 389.027 682.966 392.51C682.966 395.992 680.124 398.834 676.642 398.834ZM676.642 388.201C674.274 388.201 672.342 390.132 672.342 392.501C672.342 394.869 674.274 396.8 676.642 396.8C679.01 396.8 680.942 394.869 680.942 392.501C680.942 390.132 679.01 388.201 676.642 388.201Z" fill="#F9F9FA"/>
<path d="M470.055 379.945C470.055 379.945 450.488 412.337 444.749 440.347H576.678C576.678 440.347 566.555 391.758 555.086 380.288L470.055 379.954V379.945Z" fill="#483F99"/>
<path d="M466.842 389.473C497.433 388.749 528.368 388.739 558.959 389.473C528.368 390.207 497.433 390.197 466.842 389.473Z" fill="white"/>
<path d="M480.262 390.235C477.893 398.24 472.433 408.4 463.35 409.746C462.05 409.858 460.75 409.783 459.505 409.468C470.232 410.127 476.166 398.491 480.262 390.235Z" fill="white"/>
<path d="M519.74 389.222C520.046 401.797 520.195 415.578 520.232 428.199V428.404L520.084 428.552L509.487 439.214L508.568 440.133V438.833C508.624 422.386 508.689 405.929 509.107 389.482C509.32 397.711 509.422 405.929 509.506 414.158C509.608 422.386 509.589 430.605 509.636 438.833L508.726 438.452L519.387 427.856L519.238 428.199C519.276 415.569 519.424 401.815 519.731 389.222H519.74Z" fill="white"/>
<path d="M549.597 389.473C549.969 399.521 553.377 408.372 565.032 407.443C553.312 410.369 548.037 399.614 549.597 389.473Z" fill="white"/>
<path d="M621.84 246.845L605.56 247.337C605.56 247.337 600.294 271.288 593.087 303.235C590.701 299.446 588.472 295.871 586.42 292.527C579.157 306.764 570.26 320.007 560.676 332.786C566.109 342.008 572.359 352.084 579.445 362.56C579.547 362.708 579.64 362.848 579.742 362.996C592.317 381.561 621.338 374.735 624.301 352.511C624.338 352.261 624.366 352.01 624.403 351.75C628.796 318.456 629.548 281.95 621.858 246.854L621.84 246.845Z" fill="#F6BA8A"/>
<path d="M612.218 222.755C611.847 218.511 611.299 214.09 610.612 214.23C609.469 214.471 608.792 217.434 608.29 221.176C609.618 221.594 610.946 222.114 612.218 222.755Z" fill="#F18665"/>
<path d="M619.1 227.965C619.035 223.405 618.71 214.499 617.196 213.682C616.017 213.041 614.707 218.734 613.816 223.628C615.878 224.845 617.716 226.321 619.1 227.965Z" fill="#F18665"/>
<path d="M630.448 221.938C629.371 222.718 627.542 224.919 625.211 231.095C625.211 231.095 626.799 217.174 625.211 215.196C623.957 213.626 620.864 224.222 619.629 228.689C620.409 229.757 621.022 230.881 621.347 232.042C621.84 233.825 621.96 235.441 621.784 236.899C623.706 242.127 620.493 248.257 614.921 250.179C612.757 250.922 610.519 251.034 608.309 250.736C606.581 251.321 604.752 251.498 603.089 251.229C604.343 253.43 605.848 255.677 607.677 257.897L619.007 255.733C619.007 255.733 631.414 232.311 631.563 222.514C631.572 221.891 630.941 221.566 630.43 221.938H630.448Z" fill="#F6BA8A"/>
<path d="M590.682 328.486C590.97 320.063 591.76 311.668 592.744 303.3L593.617 303.588C592.122 305.956 590.626 308.324 589.057 310.646C588.537 311.426 588.017 312.197 587.478 312.958C589.466 309.012 591.657 305.12 593.849 301.285C593.134 310.386 592.187 319.478 590.682 328.486Z" fill="#151C45"/>
<path d="M596.44 216.068L615.98 252.649C616.825 254.228 618.645 254.99 620.363 254.516C623.966 253.513 629.678 251.229 631.09 246.632C633.188 239.778 615.553 205.611 615.553 205.611L596.44 216.068Z" fill="#E0DFDF"/>
<path d="M575.452 168.594L568.849 170.572C566.861 171.166 565.617 173.135 565.923 175.188C566.824 181.178 569.471 194.226 576.975 211.592C577.811 213.533 579.974 214.545 581.999 213.933L587.85 212.187L575.452 168.594Z" fill="#E59A24"/>
<path d="M607.965 150.93L576.873 160.236C572.304 161.601 572.48 175.689 577.272 191.709C582.064 207.72 589.651 219.597 594.221 218.223L625.313 208.918L607.965 150.93Z" fill="#FCB32B"/>
<path d="M624.914 177.444C629.706 193.455 629.882 207.543 625.313 208.918C620.744 210.283 613.147 198.414 608.365 182.404C603.573 166.393 603.396 152.305 607.965 150.93C612.534 149.565 620.131 161.434 624.914 177.444Z" fill="#E59A24"/>
<path d="M666.621 113.504L609.015 157.942L609.21 161.898C609.953 176.943 614.782 191.932 622.936 204.488L694.733 204.915L666.621 113.504Z" fill="#E0DFDF"/>
<path d="M704.641 152.035C712.275 177.565 709.034 201.089 697.388 204.571C688.371 207.274 676.957 197.16 668.72 180.593C666.324 175.773 664.197 170.405 662.47 164.647C660.919 159.446 659.814 154.329 659.136 149.454C656.498 130.36 660.455 114.879 669.723 112.102C681.369 108.619 696.998 126.497 704.632 152.026L704.641 152.035Z" fill="#C4C4C4"/>
<path d="M680.858 159.159C685.603 175.011 686.142 190.093 683.087 200.086C675.044 193.418 667.215 180.518 662.479 164.656C657.733 148.794 657.186 133.712 660.25 123.729C668.293 130.397 676.121 143.297 680.858 159.159Z" fill="#919191"/>
<path d="M681.118 147.717L687.349 168.566L668.711 180.602C666.315 175.782 664.188 170.414 662.46 164.656C660.91 159.456 659.804 154.339 659.126 149.463L681.108 147.726L681.118 147.717Z" fill="#EBEBEB"/>
<path d="M688.993 156.716C690.711 162.474 689.987 167.777 687.359 168.557C684.73 169.346 681.211 165.316 679.483 159.558C677.756 153.8 678.49 148.497 681.118 147.717C683.746 146.928 687.266 150.958 688.993 156.716Z" fill="#E59A24"/>
<path d="M614.81 154.543C617.187 170.386 620.679 186.694 629.52 200.29C630.411 201.702 631.554 202.955 632.529 204.311C620.605 192.266 615.683 171.074 614.81 154.543Z" fill="#151C45"/>
<path d="M589.67 212.242C598.112 208.945 606.776 206.354 615.655 204.478C607.213 207.785 598.539 210.366 589.67 212.242Z" fill="#151C45"/>
<path d="M686.337 156.902C686.634 158.434 687.591 162.205 685.826 163.031C685.139 163.198 684.6 162.725 684.173 162.297C682.074 159.799 680.867 155.332 682.288 152.286C684.322 149.816 686.012 155.472 686.337 156.902ZM686.337 156.902C685.947 155.416 685.38 153.902 684.322 152.769C683.997 152.416 683.514 152.1 683.207 152.212C681.517 153.252 683.709 162.353 685.706 162.511C686.031 162.474 686.318 161.972 686.448 161.508C686.866 160.013 686.681 158.406 686.346 156.911L686.337 156.902Z" fill="#151C45"/>
<path d="M671.497 114.052C681.062 116.374 688.148 122.596 692.773 131.149C701.818 146.9 711.04 169.718 706.61 187.985C705.124 194.439 701.521 202.807 693.822 202.937C692.652 202.937 691.473 202.733 690.395 202.296C694.974 203.94 699.766 201.432 702.19 197.448C713.445 177.621 702.041 149.927 692.058 131.567C687.739 123.098 680.737 116.727 671.497 114.061V114.052Z" fill="#151C45"/>
<path d="M604.687 254.841C604.687 254.841 597.935 239.991 598.613 236.62C599.291 233.249 606.962 224.975 610.593 226.33C614.224 227.677 608.652 238.143 608.652 238.143C608.652 238.143 617.679 249.111 616.667 254.674C615.655 260.237 604.687 254.841 604.687 254.841Z" fill="#F6BA8A"/>
<path d="M538.815 242.88C538.815 242.88 568.245 258.463 573.307 264.537C578.368 270.61 591.862 299.288 591.862 299.288L562.506 338.767C562.506 338.767 531.153 292.026 538.815 242.87V242.88Z" fill="#FCB32B"/>
<path d="M544.657 253.114C543.412 251.024 543.004 248.972 543.208 247.087C541.545 245.889 540.06 244.551 538.732 242.935C538.211 241.059 537.004 236.481 536.103 231.308C535.305 226.683 534.738 221.613 535.138 217.629V217.61C535.323 215.641 535.741 213.942 536.493 212.688L491.768 187.539C491.805 187.688 491.814 187.827 491.851 187.976C492.557 192.127 497.953 224.705 492.418 241.988C489.056 243.53 484.923 244.635 479.788 244.811C474.262 245.006 468.848 246.975 464.817 250.764C460.471 254.85 456.608 261.732 456.543 273.192C460.638 273.703 464.724 274.511 468.811 275.244C481.014 277.436 493.189 279.776 505.42 281.801C521.189 284.411 537.366 284.986 553.312 286.751C552.615 274.873 550.284 262.549 544.657 253.114Z" fill="#F6BA8A"/>
<path d="M536.103 231.318C511.79 234.391 499.476 205.351 499.021 204.265C503.507 211.388 510.017 214.991 516.378 216.709C524.207 218.845 531.794 218.13 534.989 217.657C535.035 217.638 535.091 217.638 535.138 217.619C534.738 221.603 535.305 226.683 536.103 231.299V231.318Z" fill="#EBA771"/>
<path d="M491.313 241.598C491.313 241.598 519.991 273.313 528.432 268.251C536.865 263.19 538.992 243.846 538.992 243.846C538.992 243.846 567.911 268.929 571.96 277.028C576.009 285.126 575.675 300.988 565.552 325.951C555.429 350.923 559.228 384.662 559.228 384.662H466.684C466.684 384.662 474.448 368.466 472.08 349.567C469.721 330.669 447.451 270.276 447.451 270.276C447.451 270.276 443.067 242.61 491.313 241.598Z" fill="#F7B21A"/>
<path d="M490.468 244.969C498.083 253.495 517.901 275.922 530.308 270.731C539.298 266.598 540.542 253.235 540.747 244.468C541.109 251.173 540.533 258.11 537.738 264.314C526.12 287.197 499.271 256.466 490.477 244.979L490.468 244.969Z" fill="#E59A24"/>
<path d="M557.231 282.312C558.643 286.834 560.667 291.069 562.812 295.276C569.322 307.145 568.422 317.37 563.899 329.749C563.072 331.969 562.218 334.17 561.289 336.343C561.986 334.086 562.738 331.848 563.388 329.582C567.242 317.128 568.134 307.572 562.051 295.638C560.082 291.357 558.197 286.955 557.222 282.321L557.231 282.312Z" fill="#E59A24"/>
<path d="M513.917 335.377C520.483 333.891 527.615 334.495 533.828 337.076C527.169 335.943 520.669 335.386 513.917 335.377Z" fill="#E59A24"/>
<path d="M437.857 327.13C435.972 325.366 434.059 323.629 432.183 321.846C423.481 313.599 414.501 305.733 405.883 297.514C403.477 300.124 401.044 302.808 398.583 305.585C393.03 311.863 387.355 318.568 381.7 325.663C374.484 334.718 374.205 347.45 380.994 356.839C385.489 363.052 390.225 369.209 395.221 375.264C409.755 392.891 426.425 409.505 445.38 423.287L457.193 412.105C457.193 412.105 440.625 382.517 420.751 346.289C426.592 339.705 432.341 333.269 437.857 327.13Z" fill="#F6BA8A"/>
<path d="M444.581 419.943C444.581 419.943 450.859 445.696 457.258 453.116C457.667 453.59 458.344 453.413 458.484 452.791C458.781 451.491 458.679 448.63 456.32 442.464C456.32 442.464 464.381 453.924 466.87 454.36C469.359 454.797 461.186 438.768 461.186 438.768C461.186 438.768 471.625 450.683 473.872 450.154C476.12 449.624 466.173 434.784 466.173 434.784C466.173 434.784 477.633 446.448 478.432 445.371C480.419 442.696 464.771 425.887 466.712 424.429C468.43 423.138 473.594 425.478 476.017 427.131C476.528 427.475 477.178 427.326 477.457 426.76C477.995 425.655 478.33 423.76 475.897 421.856C472.135 418.922 463.935 412.727 451.621 410.786L444.581 419.934V419.943Z" fill="#F6BA8A"/>
<path d="M413.024 338.442C416.126 340.503 418.736 343.094 420.788 346.206C417.677 344.153 415.086 341.553 413.024 338.442Z" fill="#151C45"/>
<path d="M397.84 304.359L431.58 335.405L474.095 291.543C474.095 291.543 476.853 246.019 467.733 245.192C454.193 243.966 410.666 285.804 397.84 304.359Z" fill="#FCB32B"/>
<path d="M459.756 306.216L476.964 290.02L464.483 321.233L459.756 306.216Z" fill="#E59A24"/>
<path d="M558.986 176.85C558.485 163.663 556.887 150.104 552.346 138.439C546.505 123.423 518.969 117.581 499.782 134.27C490.867 142.024 488.982 156.075 489.511 168.9C489.047 168.678 488.629 168.501 488.36 168.427C484.45 167.452 480.531 170.396 479.361 174.073C478.432 176.999 479.063 180.305 480.726 182.877C482.119 185.022 484.366 187.019 486.781 187.929C487.384 188.161 490.078 188.607 491.991 188.44C493.83 196.882 498.12 204.673 504.77 210.199C513.165 217.174 523.891 219.96 534.59 217.74C542.901 216.022 555.179 210.701 558.234 202.073C559.033 199.816 559.098 197.402 559.135 195.015C559.153 194.467 559.154 193.91 559.154 193.362C559.2 188.041 559.2 182.469 558.986 176.841V176.85Z" fill="#F6BA8A"/>
<path d="M559.154 193.371C558.457 193.557 557.714 193.659 556.971 193.659C552.263 193.659 548.446 189.842 548.446 185.134C548.446 180.425 552.263 176.609 556.971 176.609C557.668 176.609 558.336 176.692 558.986 176.859C559.2 182.487 559.2 188.059 559.154 193.381V193.371Z" fill="#EBA771"/>
<path d="M505.968 185.134C505.968 189.842 509.784 193.669 514.502 193.669C519.22 193.669 523.037 189.852 523.037 185.134C523.037 180.416 519.22 176.599 514.502 176.599C509.784 176.599 505.968 180.416 505.968 185.134Z" fill="#EBA771"/>
<path d="M543.941 168.575C543.941 171.361 545.047 173.618 546.402 173.618C547.758 173.618 548.863 171.361 548.863 168.575C548.863 165.789 547.758 163.533 546.402 163.533C545.047 163.533 543.941 165.789 543.941 168.575Z" fill="#151515"/>
<path d="M551.436 161.935C551.018 162.753 550.47 163.468 549.764 164.09C549.068 164.712 548.185 165.195 547.183 165.427H547.145C546.653 165.548 546.161 165.241 546.049 164.749C545.938 164.257 546.244 163.765 546.737 163.653C546.82 163.635 546.904 163.626 546.978 163.635C548.353 163.691 549.885 162.855 550.934 161.638L550.953 161.62C551.055 161.499 551.241 161.48 551.371 161.592C551.473 161.685 551.501 161.833 551.445 161.945L551.436 161.935Z" fill="#151515"/>
<path d="M516.174 167.888C517.214 169.105 518.746 169.941 520.13 169.885C520.631 169.866 521.059 170.256 521.077 170.758C521.096 171.259 520.706 171.687 520.204 171.705C520.121 171.705 520.046 171.705 519.972 171.687H519.926C518.932 171.445 518.04 170.962 517.344 170.34C516.638 169.718 516.09 169.003 515.672 168.185C515.598 168.037 515.654 167.86 515.802 167.786C515.923 167.721 516.071 167.758 516.155 167.86L516.174 167.879V167.888Z" fill="#151515"/>
<path d="M519.452 170.024C520.316 169.105 521.207 168.501 522.275 168.037C523.325 167.591 524.486 167.359 525.628 167.452C526.761 167.554 527.847 167.879 528.804 168.39C529.296 168.631 529.723 168.956 530.178 169.235L531.404 170.238C531.636 170.433 531.674 170.776 531.479 171.009C531.293 171.231 530.977 171.269 530.745 171.111L530.689 171.074L529.5 170.238C529.073 170.024 528.674 169.755 528.237 169.588C527.374 169.207 526.464 169.021 525.581 169.012C524.69 169.012 523.826 169.263 523.046 169.662C522.275 170.052 521.523 170.693 521.04 171.296L520.994 171.361C520.641 171.798 520.009 171.872 519.573 171.519C519.136 171.166 519.062 170.535 519.415 170.098C519.433 170.08 519.452 170.061 519.471 170.033L519.452 170.024Z" fill="#151515"/>
<path d="M544.982 183.834C544.127 185.496 542.827 186.936 541.267 188.059C539.707 189.183 537.756 189.907 535.751 189.889C533.754 189.842 531.794 189.164 530.262 187.994C529.454 187.465 528.832 186.731 528.135 186.1C527.559 185.357 526.993 184.605 526.482 183.834C527.244 184.391 527.94 184.985 528.637 185.561C529.417 186.035 530.104 186.611 530.893 187.01C532.426 187.883 534.097 188.366 535.769 188.394C537.45 188.431 539.122 187.901 540.663 187.075C542.205 186.22 543.654 185.125 544.991 183.843L544.982 183.834Z" fill="#151515"/>
<path d="M538.332 192.777C537.626 193.399 536.67 193.622 535.741 193.659C534.812 193.631 533.856 193.381 533.141 192.777C534.051 192.926 534.878 193.102 535.741 193.065C536.596 193.102 537.431 192.953 538.332 192.777Z" fill="#151515"/>
<path d="M529.575 151.079C528.423 150.057 527.123 149.723 525.758 149.667C524.402 149.639 523.009 149.797 521.69 150.243C520.362 150.652 519.136 151.395 518.105 152.296C517.037 153.159 516.285 154.301 515.663 155.425C515.347 155.992 515.551 156.716 516.118 157.032C516.573 157.283 517.121 157.208 517.492 156.874L517.595 156.781C518.393 156.047 519.164 155.351 520.028 154.849C520.854 154.292 521.783 153.986 522.712 153.744C523.65 153.531 524.625 153.41 525.618 153.466C526.603 153.503 527.652 153.549 528.73 153.289L529.045 153.215C529.705 153.057 530.113 152.388 529.955 151.72C529.89 151.469 529.76 151.246 529.575 151.088V151.079Z" fill="#151515"/>
<path d="M541.889 151.079C543.041 150.057 544.341 149.723 545.706 149.667C547.062 149.639 548.455 149.797 549.774 150.243C551.102 150.652 552.327 151.395 553.358 152.296C554.426 153.159 555.179 154.301 555.801 155.425C556.116 155.992 555.912 156.716 555.346 157.032C554.891 157.283 554.343 157.208 553.971 156.874L553.869 156.781C553.07 156.047 552.3 155.351 551.436 154.849C550.609 154.292 549.681 153.986 548.752 153.744C547.814 153.531 546.839 153.41 545.845 153.466C544.861 153.503 543.811 153.549 542.734 153.289L542.418 153.215C541.759 153.057 541.35 152.388 541.508 151.72C541.573 151.469 541.703 151.246 541.889 151.088V151.079Z" fill="#151515"/>
<path d="M536.308 160.867C536.744 162.771 537.06 164.656 537.413 166.523C537.775 168.39 538.119 170.247 538.648 172.012C538.769 172.457 538.908 172.894 539.066 173.312C539.196 173.655 539.502 174.324 539.493 174.937C539.558 176.2 538.75 177.435 537.729 177.927C536.679 178.512 535.472 178.42 534.515 178.094C533.549 177.742 532.704 177.221 531.971 176.571C533.735 177.24 535.806 177.751 537.051 176.813C537.673 176.339 538.016 175.708 537.924 175.011C537.896 174.658 537.784 174.435 537.552 173.888C537.357 173.414 537.199 172.94 537.051 172.467C536.512 170.544 536.233 168.603 536.122 166.662C536.01 164.721 536.048 162.78 536.298 160.849L536.308 160.867Z" fill="#151515"/>
<path d="M482.444 176.804C482.416 175.643 482.732 174.361 483.753 173.47C484.84 172.578 486.381 172.662 487.561 173.107C488.805 173.535 489.827 174.389 490.635 175.346C491.461 176.311 492.056 177.361 492.548 178.568C492.724 178.995 492.511 179.488 492.084 179.664C491.759 179.794 491.396 179.71 491.173 179.478L491.118 179.423C490.301 178.587 489.27 177.704 488.295 177.426C487.802 177.296 487.449 177.314 487.106 177.556C486.753 177.807 486.484 178.327 486.261 178.865C485.834 179.97 485.573 181.261 486.511 181.781C487.496 182.348 488.954 182.209 490.245 182.032C489.028 182.571 487.672 183.017 486.14 182.58C485.36 182.329 484.747 181.447 484.691 180.648C484.617 179.85 484.728 179.125 484.933 178.42C485.146 177.714 485.434 176.971 486.131 176.358C486.827 175.726 487.932 175.587 488.712 175.828C490.31 176.311 491.387 177.231 492.39 178.299L490.96 179.144C490.189 177.212 488.917 175.206 487.087 174.296C486.168 173.86 485.091 173.637 484.218 174.12C483.308 174.593 482.76 175.708 482.453 176.813L482.444 176.804Z" fill="#151C45"/>
<path d="M554.854 142.814C553.758 138.068 551.789 133.675 548.436 130.026C541.286 122.215 529.872 120.089 519.303 119.838C512.18 119.652 504.844 120.181 498.427 123.302C488.304 128.177 482.212 138.523 474.782 146.946C463.684 159.539 448.584 168.529 432.23 172.29C418.847 175.364 404.936 174.983 391.228 176.219C377.539 177.435 363.386 180.593 352.883 189.462C344.701 196.343 339.092 206.41 329.563 211.249C324.279 213.96 318.243 214.768 312.336 215.558L302.659 216.811C288.422 218.697 280.371 234.605 287.856 246.873C287.893 246.957 287.958 247.031 287.995 247.133C292.917 255.027 300.83 261.166 303.829 269.988C306.56 278.068 304.684 286.918 305.325 295.416C306.374 308.779 313.971 321.168 324.474 329.489C334.978 337.81 348.184 342.286 361.501 343.745C366.376 344.292 371.299 344.432 376.221 344.19C375.57 337.708 377.419 331.031 381.691 325.663C387.356 318.577 393.03 311.872 398.574 305.575C398.658 305.473 398.76 305.371 398.862 305.269L397.85 304.34C410.666 285.794 454.193 243.948 467.733 245.183C470.993 244.431 474.049 244.458 476.825 245.081C477.8 244.923 478.785 244.839 479.779 244.793C484.905 244.607 489.047 243.539 492.409 241.997C497.776 225.235 492.873 194.114 491.898 188.431C489.994 188.589 487.366 188.143 486.753 187.92C484.366 187.01 482.1 185.004 480.717 182.859C479.036 180.286 478.404 176.989 479.342 174.055C480.429 170.674 483.865 167.935 487.459 168.297C489.149 171.176 491.183 173.85 493.56 176.191C494.294 176.915 495.185 177.658 496.216 177.602C497.563 177.528 498.417 176.191 499.049 175.002C499.857 173.479 501.268 171.9 502.076 170.377C511.679 170.925 521.439 166.653 527.56 159.233C529.435 156.958 530.968 154.432 532.5 151.905C534.543 148.534 536.586 145.163 538.639 141.792C543.18 146.853 550.34 156.001 557.092 156.809C557.092 156.809 557.305 150.169 554.835 142.795L554.854 142.814Z" fill="#151515"/>
<path d="M231.754 600.694C228.253 601.957 225.383 602.997 223.368 603.721C218.687 601.242 214.36 600.907 212.233 600.787C210.701 600.703 210.218 601.52 210.069 602.105C209.995 602.403 210.19 602.672 210.487 602.709C211.927 602.886 214.629 603.703 214.861 604.752C215.121 605.932 203.838 607.083 203.726 608.727C203.68 609.386 211.741 608.792 211.741 608.792C211.741 608.792 203.225 611.077 203.903 612.005C204.581 612.943 212.335 611.903 212.335 611.903C212.335 611.903 204.107 615.209 205.184 615.859C206.262 616.509 212.976 614.875 212.976 614.875C210.106 616.407 209.15 617.438 208.843 618.023C208.695 618.302 208.899 618.59 209.206 618.543C212.187 618.125 217.424 615.042 220.963 612.767L220.981 612.897C225.718 613.333 230.472 613.454 235.19 613.333C233.89 609.173 232.766 604.947 231.754 600.675V600.694Z" fill="#F18665"/>
<path d="M283.371 546.198L262.614 588.964L224.148 601.873L225.662 614.782C225.662 614.782 271.214 611.996 278.551 604.659C285.887 597.323 299.808 561.893 300.319 558.346C300.83 554.807 283.361 546.198 283.361 546.198H283.371Z" fill="#FCB32B"/>
<path d="M296.149 540.041C296.149 540.041 286.528 549.867 286.909 557.584C287.29 565.302 287.921 607.696 287.921 607.696L284.002 609.591L275.904 606.684C275.904 606.684 279.823 561.893 279.953 557.083C280.083 552.272 281.476 544.935 286.026 542.911C290.586 540.886 296.149 540.041 296.149 540.041Z" fill="#FCB32B"/>
<path d="M171.501 625.806C154.413 627.969 142.73 629.557 142.73 629.557L138.941 645.847L173.172 646.237C172.299 639.457 171.77 632.65 171.491 625.806H171.501Z" fill="#F18D6E"/>
<path d="M145.107 628.805C145.107 628.805 141.458 624.998 139.972 621.682C138.477 618.367 139.312 603.452 131.855 604.446V638.909L134.92 641.974H131.521V648.846C131.521 648.846 139.145 651.502 143.779 649.013C143.779 649.013 139.303 644.045 141.291 638.575C143.278 633.105 145.098 628.796 145.098 628.796L145.107 628.805Z" fill="#FCB32B"/>
<path d="M162.65 624.654V647.769H326.638C326.638 647.769 320.899 614.698 307.572 610.482C294.245 606.266 162.65 624.654 162.65 624.654Z" fill="#5C4FA1"/>
<path d="M175.661 620.781L151.757 634.089L149.825 645.494L155.304 651.902L160.561 650.165C160.561 650.165 160.644 650.128 160.821 650.063C162.53 649.357 172.429 645.28 186.341 639.485C182.589 633.365 178.977 627.152 175.652 620.791L175.661 620.781Z" fill="#F79678"/>
<path d="M152.472 631.907C152.472 631.907 147.485 630.189 144.634 627.932C141.792 625.676 135.681 612.042 129.515 616.342L145.33 646.97L149.463 648.289L146.445 649.849L149.602 655.96C149.602 655.96 157.589 654.818 160.57 650.481C160.57 650.481 154.311 648.113 153.568 642.345C152.825 636.578 152.472 631.907 152.472 631.907Z" fill="#FCB32B"/>
<path d="M162.4 626.177L172.021 645.921L232.506 621.877C232.506 621.877 302.102 660.594 320.824 653.258C339.556 645.921 340.568 609.981 332.972 605.681C325.375 601.381 283.965 607.111 283.965 607.111L281.857 608.968C281.857 608.968 240.604 591.509 230.732 592.011C220.861 592.521 162.4 626.177 162.4 626.177Z" fill="#5C4FA1"/>
<path d="M172.773 645.15L232.757 621.617L229.47 617.568" stroke="#3C3393" stroke-miterlimit="10"/>
<path d="M288.432 647.685L232.757 621.617" stroke="#3C3393" stroke-miterlimit="10"/>
<path d="M282.108 609.219L298.555 618.079" stroke="#3C3393" stroke-miterlimit="10"/>
<path d="M302.854 614.782L287.921 612.256" stroke="#3C3393" stroke-miterlimit="10"/>
<path d="M332.554 543.821C330.576 541.954 327.91 540.988 325.189 540.896C322.673 540.803 320.648 540.273 318.995 539.512C316.255 531.014 318.902 514.967 319.255 512.924C319.274 512.849 319.283 512.784 319.292 512.71L297.282 525.089C297.654 525.702 297.858 526.547 297.951 527.513C298.146 529.482 297.867 531.98 297.477 534.256C297.032 536.809 296.437 539.066 296.177 539.976C294.385 542.149 292.017 543.264 288.831 544.991C288.868 545.808 288.822 546.663 288.655 547.554C287.707 552.681 289.379 559.859 289.147 565.181C288.868 571.394 288.664 577.542 288.72 583.755C288.785 591.491 289.11 598.864 289.667 606.331H331.384C330.186 595.215 333.018 578.675 336.139 560.435C337.699 551.315 335.321 546.431 332.554 543.83V543.821Z" fill="#F79678"/>
<path d="M297.468 534.246C309.43 535.76 315.494 521.467 315.717 520.938C313.506 524.449 310.302 526.222 307.173 527.067C303.319 528.117 299.585 527.764 298.016 527.532C297.988 527.532 297.97 527.532 297.942 527.513C298.137 529.473 297.858 531.971 297.468 534.246Z" fill="#F47B56"/>
<path d="M296.056 540.413C296.056 540.413 291.385 550.08 294.765 552.272C298.137 554.464 319.227 539.447 319.227 539.447C319.227 539.447 330.696 540.793 333.91 548.892C337.114 556.99 332.563 607.102 332.563 607.102C332.563 607.102 293.762 609.461 283.974 607.102C283.974 607.102 284.141 582.296 282.962 574.542C281.782 566.778 282.497 553.665 284.903 548.353C286.156 545.585 296.066 540.413 296.066 540.413H296.056Z" fill="white"/>
<path d="M319.561 538.862C319.561 538.862 301.591 547.211 303.365 556.321C305.139 565.432 312.986 655.774 312.986 655.774C312.986 655.774 336.519 656.536 345.379 651.976C354.239 647.425 334.244 585.668 335.256 579.854C336.269 574.031 341.581 547.963 333.993 543.162C326.397 538.351 319.571 538.862 319.571 538.862H319.561Z" fill="#FCB32B"/>
<path d="M314.156 647.091C322.97 650.899 333.278 651.957 342.361 648.531C343.698 648.122 344.905 647.435 346.215 646.924C345.017 647.639 343.847 648.447 342.565 649.023C333.612 653.304 322.524 652.255 314.156 647.1V647.091Z" fill="#E69B24"/>
<path d="M255.402 563.924L257.946 561.398L243.287 546.637L240.744 549.163L255.402 563.924Z" fill="#151C45"/>
<path d="M247.31 565.227C247.31 565.227 248.118 566.75 248.731 567.029C249.334 567.307 252.492 568.078 252.603 568.05C252.742 568.162 255.631 570.614 259.931 574.152C261.268 572.36 262.642 570.576 264.045 568.784C264.992 567.568 265.911 566.332 266.821 565.088C264.927 564.224 263.33 563.5 262.113 562.943L259.373 560.807C258.138 559.274 254.581 553.507 252.91 553.628C250.894 553.777 251.015 554.557 251.015 554.557C251.015 554.557 254.136 558.541 253.43 560.119C252.761 561.615 245.944 554.185 245.944 554.185L244.134 552.746C244.134 552.746 243.818 556.906 245.313 558.318C245.313 558.318 244.431 560.593 246.075 562.32C246.075 562.32 246.149 564.549 247.3 565.227H247.31Z" fill="#F79678"/>
<path d="M317.788 545.446L304.117 579.613L260.339 560.881C260.339 560.881 252.742 570.502 253.504 570.753C254.265 571.004 292.982 608.718 309.179 605.932C325.375 603.146 336.259 555.569 336.259 555.569L317.788 545.446Z" fill="#FCB32B"/>
<path d="M308.594 606.099C308.594 606.099 313.488 605.588 316.692 601.205C319.896 596.821 331.374 573.539 331.374 573.539C331.374 573.539 325.133 613.863 308.594 606.099Z" fill="#E59A24"/>
<path d="M310.952 582.817C307.99 582.027 305.241 580.671 302.548 579.26C304.693 578.749 306.866 578.229 309.104 578.099C307.507 578.888 305.854 579.455 304.173 579.956L304.266 578.981C306.606 580.068 308.881 581.256 310.952 582.826V582.817Z" fill="#E69B24"/>
<path d="M265.735 581.637C272.143 585.658 278.114 590.274 283.621 595.475C277.204 591.453 271.242 586.838 265.735 581.637Z" fill="#E69B24"/>
<path d="M273.499 566.277C276.73 566.955 279.665 568.301 282.275 570.326C279.043 569.657 276.108 568.292 273.499 566.277Z" fill="#E69B24"/>
<path d="M311.463 553.795C312.596 548.223 317.24 541.676 323.61 542.66C317.537 543.329 314.11 548.873 311.463 553.795Z" fill="#E69B24"/>
<path d="M325.394 506.079C324.818 504.268 322.886 502.819 320.964 503.302C320.834 503.34 320.62 503.423 320.397 503.535C320.657 497.219 319.738 490.301 315.345 486.484C305.9 478.274 292.351 481.144 289.481 488.536C286.194 496.987 286.026 507.444 286.138 516.388C286.157 517.558 286.184 518.756 286.574 519.861C288.079 524.105 294.125 526.724 298.22 527.578C303.477 528.674 308.761 527.29 312.893 523.864C316.162 521.142 318.28 517.307 319.19 513.156C320.128 513.239 321.456 513.016 321.753 512.905C322.942 512.45 324.047 511.475 324.734 510.416C325.561 509.153 325.867 507.519 325.412 506.079H325.394Z" fill="#F79678"/>
<path d="M293.01 503.367C293.01 504.742 292.472 505.847 291.794 505.847C291.116 505.847 290.577 504.733 290.577 503.367C290.577 502.002 291.116 500.888 291.794 500.888C292.472 500.888 293.01 502.002 293.01 503.367Z" fill="#151C45"/>
<path d="M302.297 505.847C302.969 505.847 303.514 504.737 303.514 503.367C303.514 501.998 302.969 500.888 302.297 500.888C301.625 500.888 301.081 501.998 301.081 503.367C301.081 504.737 301.625 505.847 302.297 505.847Z" fill="#151C45"/>
<path d="M292.5 510.88C292.917 511.698 293.558 512.403 294.329 512.961C295.091 513.518 296.056 513.871 297.041 513.862C298.025 513.834 298.991 513.499 299.743 512.933C300.143 512.673 300.449 512.311 300.793 512.004C301.081 511.633 301.359 511.27 301.61 510.89C301.238 511.168 300.895 511.456 300.551 511.735C300.17 511.967 299.827 512.255 299.446 512.45C298.694 512.877 297.867 513.119 297.05 513.128C296.224 513.146 295.406 512.886 294.645 512.478C293.893 512.06 293.177 511.521 292.509 510.89L292.5 510.88Z" fill="#151C45"/>
<path d="M295.769 515.282C296.112 515.589 296.586 515.7 297.041 515.719C297.496 515.7 297.97 515.58 298.322 515.282C297.877 515.357 297.468 515.44 297.041 515.422C296.623 515.44 296.205 515.366 295.769 515.282Z" fill="#151C45"/>
<path d="M300.078 494.758C300.644 494.257 301.285 494.09 301.954 494.062C302.622 494.043 303.31 494.127 303.95 494.35C304.6 494.554 305.204 494.916 305.715 495.362C306.244 495.789 306.606 496.346 306.922 496.904C307.08 497.182 306.978 497.535 306.699 497.693C306.476 497.814 306.207 497.777 306.021 497.609L305.975 497.563C305.576 497.201 305.204 496.857 304.777 496.616C304.368 496.337 303.913 496.189 303.458 496.077C302.994 495.966 302.52 495.91 302.028 495.938C301.545 495.956 301.025 495.975 300.496 495.845L300.338 495.808C300.013 495.724 299.808 495.399 299.892 495.074C299.92 494.953 299.985 494.842 300.078 494.768V494.758Z" fill="#151C45"/>
<path d="M294.023 494.758C293.456 494.257 292.815 494.09 292.147 494.062C291.478 494.043 290.791 494.127 290.15 494.35C289.5 494.554 288.896 494.916 288.385 495.362C287.856 495.789 287.494 496.346 287.178 496.904C287.02 497.182 287.122 497.535 287.401 497.693C287.624 497.814 287.893 497.777 288.079 497.609L288.125 497.563C288.525 497.201 288.896 496.857 289.323 496.616C289.732 496.337 290.187 496.189 290.642 496.077C291.107 495.966 291.58 495.91 292.072 495.938C292.555 495.956 293.075 495.975 293.605 495.845L293.763 495.808C294.088 495.724 294.292 495.399 294.208 495.074C294.18 494.953 294.115 494.842 294.023 494.768V494.758Z" fill="#151C45"/>
<path d="M294.598 499.346C294.385 500.284 294.227 501.213 294.051 502.132C293.874 503.052 293.698 503.962 293.438 504.835C293.382 505.058 293.308 505.271 293.233 505.475C293.168 505.643 293.02 505.968 293.02 506.274C292.992 506.896 293.382 507.5 293.893 507.751C294.413 508.039 295.007 507.992 295.471 507.834C295.945 507.658 296.363 507.407 296.725 507.082C295.852 507.407 294.84 507.667 294.227 507.203C293.921 506.971 293.753 506.655 293.8 506.321C293.818 506.144 293.874 506.033 293.986 505.773C294.078 505.54 294.162 505.308 294.227 505.067C294.496 504.12 294.626 503.163 294.682 502.207C294.738 501.25 294.719 500.293 294.589 499.346H294.598Z" fill="#151C45"/>
<path d="M323.982 507.194C323.991 506.627 323.843 505.996 323.332 505.55C322.793 505.113 322.041 505.15 321.456 505.373C320.843 505.587 320.342 506.005 319.942 506.478C319.534 506.952 319.246 507.472 319.004 508.067C318.921 508.28 319.023 508.522 319.236 508.605C319.394 508.67 319.571 508.624 319.682 508.512L319.71 508.484C320.109 508.076 320.62 507.639 321.103 507.5C321.345 507.435 321.521 507.444 321.688 507.565C321.865 507.686 321.995 507.946 322.106 508.206C322.32 508.754 322.45 509.385 321.985 509.636C321.502 509.915 320.787 509.85 320.147 509.766C320.75 510.026 321.41 510.249 322.162 510.035C322.543 509.915 322.849 509.478 322.877 509.079C322.914 508.689 322.858 508.327 322.756 507.983C322.654 507.639 322.505 507.268 322.171 506.971C321.827 506.664 321.289 506.59 320.899 506.711C320.109 506.943 319.58 507.398 319.088 507.927L319.794 508.345C320.174 507.398 320.797 506.404 321.697 505.958C322.152 505.745 322.682 505.633 323.109 505.875C323.555 506.107 323.824 506.655 323.973 507.203L323.982 507.194Z" fill="#151C45"/>
<path d="M326.359 497.024C325.635 494.712 324.521 492.065 322.125 491.657C323.035 489.651 323.016 487.245 322.06 485.239C321.233 483.521 319.747 482.138 318.15 481.088C315.921 479.612 313.376 478.618 310.72 478.237C306.671 477.652 302.539 478.441 298.536 479.231C296.446 479.639 293.837 479.983 291.757 480.382C289.667 478.739 286.37 479.612 284.689 481.655C282.99 483.698 282.581 486.53 282.646 489.186C282.785 494.433 284.466 499.467 286.37 504.37C286.509 502.336 286.742 500.321 287.03 498.315C287.754 496.133 289.035 494.127 290.642 492.474C295.703 497.591 303.811 499.43 310.581 496.997C310.785 498.687 311.213 500.21 311.89 501.77C312.698 503.618 314.036 505.485 316.014 505.856C316.878 506.014 317.946 505.745 318.243 504.918C318.512 504.166 320.407 503.442 320.397 503.516C320.62 503.414 320.824 503.33 320.964 503.293C322.886 502.81 324.808 504.268 325.375 506.07C325.839 507.509 325.533 509.144 324.706 510.407C324.019 511.456 322.923 512.45 321.735 512.896C321.428 513.016 320.119 513.239 319.162 513.156C318.698 515.338 317.89 517.446 316.729 519.331C318.373 519.517 320.054 519.415 321.502 518.644C323.564 517.548 324.762 515.347 325.774 513.239C326.684 511.354 327.539 509.45 327.864 507.407C328.412 503.925 327.4 500.405 326.35 497.024H326.359Z" fill="#171717"/>
<path d="M267.629 240.233C263.71 235.59 257.924 232.469 251.823 232.441C244.607 232.404 236.982 236.007 230.5 232.841C221.817 228.596 221.111 214.945 212.289 210.998C206.141 208.249 199.176 211.583 192.563 212.837C181.326 214.973 169.077 210.431 161.945 201.479C159.186 198.024 157.152 193.984 154.032 190.855C148.191 185.022 138.959 183.221 131.028 185.515C123.097 187.809 116.522 193.799 112.548 201.042C109.474 206.642 107.217 213.598 101.301 215.994C94.5218 218.743 86.4515 213.858 79.6535 216.551C74.7686 218.492 72.0475 223.972 71.7968 229.219C71.6203 232.952 72.4561 236.62 73.5706 240.214H267.62L267.629 240.233Z" fill="#FDFEFE"/>
<path d="M936.359 317.295C935.058 314.026 931.854 311.389 928.66 310.367C923.979 308.872 918.843 309.225 914.479 306.764C909.594 304.015 905.665 297.821 900.242 298.424C895.896 298.907 892.757 303.755 888.466 304.73C879.597 306.736 873.7 291.905 864.664 291.896C859.277 291.896 854.783 297.31 849.396 297.505C842.412 297.756 837.806 289.695 833.543 283.361C827.228 273.972 816.27 266.143 806.909 271.195C800.687 274.557 797.501 282.358 794.111 289.221C790.722 296.084 785.586 303.207 778.704 303.217C771.47 303.226 764.189 295.258 757.893 299.335C754.93 301.248 753.5 305.399 753.518 309.299C753.528 312.039 754.141 314.695 754.912 317.305H936.349L936.359 317.295Z" fill="#FDFEFE"/>
<path d="M287.726 138.068H201.572C200.007 138.068 198.739 139.336 198.739 140.901V192.136C198.739 193.701 200.007 194.969 201.572 194.969H287.726C289.29 194.969 290.559 193.701 290.559 192.136V140.901C290.559 139.336 289.29 138.068 287.726 138.068Z" fill="url(#paint0_linear_6_1676)"/>
<path d="M203.206 154.887C203.123 154.887 203.058 154.822 203.058 154.738V143.101C203.058 143.018 203.123 142.953 203.206 142.953H212.01C212.094 142.953 212.159 143.018 212.159 143.101C212.159 143.185 212.094 143.25 212.01 143.25H203.355V154.738C203.355 154.822 203.29 154.887 203.206 154.887Z" fill="#F8B218" stroke="#F8B218" stroke-width="3" stroke-miterlimit="10"/>
<path d="M286.092 154.887C286.008 154.887 285.943 154.822 285.943 154.738V143.25H277.288C277.204 143.25 277.139 143.185 277.139 143.101C277.139 143.018 277.204 142.953 277.288 142.953H286.092C286.175 142.953 286.24 143.018 286.24 143.101V154.738C286.24 154.822 286.175 154.887 286.092 154.887Z" fill="#F8B218" stroke="#F8B218" stroke-width="3" stroke-miterlimit="10"/>
<path d="M212.01 190.084H203.206C203.123 190.084 203.058 190.019 203.058 189.935V178.745C203.058 178.661 203.123 178.596 203.206 178.596C203.29 178.596 203.355 178.661 203.355 178.745V189.787H212.01C212.094 189.787 212.159 189.852 212.159 189.935C212.159 190.019 212.094 190.084 212.01 190.084Z" fill="#F8B218" stroke="#F8B218" stroke-width="3" stroke-miterlimit="10"/>
<path d="M286.092 190.084H277.288C277.204 190.084 277.139 190.019 277.139 189.935C277.139 189.852 277.204 189.787 277.288 189.787H285.943V178.745C285.943 178.661 286.008 178.596 286.092 178.596C286.175 178.596 286.24 178.661 286.24 178.745V189.935C286.24 190.019 286.175 190.084 286.092 190.084Z" fill="#F8B218" stroke="#F8B218" stroke-width="3" stroke-miterlimit="10"/>
<path d="M244.654 184.177C254.404 184.177 262.308 176.273 262.308 166.523C262.308 156.773 254.404 148.869 244.654 148.869C234.903 148.869 226.999 156.773 226.999 166.523C226.999 176.273 234.903 184.177 244.654 184.177Z" fill="#F8B218"/>
<path d="M237.781 173.869V159.177L251.517 165.186L237.781 173.869Z" fill="white"/>
<path d="M339.129 431.561V457.258C339.129 460.778 342.314 463.638 346.252 463.638H705.886C709.815 463.638 713.009 460.778 713.009 457.258V431.561H339.129Z" fill="#423C98"/>
<path d="M700.212 443.996H520.502C519.74 443.996 519.118 442.873 519.118 441.498C519.118 440.124 519.74 439 520.502 439H700.212C700.974 439 701.596 440.124 701.596 441.498C701.596 442.873 700.974 443.996 700.212 443.996Z" fill="#5C4FA1"/>
<path d="M521.616 443.996H348.713C347.329 443.996 346.215 442.873 346.215 441.498C346.215 440.124 347.339 439 348.713 439H521.616C523 439 524.114 440.124 524.114 441.498C524.114 442.873 522.991 443.996 521.616 443.996Z" fill="#F7B21A"/>
<path d="M526.064 441.498C526.064 444.442 523.678 446.829 520.734 446.829C517.79 446.829 515.403 444.442 515.403 441.498C515.403 438.554 517.79 436.167 520.734 436.167C523.678 436.167 526.064 438.554 526.064 441.498Z" fill="#FFFEFE"/>
<path d="M370.351 450.776H372.794V459.115H370.351V450.776ZM365.652 459.115H368.095V450.776H365.652V459.115ZM388.832 450.776V454.147L383.687 450.776V459.115L388.832 455.744V459.115H391.275V450.776H388.832ZM347.171 450.776V459.115H349.614V455.744L354.759 459.115V450.776L349.614 454.147V450.776H347.171Z" fill="#FFFEFE"/>
<path d="M715.284 163.913C715.229 164.09 723.633 167.182 734.053 170.832C744.482 174.482 752.98 177.296 753.045 177.119C753.101 176.943 744.705 173.85 734.276 170.201C723.847 166.551 715.349 163.737 715.294 163.913H715.284Z" stroke="#E59A24" stroke-width="3" stroke-miterlimit="10"/>
<path d="M711.895 144.188C711.923 144.374 725.333 142.498 741.854 140.009C758.376 137.52 771.739 135.356 771.721 135.171C771.693 134.985 758.283 136.861 741.761 139.35C725.249 141.838 711.876 144.002 711.904 144.188H711.895Z" stroke="#E59A24" stroke-width="3" stroke-miterlimit="10"/>
<path d="M708.904 123.943C709.025 124.082 713.724 119.884 719.399 114.572C725.073 109.26 729.568 104.849 729.447 104.71C729.326 104.57 724.627 108.768 718.953 114.08C713.279 119.392 708.784 123.803 708.904 123.943Z" stroke="#E59A24" stroke-width="3" stroke-miterlimit="10"/>
<path d="M226.591 256.699C212.419 247.96 203.578 265.01 203.522 265.112C203.466 265.01 194.634 247.96 180.453 256.699C164.173 266.738 180.082 298.434 203.513 306.123C226.943 298.434 242.861 266.728 226.572 256.699H226.591Z" fill="#5C4FA1"/>
<path d="M132.487 165.167C138.365 165.891 144.327 165.929 150.215 165.269C151.636 165.111 153.094 164.898 154.301 164.146C155.509 163.393 156.4 162.084 156.094 160.691C157.162 160.682 158.035 159.874 158.796 159.121C159.103 158.815 159.428 158.499 159.614 158.1C159.836 157.645 159.874 157.125 159.846 156.614C159.762 155.017 159.019 153.54 157.626 152.751C158.898 152.37 159.957 151.33 160.338 150.057C160.719 148.785 160.422 147.327 159.576 146.315C159.01 145.637 158.332 145.302 157.515 144.977C158.091 144.457 158.898 144.207 159.354 143.575C159.985 142.702 159.641 141.393 158.843 140.659C158.044 139.935 156.93 139.675 155.862 139.572C153.902 139.396 151.933 139.656 149.974 139.73C148.014 139.805 145.888 139.442 144.142 138.532C143.761 135.941 144.383 133.239 143.687 130.713C142.832 127.611 139.87 125.215 136.666 125.029C136.053 124.992 135.366 125.066 134.966 125.54C134.678 125.893 134.623 126.376 134.623 126.822C134.613 128.911 135.403 130.917 135.876 132.951C136.359 134.985 136.48 137.297 135.291 139.015C134.827 139.684 134.186 140.232 133.805 140.956C133.285 141.95 133.332 143.148 133.053 144.244C132.774 145.34 131.929 146.482 130.806 146.37L132.468 165.167H132.487Z" fill="white"/>
<path d="M131.53 140.919H124.5C123.956 140.919 123.515 141.36 123.515 141.903V166.374C123.515 166.918 123.956 167.359 124.5 167.359H131.53C132.074 167.359 132.514 166.918 132.514 166.374V141.903C132.514 141.36 132.074 140.919 131.53 140.919Z" fill="white"/>
<path d="M127.787 145.312C128.392 145.312 128.883 144.821 128.883 144.216C128.883 143.611 128.392 143.12 127.787 143.12C127.182 143.12 126.691 143.611 126.691 144.216C126.691 144.821 127.182 145.312 127.787 145.312Z" fill="white"/>
<path d="M852.071 204.729H784.23C779.745 204.729 776.104 208.37 776.104 212.855V256.587C776.104 261.073 779.745 264.713 784.23 264.713H804.429L810.809 275.755L818.155 288.488L825.501 275.755L831.881 264.713H852.08C856.566 264.713 860.206 261.073 860.206 256.587V212.855C860.206 208.37 856.566 204.729 852.08 204.729H852.071Z" fill="#FCB32B"/>
<path d="M812.732 254.247C818.61 254.971 824.572 255.008 830.46 254.349C831.881 254.191 833.339 253.978 834.547 253.225C835.754 252.473 836.645 251.164 836.339 249.771C837.407 249.761 838.289 248.953 839.041 248.201C839.348 247.895 839.673 247.579 839.859 247.18C840.082 246.724 840.119 246.204 840.091 245.694C840.007 244.096 839.264 242.62 837.871 241.83C839.144 241.449 840.202 240.409 840.583 239.137C840.964 237.865 840.667 236.407 839.822 235.394C839.255 234.717 838.577 234.391 837.76 234.057C838.336 233.537 839.144 233.286 839.599 232.655C840.23 231.782 839.887 230.472 839.088 229.739C838.289 229.014 837.175 228.754 836.107 228.652C834.147 228.476 832.178 228.736 830.219 228.81C828.259 228.884 826.133 228.522 824.387 227.612C824.006 225.021 824.628 222.319 823.932 219.793C823.077 216.691 820.115 214.295 816.911 214.109C816.298 214.072 815.611 214.146 815.211 214.62C814.923 214.973 814.868 215.456 814.868 215.901C814.858 217.991 815.648 219.997 816.121 222.031C816.604 224.064 816.725 226.377 815.536 228.095C815.072 228.764 814.431 229.312 814.05 230.036C813.53 231.03 813.577 232.228 813.298 233.323C813.029 234.419 812.174 235.562 811.051 235.45L812.713 254.247H812.732Z" fill="white"/>
<path d="M811.784 230.008H804.754C804.211 230.008 803.77 230.449 803.77 230.992V255.463C803.77 256.007 804.211 256.448 804.754 256.448H811.784C812.328 256.448 812.769 256.007 812.769 255.463V230.992C812.769 230.449 812.328 230.008 811.784 230.008Z" fill="white"/>
<path d="M809.138 233.296C809.138 233.899 808.645 234.391 808.042 234.391C807.438 234.391 806.946 233.899 806.946 233.296C806.946 232.692 807.438 232.2 808.042 232.2C808.645 232.2 809.138 232.692 809.138 233.296Z" fill="white"/>
<path d="M763.966 559.33C766.167 559.46 774.59 574.839 778.417 585.612C782.252 596.385 771.776 642.02 771.776 642.02L767.569 639.987C769.956 631.08 761.774 559.209 763.966 559.339V559.33Z" fill="#F7996F"/>
<path d="M761.969 643.608H775.463C775.463 643.608 773.234 637.136 767.95 637.572C764.728 637.841 761.969 643.608 761.969 643.608Z" fill="#5C4FA1"/>
<path d="M752.413 631.238L762.963 632.167C762.963 632.167 762.963 587.785 765.443 560.779C765.443 560.779 757.28 594.527 752.404 631.229" fill="#FCB32B"/>
<path d="M779.865 483.837C771.888 484.394 768.879 449.132 769.668 447.618C769.668 447.618 775.25 445.222 775.909 447.107C777.609 451.992 783.432 483.577 779.865 483.837Z" fill="#FCB32B"/>
<path d="M773.643 448.742C772.575 449.076 769.678 447.627 769.678 447.627C768.888 449.141 771.897 484.403 779.875 483.846C780.079 483.828 780.255 483.698 780.395 483.493C774.182 478.887 772.724 454.49 773.643 448.751V448.742Z" fill="#E59A24"/>
<path d="M775.779 398.909C766.817 394.098 766.901 448.352 769.529 449.819C769.529 449.819 774.878 451.286 776.169 449.086C780.079 442.427 779.782 401.054 775.779 398.909Z" fill="#FCB32B"/>
<path d="M773.485 450.794C771.702 449.801 769.195 421.671 770.532 405.103C767.031 418.643 767.588 448.742 769.529 449.828C769.529 449.828 771.684 450.766 773.55 450.831C773.504 450.813 773.476 450.804 773.476 450.804L773.485 450.794Z" fill="#E59A24"/>
<path d="M779.995 486.567L782.131 485.648L782.493 476.538C782.493 476.538 779.8 477.485 779.094 478.209C778.389 478.934 780.005 486.567 780.005 486.567H779.995Z" fill="white"/>
<path d="M780.163 486.567L777.785 486.493L773.801 478.544C773.801 478.544 777.952 477.559 778.927 477.968C779.903 478.376 780.153 486.567 780.153 486.567H780.163Z" fill="white"/>
<path d="M830.275 553.888C827.971 553.962 819.53 570.01 815.778 581.321C812.026 592.633 824.108 641.352 824.108 641.352L828.464 639.318C825.752 629.799 832.568 553.814 830.275 553.888Z" fill="#F7996F"/>
<path d="M835.596 643.609H821.108C821.108 643.609 823.56 638.352 829.234 638.714C832.689 638.928 835.596 643.609 835.596 643.609Z" fill="#5C4FA1"/>
<path d="M840.36 633.309C840.815 583.82 838.568 498.139 825.464 473.157C812.221 447.915 807.772 439.362 823.597 410.396C823.597 410.396 823.597 410.359 823.588 410.322C823.402 409.087 819.808 385.99 808.803 374.8C800.696 366.553 790.174 366.228 782.614 376.499C773.476 388.925 771.479 412.077 771.479 412.077C784.899 433.623 796.489 432.193 774.563 466.536C761.022 487.737 751.132 579.362 749.757 632.408" fill="#FCB32B"/>
<path d="M749.757 632.408C765.619 630.077 783.144 637.033 805.181 632.483C820.319 629.353 826.811 631.712 840.36 633.309" fill="#E59A24"/>
<path d="M840.36 633.309C840.815 583.82 838.568 498.139 825.464 473.157C812.379 448.213 807.893 439.548 823.068 411.399C815.1 413.442 806.073 414.603 796.498 414.603C787.555 414.603 779.085 413.591 771.516 411.799C771.498 411.984 771.489 412.077 771.489 412.077C784.908 433.623 796.498 432.193 774.572 466.536C761.032 487.737 751.141 579.362 749.767 632.408" fill="#FCB32B"/>
<path d="M753.676 632.028C754.215 571.319 776.958 440.049 799.804 440.049C822.65 440.049 837.212 572.629 837.453 632.938C838.391 633.059 839.348 633.189 840.36 633.309" fill="#E59A24"/>
<path d="M822.761 631.341C822.761 631.341 824.767 600.304 823.764 581.108C823.764 581.108 826.987 605.542 829.69 631.814L822.761 631.341Z" fill="#FCB32B"/>
<path d="M804.578 439.427C804.578 439.427 812.49 469.99 816.028 488.917C816.028 488.917 814.18 464.595 810.131 438.666L804.578 439.418V439.427Z" fill="#FCB32B"/>
<path d="M783.357 418.866H844.066C844.911 418.866 845.598 419.553 845.598 420.398V460.035H781.825V420.398C781.825 419.553 782.512 418.866 783.357 418.866Z" fill="#E0DFDF"/>
<path d="M845.598 459.357H781.825V464.084H845.598V459.357Z" fill="#A1B1D0"/>
<path d="M819.446 441.136C819.446 444.303 816.874 446.875 813.707 446.875C810.54 446.875 807.968 444.303 807.968 441.136C807.968 437.969 810.54 435.397 813.707 435.397C816.874 435.397 819.446 437.969 819.446 441.136Z" fill="white"/>
<path d="M816.948 457.369L816.307 456.292C816.112 456.292 815.926 456.329 815.74 456.339C815.471 456.106 815.202 455.893 814.942 455.661C814.617 456.106 814.403 456.394 814.338 456.496C811.004 457.026 808.599 458.419 807.392 459.153C806.463 459.719 806.5 460.388 806.649 460.796C806.723 461.001 806.946 461.084 807.132 460.982C808.042 460.508 809.945 459.905 810.484 460.425C811.097 461.01 804.949 466.22 805.534 467.241C805.766 467.65 810.243 464.056 810.243 464.056C810.243 464.056 806.156 468.82 806.918 469.099C807.679 469.377 811.812 465.653 811.812 465.653C811.812 465.653 808.302 470.9 809.184 470.854C810.066 470.808 813.354 467.149 813.354 467.149C812.276 469.201 812.128 470.195 812.174 470.659C812.193 470.882 812.425 470.965 812.592 470.826C814.58 469.006 816.985 463.304 817.951 460.898H817.96V460.926C818.629 460.564 819.26 460.155 819.901 459.775C818.898 458.995 817.923 458.196 816.948 457.388V457.369Z" fill="#FCC08F"/>
<path d="M780.125 493.653C778.398 496.718 775.463 496.69 774.609 495.622C774.321 495.251 777.739 486.707 779.614 487.162C780.943 487.487 781.853 490.589 780.125 493.653Z" fill="#FDCD9D"/>
<path d="M787.629 494.285C787.137 494.322 787.778 496.997 787.917 497.888C788.047 498.696 788.428 499.244 788.827 498.938C789.867 498.139 788.307 494.238 787.629 494.285Z" fill="#FDCD9D"/>
<path d="M786.468 498.25C786.032 497.99 785.54 500.005 785.484 500.906C785.438 501.696 785.605 501.779 786.088 501.668C787.379 501.38 787.536 498.882 786.468 498.241V498.25Z" fill="#FDCD9D"/>
<path d="M783.357 500.572C782.921 500.312 783.069 502.429 783.032 503.46C783.004 504.147 783.004 504.649 783.496 504.547C784.787 504.259 784.75 501.399 783.357 500.572Z" fill="#FDCD9D"/>
<path d="M780.971 480.382C780.971 485.982 788.967 492.483 785.642 494.229C782.661 495.789 775.501 493.83 777.655 480.865L780.971 480.382Z" fill="#FDCD9D"/>
<path d="M777.897 487.626C780.014 482.045 786.821 490.83 787.583 493.087C788.419 495.566 783.608 500.228 782.484 498.473C779.048 493.096 775.092 495.028 777.897 487.626Z" fill="#FDCD9D"/>
<path d="M783.747 498.687C784.704 501.584 784.546 503.312 783.757 503.46C782.967 503.618 783.134 502.299 782.168 499.402C781.203 496.504 778.667 492.687 779.457 492.53C780.246 492.372 782.781 495.789 783.747 498.687Z" fill="#FDCD9D"/>
<path d="M785.967 496.105C787.518 498.817 787.007 500.767 786.283 501.073C785.558 501.371 784.722 498.566 783.172 495.854C781.621 493.142 780.766 491.304 781.491 491.007C782.215 490.709 784.416 493.403 785.958 496.105H785.967Z" fill="#FDCD9D"/>
<path d="M787.248 491.88C788.762 494.601 789.004 496.458 788.279 496.764C787.546 497.071 786.886 495.093 785.373 492.372C783.849 489.641 782.828 487.719 783.562 487.413C784.286 487.106 785.735 489.158 787.248 491.88Z" fill="#FDCD9D"/>
<path d="M774.423 498.325C773.55 499.225 773.402 500.498 774.061 501.315L778.194 506.441C778.417 506.72 778.779 506.868 779.169 506.841C779.568 506.822 779.967 506.627 780.255 506.321L791 495.158C791.734 494.396 791.864 493.319 791.307 492.632L787.369 487.738C787.053 487.347 786.552 487.134 785.985 487.171C785.419 487.199 784.862 487.468 784.444 487.905L774.423 498.315V498.325Z" fill="#A09D98"/>
<path d="M782.531 489.901C784.592 491.712 785.958 494.433 786.069 497.526C786.106 498.603 785.995 499.653 785.744 500.637L791.01 495.167C791.743 494.406 791.873 493.328 791.316 492.641L787.379 487.747C787.063 487.357 786.561 487.143 785.995 487.18C785.428 487.208 784.871 487.478 784.453 487.914L782.54 489.901H782.531Z" fill="#88847C"/>
<path d="M773.457 497.489C772.584 498.39 772.436 499.662 773.095 500.479L777.228 505.605C777.451 505.884 777.813 506.033 778.203 506.005C778.602 505.977 779.002 505.791 779.29 505.485L790.025 494.322C790.759 493.56 790.889 492.483 790.332 491.796L786.394 486.902C786.078 486.512 785.577 486.298 785.01 486.335C784.444 486.372 783.887 486.632 783.469 487.069L773.457 497.479V497.489Z" fill="#EEE7DE"/>
<path d="M776.392 494.879C776.903 499.383 778.528 503.098 780.358 504.389L785.131 499.43C785.363 497.786 785.382 495.891 785.159 493.885C784.862 491.294 784.202 488.973 783.348 487.217L776.355 494.489C776.364 494.619 776.383 494.749 776.392 494.888V494.879Z" fill="#FFF4EA"/>
<path d="M774.182 498.083C773.476 498.817 773.346 499.829 773.885 500.47L777.256 504.472C777.442 504.686 777.729 504.797 778.055 504.779C778.38 504.751 778.705 504.593 778.946 504.352L787.713 495.297C788.317 494.675 788.419 493.82 787.964 493.282L784.75 489.465C784.49 489.158 784.082 489.001 783.617 489.038C783.162 489.075 782.698 489.298 782.354 489.651L774.173 498.102L774.182 498.083Z" fill="#443D32"/>
<path d="M778.157 494.303L774.414 498.167C773.745 498.854 773.634 499.801 774.135 500.396L777.284 504.138C777.358 504.231 777.46 504.296 777.572 504.342C778.751 502.866 778.742 495.659 778.166 494.303H778.157Z" fill="#71675B"/>
<path d="M781.426 490.598C783.227 493.031 783.859 496.588 783.413 499.708L787.704 495.278C788.307 494.656 788.409 493.802 787.954 493.263L784.741 489.446C784.481 489.14 784.072 488.982 783.608 489.019C783.153 489.056 782.689 489.279 782.345 489.632L781.407 490.598H781.426Z" fill="#5C5144"/>
<path d="M786.496 489.437C786.097 489.762 785.985 490.319 786.255 490.681C786.524 491.044 787.063 491.081 787.462 490.756C787.861 490.431 787.973 489.873 787.703 489.511C787.434 489.149 786.895 489.112 786.496 489.437Z" fill="#4D4943"/>
<path d="M786.645 489.641C786.366 489.864 786.292 490.254 786.478 490.505C786.663 490.756 787.035 490.784 787.314 490.561C787.592 490.338 787.666 489.948 787.481 489.697C787.295 489.446 786.923 489.418 786.645 489.641Z" fill="#EEE7DE"/>
<path d="M783.575 501.633L781.469 503.783L781.821 504.128L783.926 501.978L783.575 501.633Z" fill="#D6C7B4"/>
<path d="M777.2 495.501C775.5 496.254 774.609 496.207 774.572 495.325C774.572 495.139 775.231 494.127 777.061 493.635C777.794 493.44 778.742 493.189 778.983 493.588C779.41 494.294 779.271 494.582 777.191 495.501H777.2Z" fill="#FDCD9D"/>
<path d="M781.899 503.237C781.193 502.42 781.175 501.919 781.704 501.538C781.816 501.454 782.54 501.324 783.348 502.095C783.794 502.522 784.527 503.219 784.267 503.776C783.757 504.881 782.791 504.723 781.89 503.237H781.899Z" fill="#FDCD9D"/>
<path d="M784.583 500.479C783.868 499.671 783.859 499.16 784.388 498.78C784.5 498.696 785.224 498.566 786.032 499.337C786.478 499.764 787.211 500.461 786.951 501.018C786.441 502.123 785.363 501.984 784.574 500.479H784.583Z" fill="#FDCD9D"/>
<path d="M787.239 498.213C786.682 497.544 786.673 497.136 787.081 496.82C787.165 496.755 787.731 496.653 788.372 497.275C788.725 497.619 789.301 498.195 789.097 498.65C788.697 499.56 788.391 499.578 787.239 498.204V498.213Z" fill="#FDCD9D"/>
<path d="M816.957 387.467C807.512 396.132 856.696 432.806 858.98 433.326C858.98 433.326 865.035 431.673 864.023 429.128C861.404 422.544 821.173 383.604 816.957 387.467Z" fill="#FCB32B"/>
<path d="M815.908 389.232C816.084 388.554 816.418 387.959 816.957 387.467C821.173 383.604 861.404 422.534 864.023 429.128C864.134 429.416 864.153 429.722 864.116 430.038C856.417 420.324 826.281 393.401 815.908 389.232Z" fill="#E59A24"/>
<path d="M818.081 458.437C812.082 451.342 857.104 426.008 859.064 425.71C859.064 425.71 865.769 427.103 863.54 431.115C860.624 436.372 820.756 461.614 818.072 458.437H818.081Z" fill="#FCB32B"/>
<path d="M855.526 437.811C842.914 446.94 820.106 460.824 818.081 458.437C817.57 457.834 817.431 457.1 817.598 456.264C827.145 453.06 844.855 444.145 855.516 437.811H855.526Z" fill="#E59A24"/>
<path d="M815.332 459.366L817.691 460.945L827.424 456.97C827.424 456.97 822.687 452.81 821.48 452.54C820.273 452.262 815.332 459.366 815.332 459.366Z" fill="white"/>
<path d="M815.453 459.533L813.93 457.119L820.04 448.426C820.04 448.426 822.111 453.125 822.353 454.351C822.594 455.568 815.453 459.543 815.453 459.543V459.533Z" fill="white"/>
<path d="M777.042 388.637C777.042 388.637 770.523 399.503 774.451 413.675L793.174 417.501C793.174 416.981 789.032 404.88 788.419 398.778C788.419 398.778 815.936 402.187 816.456 386.464L777.042 388.637Z" fill="#E59A24"/>
<path d="M779.308 379.081C771.554 384.653 781.249 397.515 795.681 397.423C810.494 397.32 821.694 388.563 814.496 379.861C810.289 374.772 807.68 378.45 811.199 363.033C814.385 349.066 778.12 348.75 778.194 351.378C778.51 362.29 790.388 371.113 779.308 379.081Z" fill="#5C4FA1"/>
<path d="M807.578 395.25C815.536 392.101 819.548 385.963 814.506 379.861C810.299 374.772 807.689 378.45 811.209 363.033C814.394 349.066 778.129 348.75 778.203 351.378C778.519 362.29 790.397 371.113 779.318 379.081C771.563 384.653 781.259 397.515 795.69 397.423C796.424 397.423 797.139 397.385 797.854 397.339H797.836C788.976 397.339 781.797 392.816 781.797 387.244C781.797 381.672 788.976 377.149 797.836 377.149C806.695 377.149 813.874 381.672 813.874 387.244C813.874 390.504 811.404 393.401 807.587 395.25H807.578Z" fill="#46409A"/>
<path d="M814.283 324.679C807.652 314.797 786.45 312.81 777.098 327.335C768.684 340.392 773.337 363.414 782.856 375.812C786.561 380.641 804.782 384.124 809.639 377.363C816.948 367.175 824.247 339.51 814.292 324.679H814.283Z" fill="#46409A"/>
<path d="M809.648 357.471C810.141 355.167 809.695 353.273 811.747 353.709C813.79 354.146 815.053 356.365 814.561 358.668C814.069 360.972 812.007 362.476 809.964 362.04C807.921 361.603 809.156 359.774 809.648 357.471Z" fill="#FCC08F"/>
<path d="M811.273 358.269C811.561 356.932 811.385 355.845 812.369 356.059C813.354 356.272 813.929 357.526 813.642 358.864C813.354 360.201 812.323 361.12 811.338 360.907C810.354 360.693 810.995 359.616 811.273 358.278V358.269Z" fill="#EF9070"/>
<path d="M811.849 360.387C811.19 361.092 811.032 361.919 810.196 361.139C809.37 360.359 809.221 359.161 809.88 358.464C810.54 357.768 811.747 357.833 812.574 358.613C813.409 359.393 812.499 359.69 811.849 360.387Z" fill="#FCC08F"/>
<path d="M782.995 357.471C782.503 355.167 782.949 353.273 780.896 353.709C778.853 354.146 777.59 356.365 778.082 358.668C778.574 360.972 780.636 362.476 782.679 362.04C784.722 361.603 783.487 359.774 782.995 357.471Z" fill="#FCC08F"/>
<path d="M781.37 358.269C781.082 356.932 781.258 355.845 780.274 356.059C779.289 356.272 778.714 357.526 779.001 358.864C779.289 360.201 780.32 361.12 781.305 360.907C782.289 360.693 781.648 359.616 781.37 358.278V358.269Z" fill="#EF9070"/>
<path d="M780.785 360.387C781.444 361.092 781.602 361.919 782.438 361.139C783.264 360.359 783.413 359.161 782.753 358.464C782.094 357.768 780.887 357.833 780.06 358.613C779.224 359.393 780.135 359.69 780.785 360.387Z" fill="#FCC08F"/>
<path d="M795.922 373.527C783.821 370.862 776.568 359.319 782.215 334.885C783.357 329.944 787.843 327.112 796.312 327.112C805.636 327.112 809.899 330.13 810.577 334.123C815.378 362.393 806.853 371.744 795.922 373.527Z" fill="#FCC08F"/>
<path d="M795.207 361.585C795.207 361.696 796.015 361.872 796.303 361.872C796.786 361.872 797.38 361.705 797.399 361.51C797.445 361.027 797.835 355.483 796.368 355.53C794.761 355.585 795.198 360.879 795.216 361.585H795.207Z" fill="#FCC08F"/>
<path d="M781.844 336.111C781.844 336.111 796.229 331.857 811.014 336.584C811.014 336.584 808.293 324.911 795.848 324.911C783.404 324.911 781.844 336.101 781.844 336.101V336.111Z" fill="#F3E4C9"/>
<path d="M796.229 322.58C785.28 322.58 776.392 335.637 776.392 351.75C776.392 367.863 785.27 380.92 796.229 380.92C807.187 380.92 816.066 367.863 816.066 351.75C816.066 335.637 807.187 322.58 796.229 322.58ZM796.229 377.029C788.01 377.029 781.351 365.708 781.351 351.75C781.351 337.792 788.01 326.471 796.229 326.471C804.448 326.471 811.106 337.792 811.106 351.75C811.106 365.708 804.448 377.029 796.229 377.029Z" fill="#5C4FA1"/>
<path d="M785.177 384.142L779.011 382.638C775.872 387.263 774.135 405.316 776.355 414.13L790.49 416.776C787.313 410.378 785.177 384.142 785.177 384.142Z" fill="#5C4FA1"/>
<path d="M777.451 404.462C777.451 395.537 781.101 386.102 784.397 381.728L777.702 380.651C774.563 385.285 774.126 405.307 776.346 414.13L778.445 414.52C777.804 411.446 777.442 408.047 777.442 404.462H777.451Z" fill="#46409A"/>
<path d="M785.233 377.716L780.19 383.715C780.19 383.715 780.813 390.077 789.347 393.494C789.347 393.494 782.076 383.464 785.233 377.716Z" fill="#46409A"/>
<path d="M807.345 372.125L809.992 377.827C809.992 377.827 806.574 382.526 796.173 383.214C796.173 383.214 808.135 377.214 807.345 372.134V372.125Z" fill="#46409A"/>
<path d="M800.919 354.657C801.524 354.657 802.015 353.65 802.015 352.409C802.015 351.168 801.524 350.162 800.919 350.162C800.314 350.162 799.823 351.168 799.823 352.409C799.823 353.65 800.314 354.657 800.919 354.657Z" fill="#151C45"/>
<path d="M803.157 349.456C802.971 349.818 802.73 350.134 802.414 350.412C802.108 350.691 801.708 350.905 801.263 351.007H801.244C801.021 351.063 800.808 350.923 800.761 350.71C800.715 350.487 800.845 350.273 801.068 350.227C801.105 350.227 801.142 350.217 801.179 350.217C801.792 350.245 802.47 349.865 802.934 349.326C802.981 349.261 803.064 349.252 803.12 349.298C803.166 349.335 803.176 349.4 803.148 349.456H803.157Z" fill="#151C45"/>
<path d="M791.428 354.657C792.033 354.657 792.523 353.65 792.523 352.409C792.523 351.168 792.033 350.162 791.428 350.162C790.822 350.162 790.332 351.168 790.332 352.409C790.332 353.65 790.822 354.657 791.428 354.657Z" fill="#151C45"/>
<path d="M789.412 349.326C789.877 349.865 790.555 350.236 791.168 350.217C791.39 350.217 791.576 350.385 791.586 350.607C791.586 350.83 791.418 351.016 791.195 351.025C791.158 351.025 791.121 351.025 791.093 351.016H791.075C790.629 350.914 790.239 350.691 789.923 350.422C789.607 350.143 789.366 349.827 789.18 349.465C789.143 349.4 789.18 349.326 789.236 349.289C789.292 349.261 789.357 349.279 789.394 349.317L789.412 349.326Z" fill="#151C45"/>
<path d="M800.287 359.198C799.906 359.941 799.331 360.572 798.634 361.074C797.938 361.575 797.074 361.891 796.182 361.891C795.291 361.872 794.427 361.566 793.74 361.046C793.378 360.814 793.099 360.479 792.793 360.201C792.533 359.866 792.282 359.532 792.059 359.189C792.393 359.439 792.709 359.699 793.016 359.959C793.359 360.173 793.666 360.424 794.019 360.6C794.697 360.99 795.44 361.204 796.182 361.213C796.925 361.232 797.668 360.999 798.356 360.628C799.043 360.247 799.684 359.755 800.287 359.189V359.198Z" fill="#151C45"/>
<path d="M797.325 363.182C797.009 363.461 796.582 363.563 796.173 363.572C795.755 363.563 795.337 363.442 795.021 363.182C795.43 363.247 795.792 363.33 796.173 363.312C796.554 363.33 796.925 363.256 797.325 363.182Z" fill="#151C45"/>
<path d="M793.434 344.627C792.923 344.172 792.347 344.023 791.734 343.995C791.13 343.986 790.508 344.051 789.923 344.255C789.329 344.432 788.79 344.766 788.326 345.165C787.852 345.546 787.518 346.057 787.239 346.558C787.1 346.809 787.193 347.134 787.443 347.274C787.648 347.385 787.889 347.348 788.056 347.199L788.103 347.162C788.456 346.837 788.799 346.531 789.189 346.298C789.561 346.048 789.97 345.918 790.387 345.806C790.805 345.713 791.242 345.658 791.678 345.676C792.115 345.695 792.579 345.713 793.062 345.593L793.201 345.555C793.499 345.481 793.675 345.184 793.601 344.887C793.573 344.775 793.517 344.682 793.434 344.608V344.627Z" fill="#151C45"/>
<path d="M798.913 344.627C799.424 344.172 799.999 344.023 800.612 343.995C801.216 343.986 801.838 344.051 802.423 344.255C803.018 344.432 803.556 344.766 804.021 345.165C804.494 345.546 804.829 346.057 805.107 346.558C805.247 346.809 805.154 347.134 804.903 347.274C804.699 347.385 804.457 347.348 804.29 347.199L804.244 347.162C803.891 346.837 803.547 346.531 803.157 346.298C802.786 346.048 802.377 345.918 801.959 345.806C801.541 345.713 801.105 345.658 800.668 345.676C800.232 345.695 799.767 345.713 799.284 345.593L799.145 345.555C798.848 345.481 798.671 345.184 798.746 344.887C798.774 344.775 798.829 344.682 798.913 344.608V344.627Z" fill="#151C45"/>
<path d="M796.433 348.982C796.628 349.827 796.767 350.672 796.925 351.499C797.083 352.326 797.241 353.152 797.473 353.941C797.529 354.137 797.585 354.332 797.659 354.517C797.715 354.675 797.854 354.963 797.854 355.242C797.882 355.799 797.52 356.347 797.065 356.57C796.6 356.83 796.062 356.793 795.634 356.644C795.207 356.486 794.827 356.254 794.501 355.966C795.291 356.263 796.21 356.495 796.758 356.077C797.037 355.864 797.185 355.585 797.148 355.279C797.13 355.121 797.083 355.019 796.981 354.777C796.897 354.564 796.823 354.359 796.758 354.146C796.517 353.291 796.396 352.428 796.35 351.564C796.303 350.7 796.312 349.837 796.433 348.973V348.982Z" fill="#151C45"/>
</g>
<defs>
<linearGradient id="paint0_linear_6_1676" x1="249.706" y1="138.941" x2="274.492" y2="3.74261" gradientUnits="userSpaceOnUse">
<stop stop-color="#4C57A6"/>
<stop offset="1" stop-color="#5560AB"/>
</linearGradient>
<clipPath id="clip0_6_1676">
<rect width="993.269" height="655.96" fill="white"/>
</clipPath>
</defs>
</svg>
