<svg width="95" height="42" viewBox="0 0 95 42" fill="none" xmlns="http://www.w3.org/2000/svg">
<g clip-path="url(#clip0_9_3432)">
<path d="M49.0467 13.9114L53.5664 13.5636C53.6695 14.4433 53.8585 15.0979 54.1679 15.5684C54.6662 16.3049 55.3537 16.6732 56.2645 16.6732C56.9347 16.6732 57.4674 16.489 57.8283 16.1003C58.172 15.7935 58.3783 15.3025 58.3783 14.791C58.3783 14.3001 58.1892 13.8295 57.8627 13.5227C57.519 13.1544 56.7113 12.7862 55.4396 12.4588C53.3602 11.9065 51.8651 11.17 50.9886 10.2289C50.1122 9.34925 49.6138 8.0604 49.6482 6.68972C49.6482 5.74866 49.8887 4.8076 50.3356 4.0302C50.8511 3.15051 51.5557 2.45494 52.3978 2.06625C53.3086 1.59571 54.5803 1.35022 56.1785 1.35022C58.1377 1.35022 59.6328 1.77983 60.6639 2.65952C61.695 3.51875 62.3137 4.90989 62.5027 6.81247L58.0346 7.11934C57.9143 6.30102 57.6737 5.70775 57.2784 5.31905C56.8831 4.93035 56.3676 4.74623 55.6974 4.74623C55.1474 4.74623 54.735 4.88943 54.46 5.15538C54.2022 5.40088 54.0304 5.76912 54.0476 6.17828C54.0476 6.48514 54.1851 6.77155 54.3913 6.95568C54.6147 7.20117 55.1474 7.42621 55.9895 7.63078C58.0689 8.16269 59.5469 8.69459 60.4577 9.24696C61.3685 9.79932 62.0215 10.4744 62.4168 11.2723C62.8292 12.0906 63.0355 13.0317 63.0183 13.9932C63.0183 15.1388 62.7433 16.2845 62.1934 17.246C61.6263 18.2484 60.8358 19.0258 59.9077 19.4963C58.9282 20.0078 57.6908 20.2737 56.2129 20.2737C53.6008 20.2737 51.7963 19.6805 50.7824 18.4735C49.7685 17.2664 49.167 15.7526 49.0467 13.9114ZM1.08267 19.9669V1.67755H9.00507C10.4658 1.67755 11.6 1.82075 12.3734 2.12762C13.1295 2.41403 13.7997 3.00731 14.2466 3.80516C14.7449 4.68485 14.9855 5.70775 14.9683 6.77155C15.0199 8.57185 14.2466 10.2903 12.9233 11.1905C12.4077 11.5382 11.8406 11.7837 11.2563 11.9065C11.686 12.0497 12.1156 12.2952 12.4937 12.5816C12.7858 12.868 13.0264 13.1953 13.2498 13.5431C13.5076 13.8909 13.731 14.2796 13.92 14.6888L16.2229 19.9873H10.8267L8.28329 14.3614C7.95677 13.6454 7.6818 13.1749 7.42402 12.9498C7.08032 12.6634 6.66787 12.5202 6.25543 12.5202H5.84298V19.9464H1.08267V19.9669ZM5.84298 9.08329H7.85365C8.28329 9.04238 8.69573 8.96055 9.10818 8.8378C9.41751 8.77643 9.69248 8.57185 9.88151 8.26498C10.3455 7.5285 10.2768 6.48514 9.70966 5.85095C9.40033 5.54408 8.79884 5.38042 7.93958 5.38042H5.84298V9.08329ZM0 35.6376L4.51972 35.2898C4.62283 36.1695 4.81187 36.8242 5.1212 37.2947C5.60239 38.0312 6.30698 38.4199 7.2178 38.4199C7.88802 38.4199 8.42077 38.2358 8.78166 37.8471C9.12536 37.5197 9.33158 37.0492 9.33158 36.5378C9.33158 36.0468 9.14255 35.5762 8.81603 35.2694C8.47232 34.9011 7.66462 34.5329 6.37572 34.2056C4.29631 33.6532 2.80119 32.9167 1.92475 31.9756C1.0483 31.096 0.549928 29.8071 0.584298 28.4364C0.584298 27.4954 0.824892 26.5543 1.27171 25.7769C1.78726 24.8972 2.49186 24.2017 3.33394 23.813C4.24475 23.3424 5.51646 23.0969 7.11469 23.0969C9.07381 23.0969 10.5689 23.5266 11.6 24.4062C12.6312 25.2859 13.2326 26.6566 13.4217 28.5592L8.95351 28.8661C8.83321 28.0477 8.59262 27.4545 8.19736 27.0658C7.81928 26.6771 7.28654 26.4929 6.61632 26.5134C6.06639 26.5134 5.65394 26.6566 5.37898 26.943C5.10402 27.1885 4.94935 27.5567 4.96653 27.9659C4.96653 28.2728 5.10402 28.5592 5.31024 28.7433C5.53365 28.9888 6.06639 29.2138 6.90847 29.4184C8.98788 29.9503 10.4658 30.4822 11.3766 31.0346C12.2874 31.5869 12.9405 32.2621 13.3357 33.0599C13.7482 33.8782 13.9544 34.8193 13.9544 35.7604C13.9544 36.906 13.6623 38.0312 13.1295 38.9927C12.5624 39.9951 11.7719 40.7725 10.8439 41.2431C9.86433 41.7545 8.62699 42.0205 7.14906 42.0205C4.5369 42.0205 2.73245 41.4272 1.71852 40.2202C0.704595 38.9927 0.137482 37.4788 0 35.6376H0Z" fill="black"/>
<path d="M22.8564 34.2055L27.0152 35.699C26.7918 36.9469 26.3278 38.1335 25.6919 39.1768C25.1076 40.0974 24.3343 40.8134 23.4578 41.284C22.5642 41.7545 21.43 42 20.0552 42C18.3882 42 17.0134 41.7136 15.9651 41.1408C14.8996 40.5679 13.9888 39.545 13.2154 38.0925C12.4421 36.64 12.064 34.7784 12.064 32.5075C12.064 29.4798 12.7343 27.1476 14.0919 25.5314C15.4495 23.9152 17.3571 23.0969 19.8318 23.0969C21.7737 23.0969 23.286 23.5675 24.403 24.4881C25.5029 25.4291 26.3278 26.8612 26.8777 28.7842L22.6845 29.8889C22.5814 29.4593 22.4267 29.0297 22.2205 28.6615C21.9627 28.2318 21.6362 27.9045 21.2409 27.659C20.8457 27.4135 20.3989 27.3112 19.9521 27.3112C18.8694 27.3112 18.0445 27.8227 17.4774 28.866C17.0477 29.623 16.8243 30.83 16.8243 32.4666C16.8243 34.492 17.0821 35.8831 17.5977 36.64C18.1132 37.397 18.835 37.7652 19.7802 37.7652C20.691 37.7652 21.3784 37.4583 21.8424 36.8651C22.3064 36.2309 22.6501 35.3512 22.8564 34.2055ZM32.566 23.4038H37.3091V29.8071H42.4991V23.4038H47.2766V41.6931H42.4991V34.2874H37.3091V41.6931H32.566V23.4038Z" fill="black"/>
<path d="M46.6235 32.5485C46.6235 29.5616 47.3281 27.2294 48.7201 25.5723C50.1121 23.9152 52.0713 23.0765 54.5631 23.0765C57.1237 23.0765 59.0828 23.8948 60.4748 25.5314C61.8668 27.1681 62.5543 29.4593 62.5543 32.4053C62.5543 34.5533 62.2449 36.2923 61.6434 37.6629C61.0591 39.0132 60.1483 40.1179 59.0313 40.8544C57.8799 41.6113 56.4535 42 54.7522 42C53.0164 42 51.5901 41.6727 50.4558 41.018C49.2873 40.3225 48.3249 39.2382 47.689 37.9084C46.9844 36.4764 46.6235 34.6965 46.6235 32.5485ZM51.3667 32.5689C51.3667 34.4101 51.6588 35.7399 52.2259 36.5582C52.793 37.3561 53.5836 37.7652 54.5803 37.7652C55.5942 37.7652 56.3848 37.3765 56.9519 36.5787C57.519 35.7808 57.7939 34.3692 57.7939 32.3234C57.7939 30.605 57.5018 29.3366 56.9175 28.5592C56.3332 27.7613 55.5427 27.3726 54.5459 27.3726C53.6695 27.3317 52.8274 27.7818 52.2431 28.5796C51.6588 29.3775 51.3667 30.7073 51.3667 32.5689ZM67.4177 32.5485C67.4177 29.5616 68.1223 27.2294 69.5143 25.5723C70.9063 23.9152 72.8654 23.0765 75.3573 23.0765C77.9179 23.0765 79.8942 23.8948 81.269 25.5314C82.6438 27.1681 83.3484 29.4593 83.3484 32.4053C83.3484 34.5533 83.0391 36.2923 82.4376 37.6629C81.8533 39.0132 80.9425 40.1179 79.8254 40.8544C78.674 41.6113 77.2476 42 75.5463 42C73.8106 42 72.3842 41.6727 71.25 41.018C70.0814 40.3225 69.119 39.2382 68.4832 37.9084C67.7786 36.4764 67.4177 34.6965 67.4177 32.5485ZM72.1608 32.5689C72.1608 34.4101 72.453 35.7399 73.0201 36.5582C73.5872 37.3561 74.3777 37.7652 75.3744 37.7652C76.3884 37.7652 77.1789 37.3765 77.746 36.5787C78.3131 35.7808 78.5881 34.3692 78.5881 32.3234C78.5881 30.605 78.2959 29.3366 77.7116 28.5592C77.1273 27.7613 76.3368 27.3726 75.3401 27.3726C74.4636 27.3317 73.6044 27.7818 73.0373 28.5796C72.453 29.3775 72.1608 30.7073 72.1608 32.5689Z" fill="black"/>
<path d="M82.85 23.4038H87.5931V37.1924H95V41.6931H82.8328V23.4038H82.85Z" fill="black"/>
<path d="M77.6221 22.3483C82.3974 18.0644 83.8699 10.8025 80.9111 6.12847C77.9522 1.45439 71.6825 1.13807 66.9072 5.42194C62.1318 9.70582 60.6593 16.9677 63.6181 21.6418C66.577 26.3158 72.8467 26.6322 77.6221 22.3483Z" fill="white"/>
<mask id="mask0_9_3432" style="mask-type:alpha" maskUnits="userSpaceOnUse" x="62" y="2" width="21" height="24">
<path d="M77.6221 22.3483C82.3974 18.0645 83.8699 10.8026 80.9111 6.12853C77.9522 1.45445 71.6825 1.13813 66.9072 5.422C62.1318 9.70588 60.6593 16.9677 63.6181 21.6418C66.577 26.3159 72.8467 26.6322 77.6221 22.3483Z" fill="white"/>
</mask>
<g mask="url(#mask0_9_3432)">
<path d="M51.4397 11.567L76.1165 -10.5702L93.192 16.4041L68.5153 38.5413L51.4397 11.567Z" fill="white"/>
<mask id="mask1_9_3432" style="mask-type:alpha" maskUnits="userSpaceOnUse" x="51" y="-11" width="43" height="50">
<path d="M51.4397 11.567L76.1165 -10.5702L93.192 16.4041L68.5153 38.5413L51.4397 11.567Z" fill="white"/>
</mask>
<g mask="url(#mask1_9_3432)">
<path d="M77.6221 22.3483C82.3974 18.0645 83.8699 10.8026 80.9111 6.12853C77.9522 1.45445 71.6825 1.13813 66.9072 5.422C62.1318 9.70588 60.6593 16.9677 63.6181 21.6418C66.577 26.3159 72.8467 26.6322 77.6221 22.3483Z" fill="white"/>
<mask id="mask2_9_3432" style="mask-type:alpha" maskUnits="userSpaceOnUse" x="62" y="2" width="21" height="24">
<path d="M77.6221 22.3483C82.3974 18.0645 83.8699 10.8026 80.9111 6.12853C77.9522 1.45445 71.6825 1.13813 66.9072 5.422C62.1318 9.70588 60.6593 16.9677 63.6181 21.6418C66.577 26.3159 72.8467 26.6322 77.6221 22.3483Z" fill="white"/>
</mask>
<g mask="url(#mask2_9_3432)">
<path d="M58.3113 13.3682L75.5908 -2.1324L86.3158 14.8105L69.0363 30.3111L58.3113 13.3682Z" fill="white"/>
<mask id="mask3_9_3432" style="mask-type:alpha" maskUnits="userSpaceOnUse" x="58" y="-3" width="29" height="34">
<path d="M58.3113 13.3682L75.5908 -2.13246L86.3158 14.8104L69.0363 30.3111L58.3113 13.3682Z" fill="white"/>
</mask>
<g mask="url(#mask3_9_3432)">
<path d="M77.6221 22.3483C82.3974 18.0645 83.8699 10.8026 80.9111 6.12853C77.9522 1.45445 71.6825 1.13813 66.9072 5.422C62.1318 9.70588 60.6593 16.9677 63.6181 21.6418C66.577 26.3159 72.8467 26.6322 77.6221 22.3483Z" fill="white" stroke="black" stroke-width="4" stroke-miterlimit="10"/>
</g>
<mask id="mask4_9_3432" style="mask-type:alpha" maskUnits="userSpaceOnUse" x="60" y="-2" width="24" height="32">
<path d="M60.7737 23.9624L67.1075 -1.21533L83.8682 4.21323L77.5343 29.391L60.7737 23.9624Z" fill="white"/>
</mask>
<g mask="url(#mask4_9_3432)">
<path d="M58.3113 13.7545L75.9035 -2.1324L86.3158 14.4242L68.7236 30.3111L58.3113 13.7545Z" stroke="black" stroke-width="4" stroke-miterlimit="10"/>
</g>
<path d="M77.6221 22.3483C82.3974 18.0645 83.8699 10.8026 80.9111 6.12853C77.9522 1.45445 71.6825 1.13813 66.9072 5.422C62.1318 9.70588 60.6593 16.9677 63.6181 21.6418C66.577 26.3159 72.8467 26.6322 77.6221 22.3483Z" stroke="black" stroke-width="4" stroke-miterlimit="10"/>
<path d="M58.3113 13.3682L75.5908 -2.1324L86.3158 14.8105L69.0363 30.3111L58.3113 13.3682Z" fill="white"/>
<mask id="mask5_9_3432" style="mask-type:alpha" maskUnits="userSpaceOnUse" x="58" y="-3" width="29" height="34">
<path d="M58.3113 13.3682L75.5908 -2.13246L86.3158 14.8104L69.0363 30.3111L58.3113 13.3682Z" fill="white"/>
</mask>
<g mask="url(#mask5_9_3432)">
<path d="M77.6221 22.3483C82.3974 18.0645 83.8699 10.8026 80.9111 6.12853C77.9522 1.45445 71.6825 1.13813 66.9072 5.422C62.1318 9.70588 60.6593 16.9677 63.6181 21.6418C66.577 26.3159 72.8467 26.6322 77.6221 22.3483Z" fill="white" stroke="black" stroke-width="4" stroke-miterlimit="10"/>
</g>
<mask id="mask6_9_3432" style="mask-type:alpha" maskUnits="userSpaceOnUse" x="60" y="-2" width="24" height="32">
<path d="M60.7737 23.9624L67.1075 -1.21533L83.8682 4.21323L77.5343 29.391L60.7737 23.9624Z" fill="white"/>
</mask>
<g mask="url(#mask6_9_3432)">
<path d="M58.3113 13.7545L75.9035 -2.1324L86.3158 14.4242L68.7236 30.3111L58.3113 13.7545Z" stroke="black" stroke-width="4" stroke-miterlimit="10"/>
</g>
<path d="M51.4397 11.567L76.1165 -10.5702L93.1921 16.4041L68.5153 38.5413L51.4397 11.567Z" stroke="black" stroke-width="4" stroke-miterlimit="10"/>
</g>
<path d="M77.6221 22.3483C82.3974 18.0645 83.8699 10.8026 80.9111 6.12853C77.9522 1.45445 71.6825 1.13813 66.9072 5.422C62.1318 9.70588 60.6593 16.9677 63.6181 21.6418C66.577 26.3159 72.8467 26.6322 77.6221 22.3483Z" stroke="black" stroke-width="4" stroke-miterlimit="10"/>
<path d="M67.4349 12.5407L69.1534 11.1087L71.2672 14.6888C71.6281 15.2616 71.903 15.8753 72.1092 16.5504C72.2295 17.0619 72.1952 17.6143 72.0233 18.1052C71.7999 18.719 71.439 19.2304 70.9578 19.5987C70.3907 20.0692 69.9095 20.3352 69.4971 20.417C69.1018 20.4988 68.6894 20.417 68.3113 20.2124C67.8989 19.9669 67.538 19.6191 67.263 19.1691L68.7409 17.5324C68.8612 17.7575 69.0159 17.962 69.1877 18.1257C69.308 18.228 69.4455 18.2894 69.6002 18.2894C69.7205 18.2894 69.8408 18.228 69.9267 18.1462C70.0986 18.0234 70.2189 17.7779 70.2017 17.5324C70.1501 17.1846 70.0298 16.8369 69.8408 16.5709L67.4349 12.5407ZM72.5904 14.8115L74.1543 13.3386C74.3261 13.5841 74.5495 13.7682 74.7901 13.8705C75.1338 13.9932 75.4947 13.9114 75.7869 13.6454C75.9931 13.4818 76.165 13.2567 76.2337 12.9703C76.3368 12.6021 76.165 12.1929 75.8556 12.0702C75.8041 12.0497 75.7525 12.0293 75.701 12.0293C75.4947 12.0088 75.1338 12.1111 74.6011 12.377C73.7247 12.8067 73.0372 12.9703 72.5217 12.9089C72.0233 12.8476 71.5593 12.5407 71.2843 12.0293C71.0781 11.6815 70.975 11.2723 70.9578 10.8632C70.9578 10.3926 71.0609 9.9221 71.2843 9.5334C71.6109 8.98103 72.0061 8.5105 72.4873 8.14226C73.2091 7.54898 73.8449 7.26257 74.3949 7.26257C74.9448 7.26257 75.4604 7.56944 75.9415 8.20363L74.3949 9.65614C74.0855 9.18561 73.5012 9.08332 73.106 9.45157L73.0544 9.51294C72.8826 9.63569 72.7623 9.81981 72.6935 10.0448C72.642 10.2085 72.6764 10.3926 72.7623 10.5358C72.831 10.6381 72.9341 10.72 73.0544 10.72C73.1919 10.7404 73.4325 10.6586 73.7762 10.4745C74.6355 10.0448 75.2885 9.79935 75.7353 9.71752C76.1134 9.63569 76.5087 9.6766 76.8695 9.86072C77.1961 10.0244 77.471 10.3108 77.6601 10.6586C77.9007 11.0677 78.0381 11.5587 78.0553 12.0702C78.0725 12.6021 77.9522 13.1135 77.7116 13.5636C77.4023 14.116 77.007 14.5865 76.543 14.9547C75.5978 15.7321 74.8245 16.0595 74.2058 15.9367C73.5356 15.814 72.9857 15.4048 72.5904 14.8115Z" fill="black"/>
</g>
</g>
</g>
<defs>
<clipPath id="clip0_9_3432">
<rect width="95" height="42" fill="white"/>
</clipPath>
</defs>
</svg>
