<svg width="750" height="116" viewBox="0 0 750 116" fill="none" xmlns="http://www.w3.org/2000/svg">
<g clip-path="url(#clip0_3_209)">
<path d="M80.8235 40.9904L70.7674 21.4161L65.8965 11.9486C64.1801 8.61516 62.2584 5.34262 60.7717 1.84177C60.2278 0.578415 61.2431 0.0456768 62.1133 1.34939e-05C63.2495 -0.0608709 64.6878 0.532752 65.3888 1.70478C67.3106 4.90121 68.9181 8.44772 70.6465 11.8116L75.5174 21.2791L85.5856 40.8534C86.2383 42.1168 85.0176 42.6952 84.1957 42.7409C83.0958 42.8017 81.4641 42.2233 80.8235 40.9752V40.9904Z" fill="#AFB7DB" fill-opacity="0.65"/>
<path d="M61.5453 62.3913C41.7353 54.2176 21.8527 46.2721 2.11517 37.8092C1.42623 37.52 -0.241738 36.7742 0.0241682 35.4804C0.290075 34.2475 2.10308 34.5215 2.75576 34.7802C22.6383 42.6647 42.4 51.0516 62.2101 59.2405C62.9353 59.5449 64.6758 60.3212 64.3857 61.6759C64.1198 62.9545 62.2101 62.6957 61.5332 62.4065L61.5453 62.3913Z" fill="#AFB7DB" fill-opacity="0.65"/>
<path d="M65.5822 90.9309L50.1476 103.336L42.5571 109.44C39.9464 111.54 37.3719 113.839 34.6524 115.696C33.7218 116.32 32.2835 115.848 31.4253 115.285C30.9781 114.995 29.564 113.747 30.3859 112.971C32.8757 110.612 35.6194 108.633 38.2422 106.532L45.8326 100.429L61.5211 87.8105C62.9232 86.6842 67.6491 89.2718 65.5943 90.9309H65.5822Z" fill="#AFB7DB" fill-opacity="0.65"/>
</g>
<g clip-path="url(#clip1_3_209)">
<path d="M668.943 40.9904L678.999 21.4161L683.87 11.9485C685.586 8.61513 687.508 5.34259 688.995 1.84174C689.539 0.578385 688.523 0.0456463 687.653 -1.70237e-05C686.517 -0.0609014 685.079 0.532721 684.378 1.70475C682.456 4.90118 680.848 8.44769 679.12 11.8116L674.249 21.2791L664.181 40.8534C663.528 42.1168 664.749 42.6952 665.571 42.7408C666.671 42.8017 668.302 42.2233 668.943 40.9752V40.9904Z" fill="#AFB7DB" fill-opacity="0.65"/>
<path d="M688.221 62.3913C708.031 54.2176 727.914 46.2721 747.651 37.8092C748.34 37.52 750.008 36.7742 749.742 35.4804C749.476 34.2475 747.663 34.5215 747.011 34.7802C727.128 42.6647 707.367 51.0516 687.556 59.2405C686.831 59.5449 685.091 60.3212 685.381 61.6759C685.647 62.9545 687.556 62.6957 688.233 62.4065L688.221 62.3913Z" fill="#AFB7DB" fill-opacity="0.65"/>
<path d="M684.184 90.9309L699.619 103.336L707.209 109.44C709.82 111.54 712.395 113.839 715.114 115.696C716.045 116.32 717.483 115.848 718.341 115.285C718.788 114.995 720.203 113.747 719.381 112.971C716.891 110.612 714.147 108.633 711.524 106.532L703.934 100.429L688.245 87.8105C686.843 86.6842 682.117 89.2718 684.172 90.9309H684.184Z" fill="#AFB7DB" fill-opacity="0.65"/>
</g>
<defs>
<clipPath id="clip0_3_209">
<rect width="85.767" height="116" fill="white" transform="matrix(-1 0 0 1 85.767 0)"/>
</clipPath>
<clipPath id="clip1_3_209">
<rect width="85.767" height="116" fill="white" transform="translate(664)"/>
</clipPath>
</defs>
</svg>
