<svg width="471" height="454" viewBox="0 0 471 454" fill="none" xmlns="http://www.w3.org/2000/svg">
<g clip-path="url(#clip0_3_573)">
<path d="M27.1326 237.207C-22.0433 269.759 15.5422 317.782 12.1935 373.269C8.84483 428.762 48.2542 440.402 48.2542 440.402L441.705 439.135C464.058 395.695 461.572 344.672 444.48 289.067C430.188 242.568 377.159 171.416 291.883 219.058C260.98 236.321 212.074 226.705 194.86 184.751C194.86 184.751 181.828 124.643 136.874 115.402C100.176 107.863 64.5219 135.902 59.0454 167.171C53.564 198.441 58.6973 219.815 27.1375 237.201" fill="#7775B7"/>
<path d="M452.737 289.426C457.762 297.111 466.945 296.097 470.054 287.333C471.078 284.436 471.397 280.77 470.367 276.139C466.445 258.5 454.644 253.069 446.927 263.899C442.161 270.58 447.76 281.811 452.742 289.426H452.737Z" fill="#7775B7"/>
<path d="M457.978 223.823L458.056 216.67L451.933 216.589C451.643 214.888 451.094 213.241 450.305 211.695L454.57 207.134L450.006 202.014L445.922 206.377C444.274 205.116 442.446 204.258 440.548 203.818L440.622 197.115L434.086 197.029L434.008 203.936C432.728 204.274 431.483 204.805 430.306 205.524L426.139 200.85L421.461 205.846L425.447 210.316C424.295 212.119 423.511 214.121 423.109 216.198L417.755 216.128L417.676 223.281L423.217 223.356C423.614 225.143 424.285 226.871 425.246 228.454L421.162 232.817L425.727 237.937L429.997 233.375C431.62 234.427 433.38 235.108 435.199 235.42L435.126 242.16L441.661 242.246L441.744 234.937C443.103 234.491 444.412 233.826 445.628 232.935L449.614 237.405L454.291 232.409L450.124 227.735C450.81 226.469 451.325 225.116 451.663 223.727L457.973 223.812L457.978 223.823ZM441.676 224.242C439.313 226.769 435.513 226.716 433.204 224.129C430.894 221.542 430.943 217.384 433.307 214.856C435.67 212.329 439.47 212.382 441.779 214.969C444.088 217.555 444.039 221.714 441.676 224.242Z" fill="#7775B7"/>
<path d="M452.658 169.242L452.702 165.336L449.359 165.293C449.202 164.364 448.898 163.463 448.466 162.615L450.8 160.125L448.304 157.329L446.074 159.712C445.176 159.02 444.176 158.553 443.137 158.311L443.176 154.646L439.607 154.598L439.568 158.37C438.866 158.558 438.19 158.843 437.548 159.24L435.273 156.685L432.718 159.417L434.895 161.858C434.263 162.84 433.836 163.935 433.615 165.073L430.688 165.035L430.644 168.942L433.674 168.98C433.89 169.956 434.258 170.901 434.782 171.765L432.552 174.147L435.047 176.943L437.381 174.453C438.268 175.027 439.229 175.398 440.225 175.569L440.185 179.256L443.755 179.304L443.799 175.312C444.539 175.07 445.255 174.705 445.922 174.217L448.099 176.659L450.653 173.927L448.378 171.373C448.756 170.681 449.035 169.945 449.221 169.183L452.668 169.232L452.658 169.242ZM443.75 169.473C442.46 170.852 440.381 170.826 439.121 169.414C437.861 168.003 437.886 165.728 439.175 164.348C440.47 162.969 442.544 162.996 443.804 164.407C445.064 165.824 445.039 168.094 443.75 169.473Z" fill="#7775B7"/>
<path d="M46.4695 188.137L47.7296 181.118L41.7235 179.83C41.7235 178.102 41.449 176.369 40.9293 174.695L45.8812 171.056L42.2383 165.121L37.5022 168.604C36.0901 167.037 34.433 165.829 32.6385 165.025L33.8201 158.445L27.4071 157.066L26.1912 163.844C24.8772 163.924 23.5682 164.198 22.2885 164.676L18.9644 159.256L13.5418 163.243L16.7238 168.427C15.2921 169.972 14.189 171.786 13.4535 173.75L8.20254 172.623L6.9425 179.642L12.3798 180.812C12.473 182.647 12.8505 184.483 13.5369 186.227L8.79579 189.71L12.4386 195.645L17.3905 192.006C18.8124 193.359 20.4352 194.378 22.1659 195.044L20.9794 201.66L27.3924 203.039L28.677 195.865C30.089 195.693 31.4863 195.296 32.8297 194.668L36.0117 199.857L41.4343 195.87L38.1101 190.45C38.9975 189.339 39.7232 188.116 40.287 186.812L46.4793 188.143L46.4695 188.137ZM30.3636 185.325C27.6229 187.343 23.8918 186.538 22.0532 183.538C20.2097 180.539 20.9451 176.455 23.6858 174.442C26.4265 172.425 30.1576 173.23 31.9962 176.229C33.8397 179.229 33.1043 183.313 30.3636 185.325Z" fill="#7775B7"/>
<path d="M53.3287 135.193L54.0151 131.356L50.7301 130.653C50.7301 129.709 50.5831 128.764 50.2938 127.847L53.0002 125.856L51.0096 122.609L48.4209 124.514C47.6511 123.656 46.7441 123.001 45.7635 122.556L46.4107 118.96L42.9051 118.209L42.2433 121.912C41.5225 121.955 40.8067 122.105 40.1105 122.368L38.2915 119.406L35.3253 121.584L37.0658 124.418C36.2814 125.26 35.6832 126.253 35.2763 127.326L32.4081 126.709L31.7217 130.546L34.6928 131.185C34.7419 132.188 34.9478 133.192 35.3253 134.147L32.7366 136.052L34.7271 139.298L37.4335 137.308C38.2082 138.048 39.0956 138.606 40.0419 138.966L39.3947 142.583L42.9002 143.334L43.6014 139.417C44.3711 139.325 45.136 139.105 45.8714 138.762L47.6119 141.595L50.5782 139.417L48.7592 136.454C49.2446 135.848 49.6417 135.177 49.9506 134.463L53.3336 135.193H53.3287ZM44.528 133.659C43.0277 134.759 40.993 134.324 39.983 132.682C38.9779 131.04 39.3751 128.813 40.8754 127.707C42.3756 126.607 44.4103 127.042 45.4203 128.684C46.4254 130.326 46.0283 132.553 44.528 133.659Z" fill="#7775B7"/>
<path opacity="0.06" d="M469.46 443.884C469.46 449.471 365.5 454 237.255 454C109.011 454 5.04993 449.471 5.04993 443.884C5.04993 438.298 109.011 433.769 237.255 433.769C365.5 433.769 469.46 438.298 469.46 443.884Z" fill="black"/>
<path d="M366.181 283.394C367.887 298.796 355.272 304.291 359.93 315.238C364.588 326.185 361.568 337.61 352.022 339.735C342.476 341.86 335.342 342.837 335.725 355.748C336.107 368.66 325.581 380.208 317.099 373.903C314.985 372.336 312.701 370.634 310.465 368.96C309.852 368.504 309.244 368.048 308.646 367.603C308.509 367.501 308.366 367.399 308.229 367.291C299.228 360.567 296.124 347.463 301.292 336.961C303.385 332.711 306.577 329.362 311.441 328.702C326.674 326.631 315.907 314.074 321.457 303.958C327.851 292.308 339.054 296.73 342.956 287.537C348.384 274.749 364.475 267.988 366.181 283.394Z" fill="#5C4EA0"/>
<path d="M352.404 296.95L310.465 368.955C309.852 368.499 309.244 368.043 308.646 367.597L350.546 295.657C350.874 295.093 351.556 294.927 352.066 295.286C352.581 295.646 352.733 296.392 352.404 296.95Z" fill="white"/>
<path d="M390.46 343.095C386.131 359.022 371.599 358.528 371.908 371.461C372.217 384.388 364.794 394.209 354.591 391.837C344.383 389.465 336.994 387.098 332.342 399.961C327.689 412.824 312.843 419.253 306.969 409.1C305.503 406.573 303.925 403.836 302.38 401.147C301.958 400.412 301.537 399.682 301.12 398.963C301.022 398.797 300.924 398.63 300.831 398.464C294.609 387.656 296.663 373.328 305.837 365.429C309.548 362.231 313.99 360.433 319.025 362.054C334.798 367.13 329.116 349.765 338.509 342.424C349.33 333.961 358.616 343.54 366.029 336.328C376.345 326.303 394.79 327.173 390.46 343.1V343.095Z" fill="#6760A0"/>
<path d="M371.648 349.98L302.38 401.142C301.959 400.407 301.537 399.677 301.12 398.958L370.329 347.844C370.868 347.447 371.604 347.602 371.967 348.193C372.33 348.783 372.187 349.588 371.648 349.985V349.98Z" fill="white"/>
<path d="M158.427 236.327C157.431 248.664 167.624 252.683 164.168 261.548C160.711 270.413 163.393 279.44 171.052 280.867C178.715 282.289 184.427 282.869 184.427 293.177C184.427 303.486 193.095 312.399 199.709 307.13C201.356 305.82 203.141 304.398 204.881 302.998C205.357 302.617 205.833 302.236 206.298 301.86C206.406 301.774 206.514 301.688 206.622 301.602C213.643 295.984 215.81 285.444 211.442 277.212C209.672 273.88 207.044 271.304 203.151 270.912C190.952 269.689 199.243 259.37 194.576 251.46C189.202 242.348 180.367 246.19 177.038 238.967C172.405 228.921 159.412 223.984 158.417 236.316L158.427 236.327Z" fill="#5C4EA0"/>
<path d="M169.733 246.748L204.886 303.003C205.362 302.622 205.838 302.241 206.303 301.865L171.184 245.664C170.909 245.224 170.365 245.111 169.963 245.412C169.561 245.712 169.458 246.308 169.733 246.748Z" fill="white"/>
<path d="M131.966 272.839C135.927 287.414 149.224 286.958 148.94 298.79C148.655 310.618 155.451 319.601 164.781 317.433C174.116 315.265 180.877 313.097 185.138 324.865C189.393 336.634 202.974 342.515 208.353 333.226C209.691 330.913 211.138 328.407 212.554 325.949C212.942 325.279 213.324 324.608 213.707 323.948C213.795 323.797 213.883 323.642 213.971 323.492C219.664 313.601 217.781 300.497 209.392 293.268C205.994 290.344 201.93 288.696 197.326 290.183C182.897 294.825 188.099 278.94 179.499 272.222C169.6 264.478 161.104 273.241 154.323 266.646C144.885 257.475 128.009 258.269 131.971 272.839H131.966Z" fill="#6760A0"/>
<path d="M149.18 279.139L212.555 325.944C212.942 325.273 213.324 324.602 213.707 323.942L150.391 277.175C149.896 276.81 149.224 276.95 148.891 277.492C148.557 278.034 148.685 278.769 149.18 279.134V279.139Z" fill="white"/>
<path d="M91.3014 97.2642C95.3855 110.267 107.383 109.306 107.54 120.007C107.697 130.707 114.144 138.536 122.503 136.191C130.863 133.841 136.898 131.603 141.154 142.057C145.41 152.51 157.882 157.265 162.418 148.647C163.55 146.5 164.766 144.176 165.962 141.896C166.286 141.273 166.615 140.651 166.933 140.039C167.007 139.9 167.085 139.755 167.154 139.615C171.954 130.444 169.801 118.681 161.967 112.499C158.794 109.998 155.068 108.678 150.955 110.213C138.08 115.011 142.228 100.441 134.226 94.726C125.014 88.1415 117.64 96.411 111.286 90.7335C102.441 82.8396 87.2222 84.2563 91.3063 97.2589L91.3014 97.2642Z" fill="#5C4EA0"/>
<path d="M107.074 102.239L165.957 141.896C166.281 141.273 166.61 140.651 166.928 140.039L108.099 100.42C107.638 100.108 107.04 100.264 106.755 100.768C106.471 101.273 106.613 101.928 107.074 102.239Z" fill="white"/>
<path d="M107.721 30.443C105.99 46.0697 118.787 51.6399 114.065 62.7428C109.339 73.8457 112.408 85.4369 122.087 87.5942C131.77 89.7461 139.006 90.7388 138.619 103.838C138.227 116.932 148.91 128.646 157.51 122.25C159.652 120.661 161.972 118.933 164.237 117.238C164.854 116.776 165.477 116.315 166.08 115.858C166.222 115.757 166.364 115.649 166.502 115.542C175.631 108.721 178.783 95.429 173.537 84.7769C171.414 80.4677 168.174 77.0708 163.241 76.4001C147.792 74.2965 158.711 61.5622 153.083 51.3019C146.596 39.4799 135.231 43.9715 131.275 34.6449C125.769 21.6745 109.447 14.8164 107.716 30.4377L107.721 30.443Z" fill="#5C4EA0"/>
<path d="M121.694 44.1969L164.237 117.243C164.854 116.781 165.477 116.32 166.08 115.864L123.582 42.8821C123.249 42.3133 122.562 42.1469 122.038 42.5065C121.518 42.8714 121.366 43.6227 121.694 44.1969Z" fill="white"/>
<path d="M351.232 53.4216C366.961 44.2613 380.311 32.4125 371.869 27.014C363.421 21.6101 340.799 42.4743 331.464 65.265L326.595 72.1875C333.665 55.713 334.18 32.9115 326.527 29.3859C318.922 25.8817 319.839 41.0898 322.796 54.8329C325.046 65.2918 324.325 72.7027 323.619 76.4215L300.625 109.108C311.749 82.9792 312.529 46.9927 300.424 41.4118C288.358 35.8523 289.814 59.9845 294.501 81.7878C298.041 98.2624 296.948 109.977 295.835 115.918L291.251 122.432C292.158 123.479 293.07 124.52 293.991 125.555L321.349 86.6712C324.904 85.2813 330.101 83.9075 336.999 83.7036C349.889 83.3172 363.563 80.4033 358.523 73.25C354.15 67.0466 338.671 70.9264 326.316 79.6091L335.779 66.1612C339.353 62.5496 344.452 57.3765 351.237 53.4269L351.232 53.4216Z" fill="#5C4EA0"/>
<path d="M148.302 119.819H143.306V410.383H148.302V119.819Z" fill="#353390"/>
<path d="M331.185 119.819H326.188V410.383H331.185V119.819Z" fill="#353390"/>
<path d="M333.411 407.238H141.125C137.732 407.238 134.981 410.248 134.981 413.962V430.683C134.981 434.397 137.732 437.407 141.125 437.407H333.411C336.803 437.407 339.554 434.397 339.554 430.683V413.962C339.554 410.248 336.803 407.238 333.411 407.238Z" fill="#2C2B7E"/>
<path d="M339.529 422.323H134.957C134.957 418.158 136.496 414.391 138.997 411.66C141.487 408.928 144.934 407.238 148.739 407.238H325.747C333.361 407.238 339.529 413.994 339.529 422.323Z" fill="#353390"/>
<path d="M320.413 407.238H154.078C154.078 407.238 150.768 320.76 193.222 284.672L193.232 284.661C193.571 284.253 203.19 272.576 203.19 266.759C203.19 260.942 190.408 246.871 189.609 245.997L189.57 245.954C150.96 208.164 154.078 126.725 154.078 126.725H320.413C320.413 126.725 323.57 209.345 284.068 246.769C281.239 249.962 271.183 261.666 271.183 266.759C271.183 272.109 279.317 282.412 280.891 284.355C323.737 320.25 320.413 407.238 320.413 407.238Z" fill="white"/>
<path d="M233.514 271.025C233.514 271.025 235.461 254.679 210.574 239.997C197.336 232.184 173.89 203.399 170.968 166.806C170.968 166.806 206.029 159.46 239.138 182.202C277.724 208.701 296.757 174.566 304.709 155.199C304.709 155.199 308.832 201.387 281.768 226.496C266.016 241.108 241.428 250.655 240.996 271.025C240.996 271.025 245.218 333.913 259.823 357.482C272.546 378.018 287.309 380.106 298.992 390.763C304.533 395.813 307.376 402.065 308.827 407.243H165.678C167.134 402.065 169.973 395.819 175.513 390.763C187.202 380.106 201.955 378.018 214.682 357.482C229.288 333.913 233.509 271.025 233.509 271.025H233.514Z" fill="#FAB317"/>
<path d="M301.154 163.082C291.643 182.213 272.855 205.358 239.138 182.202C206.029 159.465 170.968 166.806 170.968 166.806C170.968 166.806 178.112 160.351 194.34 160.705C221.88 161.311 235.676 172.65 247.576 180.066C260.397 188.062 287.113 187.558 301.15 163.082H301.154Z" fill="#F8A71B"/>
<path d="M339.529 111.64C339.529 115.81 337.99 119.577 335.489 122.309C332.994 125.04 329.547 126.731 325.742 126.731H148.739C141.129 126.731 134.957 119.974 134.957 111.646C134.957 107.482 136.496 103.714 138.997 100.983C141.487 98.2515 144.934 96.5612 148.739 96.5612H325.747C333.361 96.5612 339.529 103.317 339.529 111.646V111.64Z" fill="#2C2B7E"/>
<path d="M339.529 111.641H134.957C134.957 107.476 136.496 103.709 138.997 100.978C141.487 98.2463 144.934 96.5559 148.739 96.5559H325.747C333.361 96.5559 339.529 103.312 339.529 111.641Z" fill="#353390"/>
<path d="M48.2101 444.963H23.3231C19.9401 444.963 16.9395 442.13 15.8952 437.944L5.34424 395.706C4.91279 393.978 5.83943 392.18 7.23185 392.041C26.4462 390.103 45.4694 390.103 64.3063 392.041C65.6987 392.186 66.6204 393.978 66.189 395.706L55.6331 437.949C54.5888 442.135 51.5882 444.968 48.2052 444.968L48.2101 444.963Z" fill="#FAB317"/>
<path d="M63.9826 395.11C63.9826 396.232 51.4263 397.144 35.9381 397.144C20.45 397.144 7.89368 396.232 7.89368 395.11C7.89368 393.989 20.45 393.076 35.9381 393.076C51.4263 393.076 63.9826 393.989 63.9826 395.11Z" fill="#1B1750"/>
<path d="M67.6989 338.023C57.6088 335.115 42.1892 358.04 37.5021 380.396V347.828C39.8554 343.261 44.3465 336.387 52.4951 329.121C65.169 317.825 76.833 303.325 66.7232 300.411C57.2509 297.68 43.0766 317.723 37.507 338.678V296.853C39.1396 294.079 41.8166 290.44 46.0919 286.625C54.0787 279.504 61.4281 270.37 55.0593 268.53C49.5288 266.936 41.4636 277.647 37.507 289.732V276.177C38.159 271.986 39.0857 265.997 41.6205 259.874C47.4941 245.685 50.6663 231.068 42.9246 232.157C35.1732 233.246 30.1477 258.511 34.3838 277.91V284.886C31.5205 270.692 21.6952 255.989 15.2822 257.84C8.90846 259.675 16.2628 268.814 24.2496 275.935C30.3291 281.355 33.1728 286.426 34.3838 289.158V322.107C29.7898 299.644 14.2624 276.456 4.11835 279.38C-5.99139 282.294 5.67256 296.794 18.3465 308.09C27.9218 316.628 32.4423 324.624 34.3887 328.976V368.483C29.4809 346.427 14.3458 324.173 4.39781 327.039C-5.71193 329.953 2.95637 340.546 17.1992 353.36C26.8775 362.07 32.0599 371.257 34.3887 376.253V394.863C35.5164 395.207 36.5754 395.207 37.5119 394.863V387.458C39.4926 383.074 44.018 375.164 53.4805 366.733C66.1545 355.437 77.8184 340.937 67.7087 338.023H67.6989Z" fill="#5C4EA0"/>
<path d="M382.586 74.8546C382.586 71.3396 385.2 68.4794 388.411 68.4794C391.622 68.4794 394.236 71.3396 394.236 74.8546C394.236 78.3695 391.622 81.2297 388.411 81.2297C385.2 81.2297 382.586 78.3695 382.586 74.8546ZM384.415 74.8546C384.415 77.2694 386.21 79.2335 388.416 79.2335C390.622 79.2335 392.417 77.2694 392.417 74.8546C392.417 72.4397 390.622 70.4757 388.416 70.4757C386.21 70.4757 384.415 72.4397 384.415 74.8546Z" fill="#5C4EA0"/>
<path d="M361.612 97.2267C361.612 93.7118 364.225 90.8515 367.436 90.8515C370.648 90.8515 373.261 93.7118 373.261 97.2267C373.261 100.742 370.648 103.602 367.436 103.602C364.225 103.602 361.612 100.742 361.612 97.2267ZM363.441 97.2267C363.441 99.6415 365.235 101.606 367.441 101.606C369.648 101.606 371.442 99.6415 371.442 97.2267C371.442 94.8118 369.648 92.8478 367.441 92.8478C365.235 92.8478 363.441 94.8118 363.441 97.2267Z" fill="#FAB317"/>
<path d="M360.239 124.327C360.744 124.327 361.151 123.881 361.151 123.328V118.917C361.151 118.365 360.744 117.919 360.239 117.919C359.734 117.919 359.327 118.365 359.327 118.917V123.328C359.327 123.881 359.734 124.327 360.239 124.327Z" fill="#5C4EA0"/>
<path d="M360.239 132.049C360.744 132.049 361.151 131.603 361.151 131.05V126.639C361.151 126.087 360.744 125.641 360.239 125.641C359.734 125.641 359.327 126.087 359.327 126.639V131.05C359.327 131.603 359.734 132.049 360.239 132.049Z" fill="#5C4EA0"/>
<path d="M354.581 125.979H358.199C358.704 125.979 359.111 125.534 359.111 124.981C359.111 124.428 358.704 123.983 358.199 123.983H354.581C354.076 123.983 353.669 124.428 353.669 124.981C353.669 125.534 354.076 125.979 354.581 125.979Z" fill="#5C4EA0"/>
<path d="M362.279 125.979H365.897C366.402 125.979 366.809 125.534 366.809 124.981C366.809 124.428 366.397 123.983 365.897 123.983H362.279C361.774 123.983 361.367 124.428 361.367 124.981C361.367 125.534 361.774 125.979 362.279 125.979Z" fill="#5C4EA0"/>
<path d="M392.412 99.6093C392.917 99.6093 393.324 99.1639 393.324 98.6112V94.2001C393.324 93.6474 392.917 93.202 392.412 93.202C391.907 93.202 391.5 93.6474 391.5 94.2001V98.6112C391.5 99.1639 391.907 99.6093 392.412 99.6093Z" fill="#FAB317"/>
<path d="M392.412 107.326C392.917 107.326 393.324 106.881 393.324 106.328V101.917C393.324 101.364 392.917 100.919 392.412 100.919C391.907 100.919 391.5 101.364 391.5 101.917V106.328C391.5 106.881 391.907 107.326 392.412 107.326Z" fill="#FAB317"/>
<path d="M386.754 101.262H390.372C390.877 101.262 391.284 100.817 391.284 100.264C391.284 99.7113 390.877 99.2659 390.372 99.2659H386.754C386.249 99.2659 385.842 99.7113 385.842 100.264C385.842 100.817 386.249 101.262 386.754 101.262Z" fill="#FAB317"/>
<path d="M394.451 101.262H398.07C398.575 101.262 398.982 100.817 398.982 100.264C398.982 99.7113 398.575 99.2659 398.07 99.2659H394.451C393.946 99.2659 393.539 99.7113 393.539 100.264C393.539 100.817 393.946 101.262 394.451 101.262Z" fill="#FAB317"/>
<path d="M67.9 47.5991C67.9 44.0842 70.5133 41.2239 73.7246 41.2239C76.936 41.2239 79.5493 44.0842 79.5493 47.5991C79.5493 51.114 76.936 53.9743 73.7246 53.9743C70.5133 53.9743 67.9 51.114 67.9 47.5991ZM77.7254 47.5991C77.7254 45.1843 75.9309 43.2202 73.7246 43.2202C71.5183 43.2202 69.7239 45.1843 69.7239 47.5991C69.7239 50.0139 71.5183 51.978 73.7246 51.978C75.9309 51.978 77.7254 50.0139 77.7254 47.5991Z" fill="#5C4EA0"/>
<path d="M54.0199 73.7759C54.0199 70.261 56.6331 67.4008 59.8445 67.4008C63.0559 67.4008 65.6691 70.261 65.6691 73.7759C65.6691 77.2909 63.0559 80.1511 59.8445 80.1511C56.6331 80.1511 54.0199 77.2909 54.0199 73.7759ZM63.8453 73.7759C63.8453 71.3611 62.0508 69.397 59.8445 69.397C57.6382 69.397 55.8438 71.3611 55.8438 73.7759C55.8438 76.1908 57.6382 78.1548 59.8445 78.1548C62.0508 78.1548 63.8453 76.1908 63.8453 73.7759Z" fill="#FAB317"/>
<path d="M35.4528 84.6695C35.4528 84.1168 35.8597 83.6714 36.3647 83.6714H40.3949C40.8999 83.6714 41.3068 84.1168 41.3068 84.6695C41.3068 85.2223 40.8999 85.6677 40.3949 85.6677H36.3647C35.8597 85.6677 35.4528 85.2223 35.4528 84.6695Z" fill="#5C4EA0"/>
<path d="M28.3975 84.6695C28.3975 84.1168 28.8044 83.6714 29.3094 83.6714H33.3396C33.8446 83.6714 34.2515 84.1168 34.2515 84.6695C34.2515 85.2223 33.8446 85.6677 33.3396 85.6677H29.3094C28.8044 85.6677 28.3975 85.2223 28.3975 84.6695Z" fill="#5C4EA0"/>
<path d="M33.9377 90.8623V86.9019C33.9377 86.3492 34.3447 85.9038 34.8497 85.9038C35.3547 85.9038 35.7616 86.3492 35.7616 86.9019V90.8623C35.7616 91.415 35.3547 91.8604 34.8497 91.8604C34.3447 91.8604 33.9377 91.415 33.9377 90.8623Z" fill="#5C4EA0"/>
<path d="M33.9377 82.4425V78.4822C33.9377 77.9295 34.3447 77.4841 34.8497 77.4841C35.3547 77.4841 35.7616 77.9295 35.7616 78.4822V82.4425C35.7616 82.9953 35.3547 83.4407 34.8497 83.4407C34.3447 83.4407 33.9377 82.9953 33.9377 82.4425Z" fill="#5C4EA0"/>
<path d="M90.1982 67.4008C90.1982 66.848 90.6052 66.4026 91.1102 66.4026H95.1403C95.6453 66.4026 96.0523 66.848 96.0523 67.4008C96.0523 67.9535 95.6453 68.3989 95.1403 68.3989H91.1102C90.6052 68.3989 90.1982 67.9535 90.1982 67.4008Z" fill="#FAB317"/>
<path d="M83.1479 67.4008C83.1479 66.848 83.5549 66.4026 84.0599 66.4026H88.0901C88.595 66.4026 89.002 66.848 89.002 67.4008C89.002 67.9535 88.595 68.3989 88.0901 68.3989H84.0599C83.5549 68.3989 83.1479 67.9535 83.1479 67.4008Z" fill="#FAB317"/>
<path d="M88.6882 73.5935V69.6331C88.6882 69.0804 89.0952 68.635 89.6002 68.635C90.1052 68.635 90.5121 69.0804 90.5121 69.6331V73.5935C90.5121 74.1462 90.1052 74.5916 89.6002 74.5916C89.0952 74.5916 88.6882 74.1462 88.6882 73.5935Z" fill="#FAB317"/>
<path d="M88.6882 65.1684V61.208C88.6882 60.6553 89.0952 60.2099 89.6002 60.2099C90.1052 60.2099 90.5121 60.6553 90.5121 61.208V65.1684C90.5121 65.7211 90.1052 66.1665 89.6002 66.1665C89.0952 66.1665 88.6882 65.7211 88.6882 65.1684Z" fill="#FAB317"/>
<path d="M368.638 421.496V430.238L375.943 430.115L376.424 420.847L368.638 421.496Z" fill="#F8A794"/>
<path d="M369.913 429.428C369.913 429.428 368.079 426.793 366.647 426.927C365.216 427.061 354.248 436.828 350.468 437.67C346.688 438.513 347.452 441.561 348.163 443.112C348.874 444.663 378.189 442.699 378.189 442.699C378.189 442.699 379.105 432.508 378.11 429.573C377.115 426.643 372.884 430.088 369.913 429.428Z" fill="#5C4EA0"/>
<path d="M363.867 436.221C364 436.264 364.152 436.248 364.284 436.162C364.539 436.001 364.623 435.647 364.475 435.368C364.426 435.277 363.245 433.088 361.676 432.25C359.592 431.129 357.989 432.433 357.92 432.492C357.685 432.685 357.641 433.05 357.817 433.308C357.994 433.565 358.327 433.613 358.563 433.42C358.607 433.383 359.725 432.508 361.21 433.302C362.485 433.989 363.549 435.942 363.559 435.964C363.632 436.098 363.745 436.189 363.872 436.227L363.867 436.221Z" fill="white"/>
<path d="M365.431 434.569C365.564 434.612 365.716 434.595 365.848 434.51C366.103 434.349 366.187 433.989 366.039 433.715C365.99 433.624 364.809 431.435 363.24 430.598C361.151 429.476 359.553 430.78 359.484 430.839C359.249 431.032 359.205 431.397 359.381 431.655C359.558 431.912 359.891 431.961 360.127 431.767C360.171 431.73 361.289 430.855 362.774 431.649C364.059 432.336 365.113 434.29 365.123 434.311C365.196 434.445 365.309 434.536 365.436 434.574L365.431 434.569Z" fill="white"/>
<path d="M361.735 437.579C361.867 437.622 362.019 437.606 362.151 437.52C362.406 437.359 362.49 437 362.343 436.726C362.294 436.635 361.112 434.445 359.543 433.608C357.454 432.486 355.856 433.791 355.787 433.844C355.552 434.037 355.508 434.402 355.685 434.66C355.861 434.917 356.194 434.966 356.43 434.773C356.474 434.735 357.592 433.86 359.077 434.654C360.362 435.341 361.416 437.295 361.426 437.316C361.499 437.45 361.612 437.542 361.74 437.579H361.735Z" fill="white"/>
<path d="M385.979 275.039C385.793 278.431 385.582 282.251 385.352 286.357C385.308 287.108 385.269 287.87 385.224 288.643C385.2 289.099 385.175 289.555 385.146 290.016C383.67 316.295 381.582 351.928 380.503 363.331C378.316 386.503 378.203 421.625 378.203 421.625H366.554C365.456 396.683 363.549 326.77 362.593 290.328C362.563 289.179 362.534 288.058 362.504 286.974C362.382 282.241 362.274 278.195 362.196 275.039H385.979Z" fill="#FAB317"/>
<path d="M385.979 275.039C385.793 278.431 385.582 282.251 385.352 286.357C385.268 286.367 385.18 286.378 385.097 286.383C378.262 287.156 370.673 287.468 362.504 286.974C362.382 282.241 362.274 278.195 362.196 275.039H385.979Z" fill="#F8A71B"/>
<path d="M381.013 275.039C379.934 298.849 378.238 333.854 376.943 348.429C375.61 363.487 374.32 405.022 373.84 421.63H375.36C375.84 405 377.13 363.589 378.453 348.59C379.748 333.972 381.454 298.866 382.533 275.044H381.013V275.039Z" fill="#F8A71B"/>
<path d="M365.27 417.026L365.794 422.859H379.762L380.184 417.026H365.27Z" fill="#F8A71B"/>
<path d="M393.824 420.96L394.123 429.701L401.419 429.272L401.58 419.994L393.824 420.96Z" fill="#F8A794"/>
<path d="M397.413 427.34C397.413 427.34 401.306 426.406 402.37 426.482C403.434 426.557 410.205 435.626 412.582 436.259C416.897 437.402 416.598 444.84 413.936 445.081C406.233 445.773 393.275 441.593 393.275 441.593C393.275 441.593 392.456 431.993 393.103 429.025C393.75 426.058 395.241 428.124 397.413 427.346V427.34Z" fill="#5C4EA0"/>
<path d="M403.419 435.797C403.282 435.824 403.134 435.792 403.012 435.69C402.777 435.497 402.727 435.137 402.899 434.88C402.958 434.794 404.345 432.755 405.983 432.105C408.165 431.236 409.631 432.717 409.694 432.782C409.91 433.002 409.915 433.372 409.714 433.603C409.513 433.833 409.175 433.844 408.964 433.624C408.925 433.587 407.9 432.578 406.346 433.195C405.007 433.726 403.767 435.551 403.752 435.567C403.669 435.69 403.546 435.771 403.419 435.792V435.797Z" fill="white"/>
<path d="M402.026 433.968C401.889 433.994 401.742 433.962 401.62 433.86C401.384 433.667 401.335 433.308 401.507 433.05C401.566 432.964 402.953 430.925 404.591 430.276C406.772 429.406 408.238 430.887 408.302 430.952C408.513 431.172 408.523 431.542 408.322 431.773C408.121 432.009 407.782 432.014 407.572 431.794C407.532 431.757 406.508 430.748 404.953 431.365C403.61 431.902 402.375 433.721 402.36 433.737C402.276 433.86 402.154 433.941 402.022 433.962L402.026 433.968Z" fill="white"/>
<path d="M405.41 437.391C405.272 437.418 405.125 437.386 405.003 437.284C404.767 437.091 404.718 436.731 404.89 436.468C404.949 436.382 406.336 434.349 407.974 433.694C410.155 432.825 411.621 434.306 411.685 434.37C411.896 434.59 411.906 434.96 411.705 435.191C411.504 435.422 411.165 435.433 410.955 435.213C410.915 435.175 409.891 434.166 408.337 434.783C406.993 435.32 405.758 437.139 405.743 437.155C405.66 437.279 405.537 437.359 405.405 437.381L405.41 437.391Z" fill="white"/>
<path d="M408.253 275.039C408.204 276.944 408.145 279.171 408.082 281.677C408.077 281.87 408.072 282.058 408.067 282.251C407.204 315.281 405.081 394.686 403.894 421.625H392.245C392.245 421.625 392.132 386.508 389.946 363.331C388.867 351.922 386.779 316.268 385.303 289.99C385.278 289.539 385.254 289.088 385.224 288.648C385.18 287.886 385.141 287.135 385.097 286.389C384.866 282.267 384.656 278.441 384.469 275.039H408.253Z" fill="#FAB317"/>
<path d="M408.253 275.039C408.204 276.944 408.145 279.171 408.081 281.677C402.281 283.432 394.819 285.224 386.077 286.271C386.013 286.281 385.945 286.287 385.881 286.298C385.704 286.319 385.533 286.34 385.356 286.362C385.273 286.373 385.185 286.383 385.101 286.389C384.871 282.267 384.66 278.441 384.474 275.039H408.258H408.253Z" fill="#F8A71B"/>
<path d="M389.436 275.039H387.916C388.995 298.866 390.701 333.967 391.995 348.584C393.319 363.583 394.608 404.995 395.089 421.625H396.609C396.128 405.016 394.839 363.487 393.505 348.423C392.216 333.848 390.515 298.844 389.436 275.034V275.039Z" fill="#F8A71B"/>
<path d="M405.179 417.026L404.654 422.859H390.681L390.26 417.026H405.179Z" fill="#F8A71B"/>
<path d="M371.383 208.637C364.157 220.249 344.614 230.381 344.614 230.381C337.431 228.712 332.876 226.351 328.356 223.625C329.694 220.115 330.273 216.546 331.018 211.915C337.691 213.949 343.457 215.033 343.457 215.033C357.543 207.885 374.085 171.845 374.085 171.845C378.645 182.116 371.383 208.637 371.383 208.637Z" fill="#5A3B97"/>
<path d="M417.451 200.673C411.592 206.367 401.183 201.311 395.702 201.113C385.896 200.759 388.999 200.914 380.419 202.54C371.839 204.172 375.041 172.731 374.458 161.118C374.09 153.836 371.452 144.67 371.452 140.984V140.935C371.408 140.323 371.383 139.712 371.379 139.111C371.315 130.272 376.291 114.125 393.804 116.69C393.804 116.69 408.336 118.504 409.989 134.05C409.989 134.05 410.675 141.22 411.136 146.414C412.435 161.118 417.387 153.455 415.799 171.373C415.274 177.303 424.295 194.019 417.446 200.673H417.451Z" fill="#12122D"/>
<path d="M362.318 277.674C376.61 289.206 409.675 278.28 409.675 278.28C413.396 273.3 408.228 261.924 406.713 248.599C405.434 237.384 406.91 222.17 408.797 210.917C409.15 208.814 409.518 206.844 409.886 205.063C412.21 193.799 412.44 174.979 412.44 174.979C410.646 173.97 407.753 172.618 404.821 171.314C402.997 170.504 401.159 169.709 399.55 169.028C396.702 167.815 394.579 166.956 394.579 166.956L382.787 168.937L380.463 169.715L376.629 170.997L374.08 171.85C374.08 171.85 372.271 184.59 370.545 192.328C370.069 194.448 369.604 196.192 369.182 197.201C367.216 201.875 367.701 204.14 369.77 210.327C370.261 211.792 370.579 213.348 370.751 215.044C370.795 215.462 370.829 215.897 370.854 216.332C371.158 221.559 370.216 228.046 368.667 236.826C366.858 247.07 362.436 266.839 360.916 273.553C360.563 275.114 361.136 276.719 362.318 277.674Z" fill="#5C4EA0"/>
<path d="M370.746 215.039C370.79 215.457 370.824 215.892 370.849 216.326C376.718 221.762 386.832 229.179 398.369 229.179C398.594 229.179 398.781 228.975 398.781 228.728C398.781 228.481 398.594 228.277 398.369 228.277C386.646 228.277 376.394 220.426 370.741 215.039H370.746Z" fill="#453C98"/>
<path d="M382.616 194.346C388.48 194.346 393.888 187.525 394.118 187.225C394.265 187.037 394.245 186.747 394.074 186.586C393.902 186.425 393.638 186.447 393.49 186.635C393.432 186.704 387.769 193.847 382.111 193.418C381.885 193.402 381.684 193.589 381.67 193.836C381.655 194.083 381.826 194.303 382.052 194.319C382.238 194.335 382.43 194.341 382.616 194.341V194.346Z" fill="#453C98"/>
<path d="M396.319 259.251C396.525 259.251 396.707 259.08 396.731 258.849C396.756 258.602 396.594 258.377 396.368 258.35C381.228 256.445 374.952 227.757 374.894 227.467C374.84 227.225 374.619 227.07 374.398 227.129C374.178 227.188 374.036 227.429 374.09 227.671C374.345 228.878 380.561 257.271 396.275 259.251C396.29 259.251 396.309 259.251 396.324 259.251H396.319Z" fill="#453C98"/>
<path d="M390.289 250.569C390.426 250.569 390.563 250.494 390.642 250.354C390.759 250.139 390.701 249.86 390.509 249.732C382.454 244.296 381.258 236.289 381.248 236.209C381.213 235.962 381.003 235.79 380.777 235.828C380.552 235.865 380.395 236.096 380.429 236.343C380.478 236.686 381.679 244.838 390.073 250.504C390.142 250.553 390.215 250.574 390.289 250.574V250.569Z" fill="#453C98"/>
<path d="M377.404 142.003C377.404 142.003 374.904 138.536 373.041 141.402C371.182 144.273 373.81 152.741 378.365 150.675L377.404 142.003Z" fill="#F5896D"/>
<path d="M376.325 150.09C376.325 150.595 375.953 151.002 375.492 151.002C375.031 151.002 374.658 150.595 374.658 150.09C374.658 149.586 375.031 149.178 375.492 149.178C375.953 149.178 376.325 149.586 376.325 150.09Z" fill="white"/>
<path d="M377.37 148.056C377.203 148.056 377.046 147.938 376.997 147.761C376.291 145.148 373.688 144.085 373.658 144.075C373.462 143.994 373.359 143.763 373.438 143.559C373.511 143.355 373.737 143.248 373.933 143.329C374.055 143.377 376.928 144.536 377.737 147.547C377.796 147.761 377.674 147.981 377.473 148.04C377.438 148.051 377.404 148.056 377.37 148.056Z" fill="#D65C48"/>
<path d="M374.742 146.742C374.668 146.742 374.6 146.72 374.536 146.677C374.36 146.559 374.306 146.312 374.423 146.124C374.443 146.092 374.904 145.362 375.87 144.912C376.061 144.82 376.291 144.912 376.379 145.116C376.468 145.319 376.38 145.556 376.183 145.647C375.438 145.996 375.075 146.554 375.07 146.559C374.997 146.677 374.874 146.742 374.747 146.742H374.742Z" fill="#D65C48"/>
<path d="M396.687 159.728V169.071C396.687 169.071 392.275 173.847 388.828 174.169C385.386 174.496 384.199 170.053 384.199 170.053V160.377L396.687 159.723V159.728Z" fill="#F8A794"/>
<path d="M396.687 160.748V164.896C394.378 167.702 390.274 168.695 384.204 167.713V161.402L396.687 160.748Z" fill="#F5896D"/>
<path d="M375.899 145.958C376.007 146.962 376.139 147.981 376.301 149.001C377.389 155.757 381.297 163.06 386.229 164.284C396.878 166.93 401.301 157.775 403.007 151.019C403.193 150.267 402.84 149.409 402.992 148.523C403.345 146.42 404.12 144.026 404.296 141.67C404.419 140.034 404.502 138.424 404.566 136.97C404.738 132.864 402.566 129.086 399.168 127.611C394.27 125.48 386.837 123.79 379.797 128.314C377.193 129.983 375.566 133.074 375.507 136.46C375.463 139.046 375.521 142.422 375.899 145.963V145.958Z" fill="#F8A794"/>
<path d="M388.896 151.185C389.092 151.185 389.269 151.029 389.303 150.809C389.343 150.562 389.191 150.332 388.965 150.289L387.543 150.026L389.499 144.321C389.578 144.085 389.47 143.828 389.259 143.736C389.043 143.651 388.808 143.769 388.725 143.999L386.416 150.734L388.828 151.179C388.828 151.179 388.872 151.185 388.896 151.185Z" fill="#F5896D"/>
<path d="M405.689 135.73C405.62 137.216 405.532 138.858 405.404 140.522C404.713 140.973 403.026 141.177 402.953 142.389C402.767 145.604 402.624 147.804 402.007 147.616C400.972 147.289 400.33 143.398 401.511 140.882C401.511 140.882 400.56 139.186 396.682 137.549C391.706 135.451 386.916 132.344 386.916 132.344C386.916 132.344 385.028 131.099 384.302 129.741C384.302 129.741 383.165 132.988 379.993 134.571C377.33 135.902 376.909 138.596 376.585 141.075C376.551 141.359 376.512 141.644 376.472 141.923C376.325 143.001 376.144 143.999 375.742 144.772C375.654 144.949 375.556 144.981 375.458 144.89C375.33 143.758 375.242 142.636 375.173 141.558C375.154 141.268 375.139 140.978 375.124 140.694C375.026 138.665 375.011 136.787 375.041 135.204C375.105 131.753 376.825 128.603 379.566 126.902C386.989 122.293 394.824 124.01 399.987 126.183C403.566 127.686 405.855 131.533 405.679 135.719L405.689 135.73Z" fill="#12122D"/>
<path d="M383.68 143.634C383.68 144.633 383.209 145.443 382.63 145.443C382.052 145.443 381.581 144.633 381.581 143.634C381.581 142.636 382.052 141.826 382.63 141.826C383.209 141.826 383.68 142.636 383.68 143.634Z" fill="#12122D"/>
<path d="M395.388 143.634C395.388 144.633 394.917 145.443 394.339 145.443C393.76 145.443 393.289 144.633 393.289 143.634C393.289 142.636 393.76 141.826 394.339 141.826C394.917 141.826 395.388 142.636 395.388 143.634Z" fill="#12122D"/>
<path d="M380.174 138.901C381.018 138.719 382.724 138.424 384.538 138.494C385.013 138.51 385.401 138.907 385.332 139.325V139.336C385.278 139.669 384.955 139.894 384.572 139.862C383.332 139.76 380.096 139.781 378.586 140.275C378.542 140.034 378.689 139.781 378.904 139.561C379.228 139.223 379.679 139.014 380.174 138.907V138.901Z" fill="#12122D"/>
<path d="M397.04 139.116C396.197 138.923 394.496 138.601 392.682 138.644C392.201 138.655 391.814 139.046 391.877 139.459V139.47C391.927 139.803 392.25 140.034 392.633 140.007C393.873 139.921 397.109 139.996 398.609 140.506C398.653 140.27 398.511 140.012 398.3 139.787C397.982 139.443 397.53 139.229 397.04 139.116Z" fill="#12122D"/>
<path d="M384.307 153.879C384.616 155.467 385.631 158.386 389.068 158.386C392.505 158.386 393.476 155.719 393.804 153.879H384.307Z" fill="white"/>
<path d="M389.019 161.118C388.029 161.118 387.156 160.533 387.117 160.511C386.926 160.383 386.867 160.109 386.984 159.9C387.102 159.69 387.352 159.626 387.543 159.755C387.543 159.755 388.264 160.232 389.019 160.232C389.838 160.232 390.568 159.76 390.578 159.755C390.769 159.631 391.019 159.696 391.132 159.905C391.25 160.114 391.186 160.388 390.995 160.511C390.956 160.538 390.068 161.118 389.019 161.118Z" fill="#F5896D"/>
<path d="M403.056 141.976C403.056 141.976 405.963 138.113 407.679 140.898C409.395 143.683 406.968 151.909 402.767 149.902L403.056 141.976Z" fill="#F8A794"/>
<path d="M405.409 150.09C405.409 150.595 405.037 151.002 404.576 151.002C404.115 151.002 403.742 150.595 403.742 150.09C403.742 149.586 404.115 149.178 404.576 149.178C405.037 149.178 405.409 149.586 405.409 150.09Z" fill="white"/>
<path d="M403.683 147.359C403.84 147.359 403.982 147.246 404.027 147.074C404.679 144.536 407.081 143.506 407.106 143.495C407.287 143.42 407.38 143.194 407.311 142.996C407.243 142.797 407.037 142.695 406.856 142.77C406.743 142.819 404.095 143.94 403.345 146.865C403.291 147.074 403.404 147.289 403.59 147.343C403.625 147.353 403.654 147.359 403.688 147.359H403.683Z" fill="#F5896D"/>
<path d="M406.11 146.082C406.174 146.082 406.243 146.06 406.302 146.017C406.468 145.899 406.512 145.663 406.41 145.48C406.39 145.448 405.968 144.74 405.076 144.305C404.899 144.219 404.689 144.305 404.605 144.504C404.527 144.702 404.605 144.928 404.787 145.019C405.473 145.357 405.811 145.899 405.811 145.904C405.88 146.022 405.993 146.082 406.11 146.082Z" fill="#F5896D"/>
<path d="M360.001 259.248C383.449 257.448 401.126 235.184 399.482 209.519C397.838 183.854 377.497 164.507 354.048 166.306C330.599 168.105 312.923 190.369 314.566 216.034C316.21 241.7 336.552 261.047 360.001 259.248Z" fill="#FAB317"/>
<path d="M391.054 202.691C392.27 207.73 392.544 212.871 391.877 217.979C391.235 222.916 389.735 227.617 387.435 231.948C385.131 236.278 382.135 240.024 378.532 243.072C374.801 246.227 370.579 248.503 365.976 249.834C364.201 250.343 362.411 250.708 360.617 250.912C357.753 251.245 354.875 251.186 352.002 250.735C351.468 250.655 350.938 250.553 350.409 250.445C346.482 249.63 342.731 248.095 339.24 245.873C338.676 245.514 338.122 245.138 337.578 244.746C334.318 242.401 331.464 239.509 329.076 236.128C327.645 234.1 326.409 231.942 325.385 229.662C324.34 227.349 323.512 224.918 322.899 222.385C321.683 217.351 321.408 212.205 322.075 207.096C322.722 202.159 324.213 197.458 326.517 193.128C328.822 188.797 331.817 185.052 335.421 182.004C339.152 178.848 343.373 176.573 347.977 175.242C350.296 174.571 352.635 174.163 354.988 174.013C357.307 173.868 359.631 173.976 361.95 174.335C365.819 174.941 369.525 176.229 372.996 178.172C373.575 178.494 374.149 178.837 374.713 179.197C378.198 181.419 381.273 184.231 383.856 187.568C384.204 188.014 384.543 188.475 384.876 188.942C386.651 191.448 388.117 194.164 389.269 197.056C389.99 198.864 390.588 200.748 391.054 202.685V202.691Z" fill="white"/>
<path d="M351.336 189.125C351.017 189.216 350.693 189.012 350.61 188.663L349.227 182.921C349.144 182.572 349.33 182.218 349.649 182.127C349.968 182.036 350.291 182.24 350.375 182.588L351.757 188.33C351.841 188.679 351.654 189.033 351.336 189.125Z" fill="#0D385A"/>
<path d="M364.314 242.943C363.995 243.035 363.671 242.831 363.588 242.482L362.205 236.74C362.122 236.391 362.313 236.037 362.627 235.946C362.946 235.854 363.269 236.058 363.353 236.407L364.735 242.149C364.819 242.498 364.632 242.852 364.314 242.943Z" fill="#0D385A"/>
<path d="M335.588 218.714C335.671 219.063 335.485 219.417 335.166 219.509L329.92 221.022C329.601 221.113 329.278 220.909 329.194 220.56C329.111 220.212 329.297 219.857 329.616 219.766L334.862 218.253C335.181 218.162 335.504 218.366 335.588 218.714Z" fill="#0D385A"/>
<path d="M384.763 204.51C384.847 204.859 384.66 205.213 384.342 205.304L379.096 206.817C378.777 206.909 378.453 206.705 378.37 206.356C378.287 206.007 378.473 205.653 378.792 205.562L384.038 204.048C384.356 203.957 384.68 204.161 384.763 204.51Z" fill="#0D385A"/>
<path d="M370.925 185.023L367.596 191.278L368.621 191.932L371.95 185.676L370.925 185.023Z" fill="#0D385A"/>
<path d="M342.52 239.713C342.236 239.53 342.143 239.133 342.305 238.822L345.035 233.692C345.202 233.381 345.565 233.279 345.844 233.456C346.129 233.638 346.222 234.035 346.06 234.346L343.329 239.477C343.163 239.788 342.8 239.89 342.52 239.713Z" fill="#0D385A"/>
<path d="M337.863 200.351C337.696 200.662 337.333 200.764 337.054 200.587L332.366 197.598C332.082 197.416 331.989 197.018 332.151 196.707C332.317 196.396 332.68 196.294 332.96 196.471L337.647 199.46C337.931 199.643 338.024 200.04 337.863 200.346V200.351Z" fill="#0D385A"/>
<path d="M381.812 228.363C381.645 228.674 381.283 228.776 381.003 228.599L376.316 225.61C376.032 225.428 375.938 225.031 376.1 224.725C376.267 224.413 376.63 224.311 376.909 224.489L381.596 227.478C381.881 227.66 381.974 228.057 381.812 228.363Z" fill="#0D385A"/>
<path d="M367.907 214.346L356.449 212.871L356.567 211.765L368.025 213.241C368.304 213.278 368.505 213.552 368.471 213.858C368.437 214.164 368.187 214.384 367.907 214.346Z" fill="#F8A71B"/>
<path d="M357.601 212.93L340.216 217.952C339.946 218.033 339.667 217.856 339.593 217.555C339.52 217.26 339.681 216.954 339.956 216.874L356.356 212.135L352.821 197.485C352.748 197.19 352.909 196.884 353.184 196.804C353.454 196.723 353.733 196.9 353.807 197.201L357.601 212.93Z" fill="#0D385A"/>
<path opacity="0.5" d="M372.996 178.177L337.583 244.746C334.322 242.401 331.469 239.509 329.081 236.128C327.65 234.1 326.414 231.942 325.389 229.662L354.993 174.018C357.312 173.874 359.636 173.981 361.955 174.34C365.823 174.947 369.53 176.235 373.001 178.177H372.996Z" fill="white"/>
<path opacity="0.5" d="M389.269 197.056L360.622 250.907C357.758 251.24 354.88 251.181 352.007 250.73C351.473 250.649 350.943 250.547 350.414 250.44L383.861 187.568C384.209 188.014 384.548 188.475 384.881 188.942C386.656 191.448 388.122 194.164 389.274 197.056H389.269Z" fill="white"/>
<path d="M312.377 208.137C312.377 208.137 316.952 208.513 318.437 210.22C319.923 211.926 313.677 212.484 313.677 212.484C313.677 212.484 321.222 211.872 321.698 213.815C322.178 215.758 314.863 216.584 314.863 216.584C314.863 216.584 320.031 217.019 320.536 218.468C321.036 219.916 315.716 220.759 315.716 220.759C315.716 220.759 319.781 221.559 320.271 222.61C320.761 223.662 316.353 224.955 313.98 224.719C311.607 224.483 312.559 221.135 312.559 221.135C312.559 221.135 311.367 218.323 312.152 217.147C312.152 217.147 310.735 214.684 311.205 213.096C311.205 213.096 309.465 208.98 312.377 208.137Z" fill="#F8A794"/>
<path d="M363.892 248.277L362.284 249.168C360.847 249.962 359.332 249.64 358.038 248.594C357.469 248.133 356.557 247.209 356.106 246.968C354.851 246.286 351.953 245.584 351.159 245.948C350.365 246.319 351.228 247.8 352.086 248.186C352.944 248.573 354.204 248.97 355.106 249.683C356.013 250.397 352.703 254.69 351.208 256.096C349.713 257.502 346.241 258.157 346.668 259.869C347.094 261.58 349.453 260.566 349.453 260.566C349.453 260.566 349.438 262.332 351.84 262.455C351.84 262.455 352.139 264.011 353.684 264.07C353.684 264.07 354.346 265.879 355.964 265.562C357.577 265.24 362.597 264.21 368.554 253.751L363.882 248.288L363.892 248.277Z" fill="#F8A794"/>
<path d="M400.124 207.595C398.418 220.287 392.995 229.608 392.995 229.608C392.995 229.608 387.205 233.375 378.35 239.804C372.418 244.113 363.892 248.277 363.892 248.277C365.505 250.574 367.417 255.27 366.794 256.622C384.616 252.248 402.124 239.45 402.124 239.45C416.053 221.773 415.784 182.32 415.784 182.32C415.784 182.32 415.333 176.471 412.44 174.979C412.44 174.979 406.605 177.356 404.581 184.848C402.556 192.339 400.124 207.59 400.124 207.59V207.595Z" fill="#534A9B"/>
<path d="M390.274 142.787V143.559C390.274 145.116 390.828 146.581 391.838 147.675C392.833 148.759 394.147 149.35 395.545 149.35H395.716C396.927 149.323 398.031 148.786 398.996 147.761C399.967 146.725 400.521 145.25 400.521 143.699V142.787C400.521 142.534 400.477 142.293 400.399 142.068C400.305 141.794 400.163 141.552 399.977 141.348C399.639 140.978 399.178 140.753 398.663 140.753H392.132C391.392 140.753 390.755 141.225 390.456 141.912C390.343 142.164 390.279 142.438 390.274 142.733C390.274 142.749 390.274 142.77 390.274 142.787ZM391.044 142.787C391.044 142.127 391.534 141.595 392.132 141.595H398.663C399.266 141.595 399.751 142.127 399.751 142.787V143.699C399.751 145.019 399.281 146.28 398.457 147.155C397.638 148.024 396.712 148.48 395.702 148.502H395.545C394.353 148.502 393.231 147.997 392.382 147.069C391.519 146.13 391.049 144.885 391.049 143.554V142.781L391.044 142.787Z" fill="white"/>
<path d="M377.198 142.787V143.559C377.198 145.116 377.757 146.581 378.762 147.675C379.758 148.759 381.072 149.35 382.469 149.35H382.645C383.856 149.323 384.959 148.786 385.92 147.761C386.891 146.725 387.445 145.25 387.445 143.699V142.787C387.445 142.787 387.445 142.76 387.445 142.749C387.445 142.475 387.386 142.207 387.288 141.971C386.999 141.252 386.347 140.758 385.592 140.758H379.056C378.483 140.758 377.968 141.043 377.63 141.493C377.463 141.713 377.34 141.971 377.272 142.245C377.223 142.416 377.198 142.604 377.198 142.792V142.787ZM377.968 142.787C377.968 142.127 378.458 141.595 379.056 141.595H385.592C386.19 141.595 386.68 142.127 386.68 142.787V143.699C386.68 145.019 386.21 146.28 385.386 147.155C384.567 148.024 383.641 148.48 382.631 148.502H382.474C381.282 148.502 380.16 147.997 379.311 147.069C378.448 146.13 377.973 144.885 377.973 143.554V142.781L377.968 142.787Z" fill="white"/>
<path d="M404.713 140.404C402.742 140.409 401.33 141.032 400.751 141.354C400.575 141.445 400.109 141.778 400.09 141.794L400.457 142.513C400.457 142.513 400.972 142.175 401.173 142.073C401.619 141.847 402.453 141.456 403.649 141.306L404.713 140.404Z" fill="white"/>
<path d="M390.794 142.819L391.049 142.025C391.005 142.008 389.921 141.601 388.735 141.601C387.47 141.601 386.656 142.025 386.622 142.046L386.96 142.803C386.96 142.803 387.661 142.443 388.735 142.443C389.808 142.443 390.789 142.819 390.799 142.819H390.794Z" fill="white"/>
<path d="M377.929 141.644L377.59 142.4C377.59 142.4 377.139 142.159 376.482 141.928C376.11 141.794 375.664 141.66 375.183 141.563C375.163 141.273 375.149 140.984 375.134 140.699C375.664 140.79 376.164 140.93 376.59 141.075C377.355 141.338 377.88 141.611 377.924 141.638L377.929 141.644Z" fill="white"/>
<path d="M221.767 121.096C221.747 120.409 223.601 119.041 225.42 117.865C225.385 117.796 225.351 117.721 225.317 117.645C222.703 118.944 218.149 120.994 218.257 119.486C218.325 118.499 222.169 116.61 224.513 115.542C224.469 115.402 224.424 115.263 224.38 115.123C221.571 116.347 216.05 118.542 216.251 116.835C216.389 115.697 221.218 113.723 223.723 112.773C223.689 112.644 223.66 112.521 223.63 112.403C221.208 113.336 216.511 114.93 216.712 113.234C216.894 111.7 224.253 109.666 224.253 109.666L226.915 108.533C226.915 108.533 226.685 107.482 224.557 107.288C222.429 107.095 221.189 105.791 223.748 105.308C226.641 104.761 229.322 105.26 231.323 104.804C233.328 104.353 235.446 106.339 235.446 106.339L238.505 111.308C238.505 111.308 231.73 118.289 226.979 119.384C224.67 120.79 221.796 122.298 221.762 121.096H221.767Z" fill="#F8A794"/>
<path d="M218.742 53.4001L204.406 96.5559L216.06 96.5666L224.728 78.1012C224.728 78.1012 223.831 56.3677 218.742 53.4001Z" fill="#FAB317"/>
<path d="M201.121 95.0534C201.121 95.0534 200.116 99.7918 198.405 101.096C196.694 102.4 197.125 95.7778 197.125 95.7778C197.125 95.7778 196.552 103.774 194.777 103.988C193.007 104.203 193.36 96.4164 193.36 96.4164C193.36 96.4164 192.217 101.772 190.874 102.083C189.531 102.394 189.58 96.6955 189.58 96.6955C189.58 96.6955 188.28 100.838 187.285 101.198C186.29 101.557 185.809 96.7491 186.368 94.2967C186.927 91.8443 189.712 93.3308 189.712 93.3308C189.712 93.3308 192.345 92.499 193.262 93.4918C193.262 93.4918 195.625 92.3702 196.949 93.0947C196.949 93.0947 200.807 91.8765 201.116 95.0534H201.121Z" fill="#F8A794"/>
<path d="M248.64 43.612C241.271 46.4561 233.882 49.2305 226.469 51.9244C222.689 53.2982 218.59 51.2375 217.051 47.2182C217.041 47.1967 217.036 47.1752 217.026 47.1538C214.56 40.7303 209.5 33.4214 208.417 30.105L208.402 30.0621C208.181 29.5308 207.98 28.9888 207.799 28.4468C205.146 20.5208 204.887 4.25016 221.385 0.402523C221.385 0.402523 234.985 -3.07484 241.035 10.3195C241.035 10.3195 243.761 16.5229 245.693 21.036C247.899 26.1769 249.576 27.8512 251.042 29.1015C255.774 33.1423 254.553 41.3206 248.895 43.51C248.807 43.5422 248.718 43.5798 248.63 43.612H248.64Z" fill="#12122D"/>
<path d="M224.478 96.5666C224.591 90.449 224.846 94.3825 223.865 86.9663C223.836 86.6765 223.802 86.3814 223.767 86.0862C223.679 85.9199 223.591 85.7535 223.512 85.5872C222.017 82.6894 221.218 81.0097 220.703 78.9008C219.08 72.2358 220.296 68.0018 220.737 63.8107C220.38 61.8735 219.139 55.332 218.742 53.4054L226.552 50.1105L228.18 49.4237L228.278 49.3807L229.94 48.6777L230.068 48.6241C233.833 47.0356 237.863 46.3488 241.884 46.6171C242.148 46.6332 242.408 46.6546 242.673 46.6815L245.659 46.9713L245.772 46.982L247.689 47.1698L258.779 48.2484L259.598 96.5666H224.478Z" fill="#FAB317"/>
<path d="M247.684 47.1698C244.06 55.1602 235.196 64.0844 230.651 61.3314C227.856 59.6411 226.714 54.0869 226.552 50.1051L228.18 49.4236L228.278 49.3807L229.94 48.6777L230.068 48.624C233.833 47.0356 237.863 46.3487 241.884 46.6224C242.021 46.6439 242.158 46.6653 242.295 46.6814C242.423 46.6975 242.545 46.7136 242.668 46.7297L245.654 46.9712L245.767 46.9819L247.679 47.1698H247.684Z" fill="#F8A794"/>
<path d="M223.767 86.0809C223.802 86.376 223.836 86.6712 223.865 86.9609C225.787 87.4117 231.828 88.3401 242.094 85.6462C243.423 85.2974 244.83 84.8842 246.301 84.4066C246.605 84.31 246.772 83.9612 246.688 83.6285C246.595 83.3011 246.277 83.1133 245.977 83.2099C231.171 88.0235 223.606 85.6086 223.532 85.5872C223.522 85.5872 223.517 85.5872 223.512 85.5818C223.596 85.7428 223.679 85.9092 223.767 86.0809Z" fill="#F8A71B"/>
<path d="M214.065 28.9351C214.065 28.9351 210.799 26.6974 209.966 29.9279C209.137 33.1638 213.986 39.8555 217.477 36.3943L214.065 28.9351Z" fill="#F5896D"/>
<path d="M215.472 36.5821C215.619 37.0329 215.403 37.5319 214.991 37.6929C214.579 37.8539 214.123 37.6178 213.976 37.167C213.829 36.7162 214.045 36.2172 214.457 36.0562C214.869 35.8952 215.325 36.1313 215.472 36.5821Z" fill="white"/>
<path d="M215.815 34.3926C215.663 34.4517 215.491 34.4034 215.398 34.2585C213.996 32.1549 211.344 32.1173 211.314 32.1173C211.113 32.1173 210.956 31.9456 210.961 31.7309C210.966 31.5163 211.138 31.3446 211.339 31.3499C211.461 31.3499 214.383 31.3821 216.001 33.8077C216.114 33.9794 216.075 34.2209 215.908 34.3443C215.879 34.3658 215.849 34.3819 215.82 34.3926H215.815Z" fill="#D65C48"/>
<path d="M213.06 34.1297C212.996 34.1565 212.922 34.1619 212.854 34.1458C212.658 34.1029 212.54 33.8989 212.589 33.6896C212.599 33.6575 212.795 32.8364 213.53 32.0905C213.677 31.9402 213.908 31.9402 214.045 32.0905C214.182 32.2407 214.172 32.4822 214.025 32.6325C213.457 33.2067 213.295 33.8399 213.295 33.8453C213.265 33.9794 213.172 34.0814 213.06 34.1243V34.1297Z" fill="#D65C48"/>
<path d="M236.608 38.0954L239.658 47.4435C239.658 47.4435 236.785 52.3483 233.779 53.8508C230.784 55.3534 228.411 51.7795 228.411 51.7795L225.572 43.0807L236.608 38.1008V38.0954Z" fill="#F8A794"/>
<path d="M236.907 39.0077L238.123 42.7372C236.868 46.0751 233.47 48.4094 227.724 49.6598L225.871 43.9876L236.907 39.0077Z" fill="#F5896D"/>
<path d="M213.873 33.0189C214.266 33.8828 214.682 34.7575 215.129 35.6108C218.095 41.3044 223.748 46.499 228.543 45.8658C238.898 44.5028 240.187 34.7146 239.736 28.0389C239.687 27.2984 239.113 26.6491 238.991 25.7958C238.692 23.7781 238.687 21.3579 238.152 19.1738C237.785 17.6605 237.388 16.1794 237.015 14.8486C235.966 11.0921 232.901 8.46266 229.416 8.33387C224.385 8.14068 217.207 9.23541 212.202 15.7769C210.353 18.1918 209.794 21.5457 210.731 24.6099C211.451 26.9496 212.496 29.9654 213.873 33.0189Z" fill="#F8A794"/>
<path d="M227.097 33.153C227.273 33.0833 227.386 32.8793 227.352 32.6701C227.312 32.4339 227.106 32.2783 226.896 32.3212L225.542 32.5842L225.626 26.7671C225.626 26.531 225.454 26.3325 225.238 26.3271C225.023 26.3271 224.841 26.5149 224.836 26.751L224.733 33.6199L227.033 33.1691C227.033 33.1691 227.077 33.1584 227.097 33.153Z" fill="#F5896D"/>
<path d="M214.222 21.3364C211.089 24.6689 213.864 29.0693 213.398 32.01C213.368 32.2032 213.29 32.2622 213.177 32.2139C211.76 29.1068 210.696 26.0319 209.961 23.6493C209.005 20.5261 209.628 17.0863 211.594 14.5963C216.918 7.84554 224.469 6.63275 229.749 6.77227C233.411 6.8635 236.598 9.51982 237.667 13.346C238.045 14.7037 238.442 16.2116 238.819 17.7571C238.329 18.4064 236.873 19.1845 237.167 20.3007C237.942 23.2576 238.461 25.286 237.848 25.329C236.824 25.3987 235.103 22.1253 235.426 19.4421C235.426 19.4421 234.073 18.2508 230.107 18.1435C225.018 18.0039 219.801 16.8931 219.801 16.8931C219.801 16.8931 217.737 16.437 216.688 15.4711C216.688 15.4711 216.619 18.7928 214.231 21.3311L214.222 21.3364Z" fill="#12122D"/>
<path d="M220.522 28.0658C220.816 28.9619 220.629 29.8527 220.11 30.0567C219.59 30.2606 218.928 29.6971 218.634 28.8009C218.34 27.9048 218.526 27.014 219.046 26.81C219.566 26.6061 220.227 27.1696 220.522 28.0658Z" fill="#12122D"/>
<path d="M230.715 24.0786C231.009 24.9748 230.823 25.8656 230.303 26.0695C229.783 26.2734 229.121 25.71 228.827 24.8138C228.533 23.9176 228.719 23.0268 229.239 22.8229C229.759 22.619 230.421 23.1824 230.715 24.0786Z" fill="#12122D"/>
<path d="M215.648 25.168C216.354 24.7118 217.801 23.8425 219.453 23.2683C219.889 23.118 220.35 23.338 220.409 23.7352V23.7459C220.463 24.0625 220.232 24.3791 219.879 24.4864C218.737 24.8299 215.83 25.989 214.619 26.9603C214.511 26.7617 214.57 26.4827 214.692 26.2037C214.883 25.7904 215.227 25.4363 215.643 25.168H215.648Z" fill="#12122D"/>
<path d="M230.877 19.4367C230.063 19.5602 228.44 19.866 226.817 20.5422C226.39 20.7193 226.155 21.2076 226.332 21.5618V21.5725C226.479 21.8569 226.837 21.9482 227.17 21.7872C228.258 21.2774 231.19 20.2041 232.691 20.1344C232.661 19.9036 232.455 19.7265 232.2 19.5977C231.813 19.4045 231.342 19.367 230.872 19.4367H230.877Z" fill="#12122D"/>
<path d="M223.762 37.1885C224.503 38.5086 226.278 40.7732 229.366 39.5711C232.46 38.3637 232.543 35.6215 232.303 33.8506L223.762 37.1885Z" fill="white"/>
<path d="M230.121 42.0396C229.229 42.3884 228.273 42.1684 228.234 42.163C228.023 42.1147 227.891 41.8894 227.935 41.6586C227.979 41.4279 228.185 41.283 228.396 41.3313C228.396 41.3313 229.185 41.5084 229.862 41.24C230.597 40.9503 231.117 40.2687 231.122 40.2634C231.259 40.0809 231.499 40.0541 231.666 40.2043C231.833 40.3546 231.857 40.6175 231.72 40.8C231.695 40.8376 231.063 41.6693 230.121 42.0396Z" fill="#F5896D"/>
<path d="M237.123 19.8929C237.123 19.8929 238.603 15.3959 240.967 17.2956C243.33 19.1953 243.56 27.4486 239.192 27.1213L237.123 19.8929Z" fill="#F8A794"/>
<path d="M241.624 26.3593C241.771 26.8101 241.555 27.3091 241.143 27.4701C240.731 27.6311 240.275 27.395 240.128 26.9442C239.981 26.4934 240.197 25.9944 240.609 25.8334C241.021 25.6724 241.477 25.9085 241.624 26.3593Z" fill="white"/>
<path d="M239.27 24.5133C239.408 24.4596 239.506 24.3094 239.496 24.1376C239.334 21.6262 241.197 19.8553 241.217 19.8339C241.359 19.6997 241.374 19.4689 241.256 19.3133C241.133 19.1577 240.923 19.1362 240.78 19.2704C240.692 19.3509 238.643 21.2935 238.824 24.1913C238.839 24.3952 239.001 24.5508 239.187 24.5347C239.216 24.5347 239.251 24.524 239.275 24.5133H239.27Z" fill="#F5896D"/>
<path d="M241.079 22.5063C241.138 22.4848 241.192 22.4419 241.236 22.3828C241.349 22.2219 241.324 21.9857 241.172 21.8623C241.148 21.8409 240.555 21.3525 239.628 21.272C239.442 21.2559 239.28 21.4062 239.265 21.6155C239.251 21.8194 239.388 21.9965 239.579 22.0126C240.295 22.0716 240.756 22.4472 240.761 22.4472C240.854 22.5277 240.976 22.5438 241.079 22.5009V22.5063Z" fill="#F5896D"/>
<path d="M236.603 113.132C236.603 113.132 253.087 110.846 274.65 96.572C274.65 96.572 275.287 96.3359 275.287 96.3251C275.728 89.0699 271.536 76.8723 268.609 66.1987C266.673 59.142 264.128 50.6364 258.779 48.2538C257.833 49.4666 256.097 54.4841 255.975 57.0384C255.685 63.2151 257.225 69.44 258.279 72.8744C259.789 77.806 260.848 84.1061 262.226 89.0323C262.226 89.0323 262.363 89.7031 262.358 89.7085C262.186 89.7568 256.484 93.2181 248.704 97.1408C240.177 101.439 233.985 105.319 233.985 105.319C236.736 108.029 236.608 113.138 236.608 113.138L236.603 113.132Z" fill="#FAB317"/>
<path d="M153.303 180.635C152.921 180.694 151.759 176.922 152.009 174.104C152.288 170.976 152.725 164.311 155.701 164.493C156.789 164.563 155.201 167.434 155.931 170.101C155.931 170.101 159.118 168.384 161.251 166.624C163.129 165.073 167.016 162.556 168.821 161.408C169.316 161.091 169.89 161.697 169.6 162.239C169.135 163.114 168.002 164.429 165.384 166.259C165.384 166.259 171.895 162.186 172.988 163.082C174.077 163.978 165.855 168.904 165.855 168.904C165.855 168.904 172.498 165.905 173.042 167.005C173.371 167.676 166.86 171.947 166.86 171.947C166.86 171.947 173.331 169.715 172.13 171.41C171.782 171.904 163.967 177.163 156.627 185.019C156.627 185.019 154.2 183.098 153.308 180.635H153.303Z" fill="#F9AE83"/>
<path d="M88.5852 184.15L111.374 184.472C111.374 184.472 121.488 196.605 124.229 198.752C124.229 198.752 132.324 190.885 139.168 187.128C146.013 183.372 152.352 178.204 152.352 178.204C153.592 180.973 155.323 182.851 157.186 184.488C157.186 184.488 135.692 210.885 124.053 213.611C115.772 215.548 93.4587 194.555 88.5803 184.145L88.5852 184.15Z" fill="#5C4EA0"/>
<path d="M64.9778 297.1C64.9435 285.514 67.5616 277.744 67.5616 277.744C84.5648 276.542 111.3 277.744 111.3 277.744C111.339 277.856 111.374 277.969 111.408 278.082C111.408 278.082 114.154 288.659 112.546 297.105C96.0032 308.321 80.064 307.58 64.9729 297.105L64.9778 297.1Z" fill="#2D2D2C"/>
<path d="M112.869 294.905C112.869 294.905 116.527 349.427 116.095 363.036L119.375 434.499L108.515 433.796C106.157 401.056 102.122 384.624 102.24 363.503L92.939 299.933C92.939 299.933 101.98 295.136 112.869 294.9V294.905Z" fill="#2D2D2C"/>
<path d="M108.123 433.211C108.432 428.515 112.261 425.956 116.174 427.126C119.998 428.274 120.459 435.256 120.459 435.256C120.459 435.256 125.131 439.801 126.151 447.856C126.176 448.033 126.205 448.21 126.22 448.398C126.372 449.889 125.421 451.252 124.077 451.494C117.292 452.723 110.707 452.819 104.343 451.553C103.005 451.29 102.078 449.927 102.25 448.435C102.259 448.376 102.259 448.322 102.264 448.269C102.691 444.711 103.573 438.18 107.554 435.76L108.123 433.211Z" fill="#DE9E26"/>
<path d="M109.638 438.62L109.295 437.762C109.53 437.649 115.164 435.003 119.267 437.939L118.802 438.722C115.08 436.066 109.692 438.593 109.638 438.62Z" fill="white"/>
<path d="M110.344 438.502C110.256 439.076 109.761 439.463 109.236 439.366C108.712 439.269 108.359 438.727 108.447 438.153C108.535 437.579 109.03 437.193 109.555 437.289C110.08 437.386 110.433 437.928 110.344 438.502Z" fill="white"/>
<path d="M120.023 438.244C119.934 438.819 119.439 439.205 118.914 439.108C118.39 439.012 118.037 438.47 118.125 437.896C118.213 437.322 118.709 436.935 119.233 437.032C119.758 437.128 120.111 437.67 120.023 438.244Z" fill="white"/>
<path d="M109.736 435.975L109.393 435.116C109.628 435.003 115.262 432.358 119.366 435.293L118.9 436.077C115.178 433.42 109.79 435.948 109.736 435.975Z" fill="white"/>
<path d="M110.442 435.857C110.354 436.431 109.859 436.817 109.334 436.72C108.81 436.624 108.457 436.082 108.545 435.508C108.633 434.934 109.128 434.547 109.653 434.644C110.178 434.74 110.531 435.282 110.442 435.857Z" fill="white"/>
<path d="M120.121 435.599C120.032 436.173 119.537 436.56 119.013 436.463C118.488 436.366 118.135 435.824 118.223 435.25C118.311 434.676 118.807 434.29 119.331 434.386C119.856 434.483 120.209 435.025 120.121 435.599Z" fill="white"/>
<path d="M109.638 441.255L109.295 440.396C109.53 440.284 115.164 437.638 119.267 440.574L118.802 441.357C115.08 438.701 109.692 441.228 109.638 441.255Z" fill="white"/>
<path d="M110.344 441.137C110.256 441.711 109.761 442.098 109.236 442.001C108.712 441.904 108.359 441.362 108.447 440.788C108.535 440.214 109.03 439.828 109.555 439.924C110.08 440.021 110.433 440.563 110.344 441.137Z" fill="white"/>
<path d="M120.023 440.885C119.934 441.459 119.439 441.845 118.914 441.749C118.39 441.652 118.037 441.11 118.125 440.536C118.213 439.962 118.709 439.575 119.233 439.672C119.758 439.769 120.111 440.311 120.023 440.885Z" fill="white"/>
<path d="M116.728 430.152C116.728 430.152 113.835 429.057 111.369 430.388C111.143 430.957 111.114 431.783 111.369 432.546C111.369 432.546 114.698 431.961 116.801 432.411C116.801 432.411 117.198 431.113 116.733 430.152H116.728Z" fill="white"/>
<path d="M124.077 451.499C117.292 452.728 110.707 452.825 104.343 451.558C103.005 451.295 102.078 449.932 102.25 448.44C102.259 448.381 102.259 448.328 102.264 448.274C106.236 449.492 115.507 451.472 126.151 447.861C126.176 448.038 126.205 448.215 126.22 448.403C126.372 449.895 125.421 451.258 124.077 451.499Z" fill="#BE812B"/>
<path d="M65.0318 294.905C65.0318 294.905 61.3742 349.427 61.8057 363.036L58.5256 434.499L69.3855 433.796C71.7438 401.056 75.7789 384.624 75.6612 363.503L84.962 299.933C84.962 299.933 75.921 295.136 65.0318 294.9V294.905Z" fill="#2D2D2C"/>
<path d="M69.7826 433.211C69.4738 428.515 65.6446 425.956 61.7321 427.126C57.9079 428.274 57.447 435.256 57.447 435.256C57.447 435.256 52.7746 439.801 51.7548 447.856C51.7302 448.033 51.7008 448.21 51.6861 448.398C51.5341 449.889 52.4853 451.252 53.8287 451.494C60.6143 452.723 67.1988 452.819 73.5628 451.553C74.9012 451.29 75.8279 449.927 75.6563 448.435C75.6465 448.376 75.6465 448.322 75.6416 448.269C75.215 444.711 74.3325 438.18 70.3514 435.76L69.7826 433.211Z" fill="#DE9E26"/>
<path d="M68.2677 438.62L68.6109 437.762C68.3755 437.649 62.7421 435.003 58.6384 437.939L59.1042 438.722C62.8255 436.066 68.2138 438.593 68.2677 438.62Z" fill="white"/>
<path d="M67.5617 438.502C67.65 439.076 68.1452 439.463 68.6698 439.366C69.1944 439.269 69.5474 438.727 69.4592 438.153C69.3709 437.579 68.8757 437.193 68.3511 437.289C67.8265 437.386 67.4735 437.928 67.5617 438.502Z" fill="white"/>
<path d="M57.8834 438.244C57.9716 438.819 58.4668 439.205 58.9914 439.108C59.5161 439.012 59.8691 438.47 59.7808 437.896C59.6926 437.322 59.1974 436.935 58.6728 437.032C58.1481 437.128 57.7951 437.67 57.8834 438.244Z" fill="white"/>
<path d="M68.1695 435.975L68.5127 435.116C68.2774 435.003 62.644 432.358 58.5403 435.293L59.0061 436.077C62.7273 433.42 68.1156 435.948 68.1695 435.975Z" fill="white"/>
<path d="M67.4636 435.857C67.5518 436.431 68.047 436.817 68.5716 436.72C69.0963 436.624 69.4493 436.082 69.361 435.508C69.2728 434.934 68.7776 434.547 68.253 434.644C67.7283 434.74 67.3753 435.282 67.4636 435.857Z" fill="white"/>
<path d="M57.7852 435.599C57.8735 436.173 58.3687 436.56 58.8933 436.463C59.4179 436.366 59.7709 435.824 59.6827 435.25C59.5944 434.676 59.0992 434.29 58.5746 434.386C58.05 434.483 57.697 435.025 57.7852 435.599Z" fill="white"/>
<path d="M68.2677 441.255L68.6109 440.396C68.3755 440.284 62.7421 437.638 58.6384 440.574L59.1042 441.357C62.8255 438.701 68.2138 441.228 68.2677 441.255Z" fill="white"/>
<path d="M67.5617 441.137C67.65 441.711 68.1452 442.098 68.6698 442.001C69.1944 441.904 69.5474 441.362 69.4592 440.788C69.3709 440.214 68.8757 439.828 68.3511 439.924C67.8265 440.021 67.4735 440.563 67.5617 441.137Z" fill="white"/>
<path d="M57.8834 440.885C57.9716 441.459 58.4668 441.845 58.9914 441.749C59.5161 441.652 59.8691 441.11 59.7808 440.536C59.6926 439.962 59.1974 439.575 58.6728 439.672C58.1481 439.769 57.7951 440.311 57.8834 440.885Z" fill="white"/>
<path d="M61.1732 430.152C61.1732 430.152 64.0659 429.057 66.5321 430.388C66.7576 430.957 66.787 431.783 66.5321 432.546C66.5321 432.546 63.203 431.961 61.0997 432.411C61.0997 432.411 60.7026 431.113 61.1683 430.152H61.1732Z" fill="white"/>
<path d="M53.8287 451.499C60.6143 452.728 67.1988 452.825 73.5628 451.558C74.9012 451.295 75.8279 449.932 75.6563 448.44C75.6465 448.381 75.6465 448.328 75.6416 448.274C71.6702 449.492 62.3989 451.472 51.7548 447.861C51.7302 448.038 51.7008 448.215 51.6861 448.403C51.5341 449.895 52.4853 451.258 53.8287 451.499Z" fill="#BE812B"/>
<path d="M113.433 282.37C108.599 285.144 104.108 287.183 99.6118 288.412C96.2288 289.341 92.836 289.813 89.2814 289.786C86.1387 289.813 83.1577 289.442 80.216 288.718C75.4063 287.537 70.6701 285.386 65.4142 282.37L67.4048 237.18L67.189 184.472L79.4168 180.877L83.0989 179.804C85.1287 179.208 87.2075 178.918 89.2863 178.902C91.3651 178.918 93.4439 179.208 95.4737 179.804L99.6167 181.022L111.384 184.472L111.168 237.18L113.438 282.37H113.433Z" fill="#5C4EA0"/>
<path d="M99.6117 181.027V288.412C96.2288 289.34 92.836 289.813 89.2814 289.786C86.1386 289.813 83.1577 289.442 80.216 288.718L80.2012 286.045L80.1767 283.244L80.1277 276.74L80.113 273.939L80.064 267.446L80.0395 264.645L80.0002 258.151L79.9757 255.361L79.9267 248.868L79.912 246.088L79.8629 239.584L79.8384 236.794L79.7894 230.29L79.7747 227.51L79.7257 221L79.711 218.226L79.6619 211.706L79.6374 208.942L79.5884 202.422L79.5737 199.659L79.5246 193.149L79.5099 190.386L79.4609 183.855L79.4364 181.102V180.866L83.1185 179.793C85.1483 179.197 87.2271 178.907 89.3059 178.891C91.3847 178.907 93.4635 179.197 95.4933 179.793L99.5921 181L99.6314 181.011L99.6117 181.027Z" fill="white"/>
<path d="M99.6117 183.887V186.613C96.0866 187.284 92.6496 187.515 89.4873 187.515C85.5748 187.515 82.0937 187.144 79.4364 186.731L79.4119 183.978C84.0892 184.719 91.7034 185.395 99.5676 183.876L99.6068 183.887H99.6117Z" fill="#E2E2E2"/>
<path d="M99.6118 191.652V194.4C96.1405 195.06 92.7477 195.301 89.6393 195.301C85.6974 195.301 82.182 194.915 79.5099 194.48L79.4952 191.717C84.1824 192.484 91.772 193.187 99.6167 191.652H99.6118Z" fill="#E2E2E2"/>
<path d="M99.6118 199.637V202.401C96.1895 203.061 92.8458 203.302 89.7766 203.302C85.8102 203.302 82.2752 202.895 79.5688 202.433L79.5541 199.669C84.2314 200.474 91.7819 201.215 99.6118 199.632V199.637Z" fill="#E2E2E2"/>
<path d="M99.6117 208.958V211.722C96.2288 212.382 92.9389 212.624 89.8991 212.624C85.9131 212.624 82.3683 212.2 79.6423 211.722L79.6178 208.958C84.2951 209.79 91.8015 210.558 99.6068 208.958H99.6117Z" fill="#E2E2E2"/>
<path d="M99.6118 218.285V221.038C96.2778 221.698 93.0272 221.95 90.0169 221.95C86.0063 221.95 82.4419 221.51 79.711 221.011L79.6963 218.237C84.3638 219.106 91.826 219.89 99.6118 218.28V218.285Z" fill="#E2E2E2"/>
<path d="M99.6118 227.596V230.359C96.3121 231.03 93.1007 231.272 90.1296 231.272C86.1043 231.272 82.5203 230.81 79.7747 230.306L79.76 227.526C84.4226 228.427 91.8456 229.243 99.6118 227.596Z" fill="#E2E2E2"/>
<path d="M99.6117 236.912V239.675C96.3513 240.346 93.1693 240.598 90.2325 240.598C86.2073 240.598 82.6183 240.126 79.8531 239.595L79.8286 236.804C84.4913 237.733 91.8652 238.575 99.6117 236.912Z" fill="#E2E2E2"/>
<path d="M99.6117 246.233V248.996C96.3758 249.673 93.233 249.925 90.3305 249.925C86.2857 249.925 82.6967 249.437 79.9168 248.878L79.9021 246.099C84.5549 247.054 91.8896 247.912 99.6117 246.233Z" fill="#E2E2E2"/>
<path d="M99.6118 255.554V258.328C96.4102 258.999 93.3018 259.251 90.414 259.251C86.3691 259.251 82.7802 258.747 79.9953 258.167L79.9708 255.377C84.6139 256.381 91.9191 257.255 99.6167 255.559L99.6118 255.554Z" fill="#E2E2E2"/>
<path d="M99.6117 264.87V267.634C96.4347 268.31 93.3557 268.573 90.4973 268.573C86.4524 268.573 82.8586 268.047 80.0591 267.451L80.0345 264.65C84.6776 265.68 91.9338 266.582 99.6117 264.865V264.87Z" fill="#E2E2E2"/>
<path d="M99.6117 274.181V276.96C96.4591 277.636 93.4095 277.899 90.5757 277.899C86.5259 277.899 82.9272 277.368 80.1227 276.746L80.108 273.944C84.7462 275.002 91.9534 275.925 99.6117 274.181Z" fill="#E2E2E2"/>
<path d="M99.6118 283.502V286.282C96.4837 286.958 93.4636 287.221 90.6542 287.221C86.6093 287.221 83.0155 286.679 80.2013 286.045L80.1768 283.244C84.8051 284.317 91.9829 285.257 99.6167 283.496L99.6118 283.502Z" fill="#E2E2E2"/>
<path d="M51.7057 282.327C51.7057 282.327 52.652 285.761 53.7012 288.262C54.7504 290.757 54.0297 292.689 54.6573 294.943C55.2848 297.197 52.8236 297.03 52.348 294.664C51.8724 292.297 52.0783 291.181 51.6273 291.1C51.1762 291.025 49.8917 296.789 49.7053 298.442C49.519 300.094 49.8279 304.243 49.2641 304.887C48.6954 305.53 47.3324 303.201 47.7638 298.887C48.1953 294.572 47.8766 294.664 47.8766 294.664C47.8766 294.664 47.504 296.338 47.1117 298.141C46.7195 299.944 46.7195 302.139 46.793 303.368C46.8666 304.597 45.7193 305.209 45.381 304.548C45.0427 303.888 44.5034 299.595 44.9594 297.921C45.4153 296.241 45.9694 293.365 45.9694 293.365C45.9694 293.365 44.4642 297.223 44.2043 298.222C43.9445 299.214 44.3759 303.019 43.5817 303.711C43.2532 303.996 42.2039 303.615 42.3804 298.2C42.3804 298.2 42.7433 295.555 43.263 293.918C43.263 293.918 42.454 295.141 42.0569 296.783C41.7088 298.227 41.5175 299.746 41.3999 301.211C41.2822 302.676 40.1251 302.482 40.1251 299.896C40.1251 297.315 40.5223 294.465 41.1841 293.091C41.846 291.718 42.8168 283.679 44.778 280.727L51.7008 282.321L51.7057 282.327Z" fill="#F9AE83"/>
<path d="M73.9206 196.192C73.9206 196.192 68.2725 224.821 63.5363 234.722C63.5363 234.722 60.9329 248.653 51.8871 282.852C51.8871 282.852 47.1607 284.908 44.4053 280.985C44.4053 280.985 48.7737 243.389 51.4115 231.368C51.4115 231.368 63.2274 189.833 67.1939 184.477C67.1939 184.477 73.2979 187.193 73.9206 196.192Z" fill="#5C4EA0"/>
<path d="M95.6406 172.221L95.4298 176.6L95.165 182.084C95.165 182.084 94.1697 184.15 89.6787 184.15C85.1876 184.15 84.2659 182.739 84.2659 182.739L84.0845 180.302L83.4814 172.215H95.6455L95.6406 172.221Z" fill="#F9AE83"/>
<path d="M95.6405 172.221L95.4297 176.6C93.5568 178.134 89.1197 181.156 84.0795 180.308L83.4764 172.221H95.6405Z" fill="#F58A69"/>
<path d="M75.8034 152.312C75.8034 152.312 72.3616 148.625 69.616 151.029C66.3703 153.868 69.763 164.096 75.5239 163.012L75.8034 152.312Z" fill="#F8A279"/>
<path d="M73.7932 160.469C73.5089 160.458 73.2686 160.216 73.2441 159.894C72.8764 154.861 70.1847 153.991 70.0671 153.954C69.768 153.863 69.5866 153.519 69.665 153.192C69.7484 152.859 70.0523 152.661 70.3563 152.752C70.5034 152.795 73.9403 153.836 74.3767 159.798C74.4012 160.141 74.1659 160.442 73.857 160.469C73.8374 160.469 73.8128 160.469 73.7932 160.469Z" fill="#F58A69"/>
<path d="M70.577 157.903C70.4446 157.903 70.3073 157.839 70.2043 157.732C69.9739 157.496 69.969 157.099 70.1847 156.852C70.2338 156.793 71.4006 155.483 73.2539 156.004C73.5579 156.09 73.7442 156.428 73.6658 156.76C73.5873 157.093 73.2784 157.292 72.9745 157.211C71.7586 156.868 71.0182 157.7 71.0133 157.71C70.8956 157.844 70.7388 157.909 70.5819 157.903H70.577Z" fill="#F58A69"/>
<path d="M102.102 152.312C102.102 152.312 105.544 148.625 108.29 151.029C111.536 153.868 108.143 164.096 102.382 163.012L102.102 152.312Z" fill="#F8A279"/>
<path d="M104.108 160.469C104.392 160.458 104.632 160.216 104.657 159.894C105.025 154.861 107.716 153.991 107.834 153.954C108.133 153.863 108.314 153.519 108.236 153.192C108.153 152.859 107.849 152.661 107.545 152.752C107.397 152.795 103.961 153.836 103.524 159.798C103.5 160.141 103.735 160.442 104.049 160.469C104.068 160.469 104.093 160.469 104.113 160.469H104.108Z" fill="#F58A69"/>
<path d="M107.329 157.903C107.461 157.903 107.598 157.839 107.701 157.732C107.932 157.496 107.937 157.099 107.721 156.852C107.672 156.793 106.505 155.483 104.652 156.004C104.348 156.09 104.162 156.428 104.24 156.76C104.318 157.093 104.627 157.292 104.931 157.211C106.147 156.868 106.888 157.7 106.892 157.71C107.01 157.844 107.167 157.909 107.324 157.903H107.329Z" fill="#F58A69"/>
<path d="M89.1245 176.519C77.235 176.519 73.5627 161.059 72.4694 149.741C71.4594 139.309 78.8628 130.111 88.4479 129.988C88.5754 129.988 88.7028 129.988 88.8303 129.988C88.9921 129.988 89.149 129.988 89.3059 129.988C98.7734 130.127 106.152 139.073 105.333 149.398C104.426 160.866 101.009 176.514 89.1245 176.514V176.519Z" fill="#F9AE83"/>
<path d="M104.372 121.944C110.403 126.462 104.946 135.268 104.946 135.268C104.946 135.268 110.952 141.703 104.77 156.852L103.666 156.605C104.368 151.754 103.946 145.851 103.666 144.917C102.833 142.148 98.3909 140.672 98.6164 137.678C98.6164 137.678 85.006 142.336 77.637 137.764C77.637 137.764 77.0536 141.601 75.0385 144.021C73.3519 146.044 74.3129 153.101 74.5286 156.149L73.396 156.272C72.7243 153.165 71.0917 147.568 70.9152 145.921C70.8024 144.879 70.4004 140.758 70.2288 137.812C70.0768 135.231 70.4984 132.628 71.5672 130.321C72.1556 129.043 72.9793 127.761 74.1118 126.838C78.0685 123.613 98.8959 117.849 104.368 121.944H104.372Z" fill="#12122D"/>
<path d="M96.9448 161.327C96.935 161.365 96.7683 161.939 96.3858 162.728C95.8857 163.753 95.0228 165.143 93.65 166.146C93.4882 166.264 93.3166 166.377 93.1401 166.484C92.1743 167.074 90.9927 167.466 89.5561 167.466C88.2471 167.466 87.1586 167.166 86.2565 166.704C86.0996 166.624 85.9476 166.538 85.8005 166.447C84.4032 165.588 83.5109 164.343 82.9814 163.356C82.5156 162.492 82.3244 161.826 82.3146 161.783C82.3244 161.789 82.5303 161.923 82.8931 162.111C83.9423 162.653 86.3251 163.667 89.4238 163.64C89.4679 163.64 89.512 163.64 89.5561 163.64H89.7032C92.7136 163.549 95.116 162.406 96.2437 161.762C96.6751 161.515 96.9203 161.343 96.9399 161.327H96.9448Z" fill="#921A1D"/>
<path d="M93.1449 166.484C92.179 167.074 90.9974 167.466 89.5609 167.466C88.2518 167.466 87.1634 167.166 86.2612 166.704C86.9918 166.264 88.1243 165.846 89.7913 165.846C91.1837 165.846 92.3016 166.135 93.1498 166.484H93.1449Z" fill="#F15D67"/>
<path d="M96.9447 161.327C96.9349 161.365 96.7682 161.939 96.3857 162.728C95.3218 163.468 93.0714 164.697 89.7865 164.697C86.5015 164.697 84.0109 163.828 82.9764 163.356C82.5106 162.492 82.3194 161.826 82.3096 161.783C82.3194 161.789 82.5253 161.923 82.8881 162.111C83.9373 162.653 86.3201 163.667 89.4187 163.64C89.4629 163.64 89.507 163.64 89.5511 163.64H89.6982C92.7086 163.549 95.111 162.406 96.2386 161.762C96.6701 161.515 96.9152 161.343 96.9349 161.327H96.9447Z" fill="white"/>
<path d="M83.5597 152.29C83.5597 153.589 83.0302 154.646 82.3781 154.646C81.726 154.646 81.1965 153.594 81.1965 152.29C81.1965 150.992 81.726 149.935 82.3781 149.935C83.0302 149.935 83.5597 150.986 83.5597 152.29Z" fill="#33334D"/>
<path d="M78.2303 148.588C78.2303 148.588 78.5 145.76 80.3533 144.337C82.0693 143.023 83.6039 143.023 84.4227 143.157C84.7806 143.216 85.0355 143.559 85.0355 143.951C85.0355 144.418 84.6678 144.778 84.2413 144.74C82.8979 144.611 80.1131 144.863 78.2303 148.582V148.588Z" fill="#12122D"/>
<path d="M95.155 152.29C95.155 153.589 95.6845 154.646 96.3366 154.646C96.9887 154.646 97.5182 153.594 97.5182 152.29C97.5182 150.992 96.9887 149.935 96.3366 149.935C95.6845 149.935 95.155 150.986 95.155 152.29Z" fill="#33334D"/>
<path d="M100.347 148.759C100.347 148.759 100.21 145.915 98.4252 144.396C96.773 142.991 95.2384 142.899 94.4196 142.991C94.0617 143.028 93.7871 143.355 93.7724 143.747C93.7528 144.214 94.1009 144.595 94.5274 144.579C95.8757 144.525 98.6459 144.933 100.347 148.759Z" fill="#12122D"/>
<path d="M89.154 160.275C88.9677 160.254 88.7863 160.141 88.6833 159.953C88.5019 159.631 88.5951 159.207 88.8892 159.009L90.6788 157.802L89.2766 157.238C89.0412 157.141 88.8843 156.905 88.8696 156.637L88.6294 152.221C88.6098 151.84 88.8745 151.518 89.2177 151.496C89.5609 151.469 89.86 151.759 89.8796 152.14L90.0953 156.106L92.3262 157.002C92.5517 157.093 92.7086 157.319 92.7331 157.576C92.7576 157.839 92.6448 158.091 92.4389 158.231L89.556 160.179C89.4335 160.259 89.2962 160.291 89.1638 160.275H89.154Z" fill="#F58A69"/>
<path d="M89.6785 170.246C88.6342 170.273 87.4379 170.037 86.2269 169.248C86.0209 169.114 85.9523 168.819 86.0749 168.593C86.1974 168.368 86.4671 168.293 86.673 168.427C89.5902 170.326 92.4241 168.518 92.5418 168.438C92.7477 168.303 93.0174 168.373 93.1399 168.604C93.2625 168.829 93.1988 169.124 92.9928 169.259C92.9046 169.318 91.5367 170.198 89.6785 170.246Z" fill="#F58A69"/>
</g>
<defs>
<clipPath id="clip0_3_573">
<rect width="471" height="454" fill="white"/>
</clipPath>
</defs>
</svg>
