<svg width="997" height="656" viewBox="0 0 997 656" fill="none" xmlns="http://www.w3.org/2000/svg">
<g clip-path="url(#clip0_6_5877)">
<path d="M456.91 218.115C495.34 212.673 531.777 197.642 563.214 174.859C610.173 140.827 708.424 82.9364 802.151 111.779C931.428 151.554 932.014 266.64 898.33 329.151C864.661 391.662 625.852 574.717 316.256 545.589C39.2215 519.515 -14.7615 221.169 132.996 167.186C261.15 120.354 304.865 239.664 456.91 218.115Z" fill="#7775B7"/>
<g opacity="0.06">
<path d="M777.422 447.227C777.422 447.227 796.756 438.383 804.302 453.745C811.849 469.108 784.241 484.866 769.226 480.341C754.196 475.816 756.838 453.176 777.422 447.227Z" fill="black"/>
</g>
<g opacity="0.06">
<path d="M472.146 170.224C472.146 170.224 493.188 163.626 498.963 180.413C504.738 197.199 474.297 209.841 459.425 203.227C444.553 196.63 450.201 173.673 472.146 170.208V170.224Z" fill="black"/>
</g>
<path d="M396.25 5.41096V119.057C396.25 122.047 393.829 124.452 390.855 124.452H198.497C195.507 124.452 193.102 122.031 193.102 119.057V5.39514C193.086 2.42069 195.507 0 198.497 0H390.855C393.845 0 396.25 2.42069 396.25 5.41096Z" fill="white"/>
<path d="M277.968 69.7887C277.968 79.0127 274.472 87.4297 268.744 93.7741C262.194 101.036 252.717 105.593 242.164 105.593C222.387 105.593 206.36 89.5656 206.36 69.7887C206.36 64.884 207.341 60.2167 209.129 55.9449L242.164 69.7887L240.471 34.0321C241.025 34.0004 241.595 33.9846 242.164 33.9846C261.941 33.9846 277.968 50.0118 277.968 69.7887Z" fill="#5C4DA0"/>
<path d="M236.911 28.1306C226.216 28.6211 216.755 33.8105 210.521 41.6897C208.512 44.2211 206.851 47.0373 205.585 50.0592L238.604 63.8872L236.911 28.1306Z" fill="#675FA6"/>
<path d="M364.148 45.1388H359.228V50.0593H364.148V45.1388Z" fill="#3E3D98"/>
<path d="M385.08 46.9741H367.455C367.428 46.9741 367.407 46.9954 367.407 47.0216V48.1607C367.407 48.1869 367.428 48.2082 367.455 48.2082H385.08C385.106 48.2082 385.127 48.1869 385.127 48.1607V47.0216C385.127 46.9954 385.106 46.9741 385.08 46.9741Z" fill="#E8D3E7"/>
<path d="M364.148 36.3737H359.228V41.2941H364.148V36.3737Z" fill="#3E3D98"/>
<path d="M385.08 38.209H367.455C367.428 38.209 367.407 38.2302 367.407 38.2565V39.3956C367.407 39.4218 367.428 39.4431 367.455 39.4431H385.08C385.106 39.4431 385.127 39.4218 385.127 39.3956V38.2565C385.127 38.2302 385.106 38.209 385.08 38.209Z" fill="#E8D3E7"/>
<path d="M364.148 53.8881H359.228V58.8085H364.148V53.8881Z" fill="#675FA6"/>
<path d="M385.08 55.7391H367.455C367.428 55.7391 367.407 55.7604 367.407 55.7866V56.9257C367.407 56.952 367.428 56.9732 367.455 56.9732H385.08C385.106 56.9732 385.127 56.952 385.127 56.9257V55.7866C385.127 55.7604 385.106 55.7391 385.08 55.7391Z" fill="#E8D3E7"/>
<path d="M384.51 74.2187H359.845C359.512 74.2187 359.228 73.9497 359.228 73.6017C359.228 73.2694 359.497 72.9846 359.845 72.9846H384.51C384.843 72.9846 385.127 73.2536 385.127 73.6017C385.127 73.9339 384.858 74.2187 384.51 74.2187Z" fill="#E8D3E7"/>
<path d="M384.51 79.2658H359.845C359.512 79.2658 359.228 78.9968 359.228 78.6488C359.228 78.3165 359.497 78.0317 359.845 78.0317H384.51C384.843 78.0317 385.127 78.3007 385.127 78.6488C385.127 78.981 384.858 79.2658 384.51 79.2658Z" fill="#E8D3E7"/>
<path d="M384.51 84.3287H359.845C359.512 84.3287 359.228 84.0597 359.228 83.7116C359.228 83.3794 359.497 83.0946 359.845 83.0946H384.51C384.843 83.0946 385.127 83.3636 385.127 83.7116C385.127 84.0439 384.858 84.3287 384.51 84.3287Z" fill="#E8D3E7"/>
<path d="M384.51 89.3757H359.845C359.512 89.3757 359.228 89.1067 359.228 88.7586C359.228 88.4264 359.497 88.1416 359.845 88.1416H384.51C384.843 88.1416 385.127 88.4106 385.127 88.7586C385.127 89.0909 384.858 89.3757 384.51 89.3757Z" fill="#E8D3E7"/>
<path d="M384.51 94.4385H359.845C359.512 94.4385 359.228 94.1696 359.228 93.8215C359.228 93.4893 359.497 93.2045 359.845 93.2045H384.51C384.843 93.2045 385.127 93.4734 385.127 93.8215C385.127 94.1538 384.858 94.4385 384.51 94.4385Z" fill="#E8D3E7"/>
<path d="M384.51 99.4857H359.845C359.512 99.4857 359.228 99.2167 359.228 98.8686C359.228 98.5364 359.497 98.2516 359.845 98.2516H384.51C384.843 98.2516 385.127 98.5206 385.127 98.8686C385.127 99.2009 384.858 99.4857 384.51 99.4857Z" fill="#E8D3E7"/>
<path d="M384.51 104.549H359.845C359.512 104.549 359.228 104.28 359.228 103.931C359.228 103.599 359.497 103.314 359.845 103.314H384.51C384.843 103.314 385.127 103.583 385.127 103.931C385.127 104.264 384.858 104.549 384.51 104.549Z" fill="#E8D3E7"/>
<path d="M396.25 5.41096V14.888H193.086V5.39514C193.086 2.42069 195.507 0 198.497 0H390.855C393.845 0 396.25 2.42069 396.25 5.41096Z" fill="#28100C"/>
<path d="M374.843 7.45195C374.843 8.82842 373.72 9.95175 372.344 9.95175C370.967 9.95175 369.844 8.82842 369.844 7.45195C369.844 6.07548 370.967 4.95215 372.344 4.95215C373.72 4.95215 374.843 6.07548 374.843 7.45195Z" fill="#675FA6"/>
<path d="M382.96 7.45195C382.96 8.82842 381.836 9.95175 380.46 9.95175C379.084 9.95175 377.96 8.82842 377.96 7.45195C377.96 6.07548 379.084 4.95215 380.46 4.95215C381.836 4.95215 382.96 6.07548 382.96 7.45195Z" fill="#5C4DA0"/>
<path d="M390.728 7.45195C390.728 8.82842 389.605 9.95175 388.228 9.95175C386.852 9.95175 385.729 8.82842 385.729 7.45195C385.729 6.07548 386.852 4.95215 388.228 4.95215C389.605 4.95215 390.728 6.07548 390.728 7.45195Z" fill="#3E3D98"/>
<path d="M277.968 69.7887C277.968 79.0126 274.472 87.4297 268.744 93.7741L242.164 69.7887L240.471 34.0321C241.025 34.0004 241.595 33.9846 242.164 33.9846C261.941 33.9846 277.968 50.0118 277.968 69.7887Z" fill="#3E3D98"/>
<path d="M324.214 60.7388H312.823V109.58H324.214V60.7388Z" fill="#5C4DA0"/>
<path d="M312.823 96.701C316.857 95.4511 320.655 93.2203 324.214 90.8154V109.58H312.823V96.701Z" fill="#3E3D98"/>
<path d="M305.577 74.3137H294.185V109.58H305.577V74.3137Z" fill="#5C4DA0"/>
<path d="M303.473 97.5239C304.184 97.6347 304.881 97.698 305.577 97.7138V109.58H294.185V97.8245C296.195 97.16 299.153 96.8911 303.473 97.5239Z" fill="#3E3D98"/>
<path d="M342.836 46.1514H331.445V109.58H342.836V46.1514Z" fill="#5C4DA0"/>
<path d="M342.852 80.9112V109.58H331.461V85.7842C335.511 83.0313 339.292 80.8954 342.852 80.9112Z" fill="#3E3D98"/>
<path d="M342.393 27.656L332.11 29.8552L334.878 32.5607L319.136 48.6195L313.614 43.1928L294.075 63.112C293.331 63.8715 293.347 65.0897 294.106 65.8333C294.866 66.577 296.084 66.5611 296.828 65.8017L313.677 48.6354L319.199 54.0621L337.647 35.2504L340.416 37.9558L342.425 27.6244L342.393 27.656Z" fill="#5C4DA0"/>
<path d="M304.169 355.193V162.677C304.169 159.734 301.78 157.345 298.837 157.345H201.408C198.465 157.345 196.076 159.734 196.076 162.677V355.193C196.076 361.142 200.902 365.983 206.866 365.983H293.394C299.343 365.983 304.184 361.158 304.184 355.193H304.169Z" fill="white"/>
<path d="M287.983 303.552H215.98C214.666 303.552 213.606 302.492 213.606 301.178C213.606 299.865 214.666 298.805 215.98 298.805H287.983C289.296 298.805 290.357 299.865 290.357 301.178C290.357 302.492 289.296 303.552 287.983 303.552Z" fill="#E8D3E7"/>
<path d="M287.983 318.614H215.98C214.666 318.614 213.606 317.554 213.606 316.241C213.606 314.927 214.666 313.867 215.98 313.867H287.983C289.296 313.867 290.357 314.927 290.357 316.241C290.357 317.554 289.296 318.614 287.983 318.614Z" fill="#E8D3E7"/>
<path d="M287.983 333.676H215.98C214.666 333.676 213.606 332.616 213.606 331.303C213.606 329.989 214.666 328.929 215.98 328.929H287.983C289.296 328.929 290.357 329.989 290.357 331.303C290.357 332.616 289.296 333.676 287.983 333.676Z" fill="#E8D3E7"/>
<path d="M287.983 348.738H215.98C214.666 348.738 213.606 347.678 213.606 346.365C213.606 345.051 214.666 343.991 215.98 343.991H287.983C289.296 343.991 290.357 345.051 290.357 346.365C290.357 347.678 289.296 348.738 287.983 348.738Z" fill="#E8D3E7"/>
<path d="M304.169 162.677V177.454H196.076V162.677C196.076 159.734 198.465 157.345 201.408 157.345H298.837C301.78 157.345 304.169 159.734 304.169 162.677Z" fill="#28100C"/>
<path d="M278 166.427C278 168.373 276.434 169.939 274.487 169.939C272.541 169.939 270.975 168.373 270.975 166.427C270.975 164.481 272.541 162.914 274.487 162.914C276.434 162.914 278 164.481 278 166.427Z" fill="#675FA6"/>
<path d="M289.391 166.427C289.391 168.373 287.825 169.939 285.879 169.939C283.933 169.939 282.367 168.373 282.367 166.427C282.367 164.481 283.933 162.914 285.879 162.914C287.825 162.914 289.391 164.481 289.391 166.427Z" fill="#5C4DA0"/>
<path d="M300.292 166.427C300.292 168.373 298.726 169.939 296.78 169.939C294.834 169.939 293.268 168.373 293.268 166.427C293.268 164.481 294.834 162.914 296.78 162.914C298.726 162.914 300.292 164.481 300.292 166.427Z" fill="#3E3D98"/>
<path d="M229.633 259.853H217.483V289.233H229.633V259.853Z" fill="#5C4DA0"/>
<path d="M247.559 238.984H235.408V289.217H247.559V238.984Z" fill="#3E3D98"/>
<path d="M267.415 223.59H255.264V289.233H267.415V223.59Z" fill="#675FA6"/>
<path d="M286.876 205.521H274.725V289.217H286.876V205.521Z" fill="#5C4DA0"/>
<path d="M264.472 192.659L272.889 195.744L271.924 185.871L264.472 192.659Z" fill="#E8D3E7"/>
<path d="M214.128 245.582C213.764 245.582 213.416 245.36 213.274 244.996C213.1 244.522 213.337 243.999 213.812 243.825C214.176 243.683 250.771 229.665 268.618 191.994C268.839 191.535 269.377 191.345 269.836 191.567C270.295 191.788 270.485 192.326 270.263 192.785C252.084 231.152 214.825 245.408 214.461 245.55C214.35 245.582 214.255 245.613 214.144 245.613L214.128 245.582Z" fill="#E8D3E7"/>
<path d="M434.902 7.43609V37.4812C434.902 41.4524 438.129 44.6799 442.101 44.6799H496.653L513.123 50.5814C514.816 51.1826 516.43 49.5213 515.781 47.8601L509.548 31.7696V7.43609C509.548 3.46489 506.32 0.237305 502.349 0.237305H442.085C438.114 0.237305 434.886 3.46489 434.886 7.43609H434.902Z" fill="#5C4DA0"/>
<path d="M482.287 23.3209C482.287 26.2004 484.613 28.5262 487.493 28.5262C490.372 28.5262 492.698 26.2004 492.698 23.3209C492.698 20.4414 490.372 18.1156 487.493 18.1156C484.613 18.1156 482.287 20.4414 482.287 23.3209Z" fill="#4A429A"/>
<path d="M465.817 23.3209C465.817 26.2004 468.143 28.5262 471.022 28.5262C473.902 28.5262 476.228 26.2004 476.228 23.3209C476.228 20.4414 473.902 18.1156 471.022 18.1156C468.143 18.1156 465.817 20.4414 465.817 23.3209Z" fill="#4A429A"/>
<path d="M449.347 23.3209C449.347 26.2004 451.673 28.5262 454.552 28.5262C457.432 28.5262 459.757 26.2004 459.757 23.3209C459.757 20.4414 457.432 18.1156 454.552 18.1156C451.673 18.1156 449.347 20.4414 449.347 23.3209Z" fill="#4A429A"/>
<path d="M586.219 9.74609H612.198C613.875 9.74609 615.22 11.1067 615.22 12.768V38.7469C615.22 40.424 613.859 41.7688 612.198 41.7688H586.219C584.542 41.7688 583.197 40.4082 583.197 38.7469V12.7838C583.197 11.1067 584.558 9.76192 586.219 9.76192V9.74609Z" fill="#675FA6"/>
<path d="M608.258 19.1757C608.211 18.9542 608.147 18.7327 608.1 18.5112C607.91 17.736 607.53 17.0556 607.008 16.4386C606.629 16.0114 606.201 15.6317 605.711 15.3469C605.031 14.9514 604.271 15.1254 603.765 15.7266C602.879 16.8025 601.977 17.8784 601.107 18.97C600.569 19.6345 600.648 20.5522 601.328 21.1376C601.803 21.5648 602.309 21.9603 602.816 22.3717C602.879 22.4191 602.958 22.4666 603.005 22.4982C601.819 25.6784 599.81 28.1465 596.93 29.9185C596.582 29.6337 596.218 29.3173 595.854 29.0167C595.664 28.8585 595.474 28.7003 595.285 28.5579C594.699 28.1149 594.035 28.0674 593.433 28.463C593.244 28.5895 593.085 28.7794 592.943 28.9534C592.136 29.9344 591.345 30.9153 590.538 31.8804C590.285 32.181 590.127 32.5291 590.063 32.9246L590.111 33.3518C590.253 33.5891 590.348 33.8897 590.538 34.0796C591.013 34.5542 591.535 34.9656 592.152 35.2504C592.88 35.5826 593.639 35.7725 594.43 35.7092C594.952 35.6617 595.474 35.551 595.981 35.4086C597.278 35.0447 598.481 34.4277 599.588 33.6682C600.696 32.9246 601.708 32.0544 602.626 31.0893C603.876 29.792 604.983 28.3838 605.996 26.8808C606.787 25.71 607.467 24.4759 607.926 23.1153C608.147 22.435 608.306 21.7388 608.353 21.011C608.369 20.7262 608.385 20.4256 608.385 20.1408L608.29 19.1441L608.258 19.1757Z" fill="white"/>
<path d="M659.362 9.17651H632.259C630.765 9.17651 629.554 10.3878 629.554 11.882V38.9842C629.554 40.4784 630.765 41.6897 632.259 41.6897H659.362C660.856 41.6897 662.067 40.4784 662.067 38.9842V11.882C662.067 10.3878 660.856 9.17651 659.362 9.17651Z" fill="#5C4DA0"/>
<path d="M656.181 24.8239C656.181 28.8742 653.903 30.9785 651.198 30.9785C649.6 30.9785 648.445 30.3615 647.844 29.1274C647.242 30.2982 646.23 30.9785 644.616 30.9785C642.322 30.9785 640.123 28.9692 640.123 25.6941C640.123 22.4191 642.259 20.4256 644.616 20.4256C645.739 20.4256 646.609 20.7895 647.227 21.4698V20.6154H651.308V26.6909C651.308 27.5769 651.672 27.8617 652.131 27.8617C652.732 27.8617 653.207 27.2605 653.207 24.8872C653.207 21.0426 650.343 18.3371 645.977 18.3371C641.61 18.3371 638.699 21.3907 638.699 25.4252C638.699 29.4596 641.562 32.5607 645.898 32.5607C647.306 32.5607 648.745 32.2917 650.185 31.6272L651.071 34.2377C649.805 34.8548 647.78 35.2503 645.898 35.2503C639.506 35.2503 635.408 30.9785 635.408 25.4252C635.408 19.8718 639.506 15.6475 645.977 15.6475C652.084 15.6475 656.181 19.7452 656.181 24.8398V24.8239ZM647.306 25.6941C647.306 24.4284 646.641 23.7639 645.771 23.7639C644.901 23.7639 644.268 24.4284 644.268 25.6941C644.268 26.9598 644.901 27.6402 645.771 27.6402C646.641 27.6402 647.306 26.9757 647.306 25.6941Z" fill="white"/>
<path d="M703.171 9.17651H676.069C674.575 9.17651 673.364 10.3878 673.364 11.882V38.9842C673.364 40.4784 674.575 41.6897 676.069 41.6897H703.171C704.666 41.6897 705.877 40.4784 705.877 38.9842V11.882C705.877 10.3878 704.666 9.17651 703.171 9.17651Z" fill="#3E3D98"/>
<path d="M691.305 32.9247V35.2346L688.347 35.203V32.9879C686.274 32.8455 684.265 32.2602 683.015 31.4849L684.629 27.9092C686.005 28.732 687.825 29.2699 689.438 29.2857C690.831 29.2857 691.337 29.0167 691.337 28.5105C691.337 26.6752 683.268 28.0833 683.316 22.6565C683.331 20.2991 685.056 18.3372 688.489 17.8784V15.6001L691.448 15.6317V17.8626C692.967 18.0208 694.47 18.4321 695.656 19.1125L694.153 22.6723C692.713 21.9287 691.369 21.5648 690.103 21.549C688.663 21.549 688.204 21.9445 688.204 22.4508C688.204 24.207 696.273 22.8147 696.226 28.194C696.21 30.4407 694.565 32.3867 691.337 32.9247H691.305Z" fill="white"/>
<g opacity="0.06">
<path d="M794.73 612.372C794.73 616.944 839.806 620.646 895.403 620.646C951 620.646 996.075 616.944 996.075 612.372C996.075 607.799 951 604.097 895.403 604.097C839.806 604.097 794.73 607.799 794.73 612.372Z" fill="black"/>
</g>
<path d="M960.049 531.682H834.537C833.742 531.682 833.098 532.327 833.098 533.122V540.416C833.098 541.211 833.742 541.855 834.537 541.855H960.049C960.845 541.855 961.489 541.211 961.489 540.416V533.122C961.489 532.327 960.845 531.682 960.049 531.682Z" fill="#3D2027"/>
<path d="M955.841 419.001H838.477C836.528 419.001 834.949 420.581 834.949 422.529V436.959C834.949 438.907 836.528 440.487 838.477 440.487H955.841C957.79 440.487 959.369 438.907 959.369 436.959V422.529C959.369 420.581 957.79 419.001 955.841 419.001Z" fill="#8C5D55"/>
<path d="M898.33 363.12H909.737C909.737 363.12 910.291 361.981 911.272 359.908C911.746 358.927 912.3 357.74 912.949 356.364C914.578 352.915 916.699 348.295 919.167 342.836C919.183 342.789 919.214 342.742 919.23 342.694C934.608 308.504 962.201 242.117 950.92 228.906C938.105 213.907 922.806 236.374 911.683 278.886C910.924 281.813 910.18 284.819 909.452 287.92C905.465 305.055 902.143 324.911 899.849 346.523C899.501 349.766 899.184 353.041 898.884 356.348C898.678 358.579 898.488 360.841 898.314 363.12H898.33Z" fill="#5C4DA0"/>
<path d="M898.899 356.364L902.333 363.135H909.737C909.737 363.135 910.291 361.996 911.272 359.924L911.683 278.902C906.066 300.356 901.526 326.936 898.899 356.364Z" fill="#4A429A"/>
<path d="M901.921 363.12H903.788L939.719 245.408C939.861 244.933 939.592 244.442 939.133 244.3C938.659 244.158 938.168 244.427 938.026 244.901L901.937 363.12H901.921Z" fill="white"/>
<path d="M869.171 339.229C870.009 341.128 870.832 342.947 871.607 344.672C873.712 349.323 875.563 353.294 876.987 356.348C878.996 360.636 880.198 363.12 880.198 363.12H891.606C891.432 360.857 891.242 358.595 891.036 356.348C890.751 353.2 890.451 350.067 890.118 346.982C887.903 325.876 884.692 306.431 880.847 289.55C880.246 286.939 879.645 284.376 879.012 281.892C867.842 237.434 852.131 213.543 839.015 228.89C828.098 241.658 853.555 304.184 869.155 339.213L869.171 339.229Z" fill="#5C4DA0"/>
<path d="M891.036 356.364L887.603 363.135H880.198C880.198 363.135 879.645 361.996 878.664 359.924L878.252 278.902C883.869 300.356 888.41 326.936 891.036 356.364Z" fill="#4A429A"/>
<path d="M888.014 363.12H886.147L850.217 245.408C850.074 244.933 850.343 244.442 850.802 244.3C851.277 244.158 851.767 244.427 851.909 244.901L887.998 363.12H888.014Z" fill="white"/>
<path d="M880.863 289.565C882.461 312.079 884.676 333.122 886.258 346.887C887.413 356.949 888.236 363.12 888.236 363.12H898.33C899.516 357.471 900.592 351.871 901.605 346.349C905.339 325.797 907.918 306.115 909.452 287.936C915.354 218.258 906.098 170.888 889.122 183.498C876.939 192.548 877.635 244.031 880.863 289.581V289.565Z" fill="#5C4DA0"/>
<path d="M871.607 344.672C873.712 349.323 875.563 353.294 876.987 356.348C878.996 360.636 880.198 363.12 880.198 363.12H909.737C909.737 363.12 910.291 361.98 911.272 359.908C911.746 358.927 912.3 357.74 912.949 356.364C914.579 352.915 916.699 348.295 919.167 342.836C915.544 343.881 909.247 345.463 901.621 346.349C901.051 346.412 900.466 346.475 899.865 346.539C896.795 346.839 893.52 347.013 890.134 346.997C888.853 346.997 887.571 346.966 886.258 346.903C881.464 346.665 876.496 345.985 871.607 344.688V344.672Z" fill="#4A429A"/>
<path d="M894.153 205.253L895.355 363.135H897.143L895.941 205.253C895.941 204.762 895.529 204.382 895.039 204.367C894.548 204.367 894.153 204.778 894.153 205.268V205.253Z" fill="white"/>
<path d="M843.429 361.901L844.901 365.825L845.834 368.309L848.508 375.413L849.441 377.897L852.194 385.191L853.128 387.675L864.931 419.001H929.372L941.174 387.675L942.108 385.191L944.861 377.897L945.794 375.413L948.468 368.309L949.402 365.825L950.873 361.901C951.886 359.212 949.908 356.348 947.028 356.348H847.258C844.394 356.348 842.417 359.212 843.413 361.901H843.429Z" fill="#FBB416"/>
<path d="M844.916 365.825L845.834 368.309H948.468L949.402 365.825H844.916Z" fill="#F8A81B"/>
<path d="M848.524 375.413L849.457 377.897H944.861L945.794 375.413H848.524Z" fill="#F8A81B"/>
<path d="M852.21 385.191L853.143 387.675H941.174L942.108 385.191H852.21Z" fill="#F8A81B"/>
<path d="M914.42 440.487L917.996 452.005L967.739 612.372H977.469L945.921 455.28L942.946 440.487H914.42Z" fill="#6E4945"/>
<path d="M942.946 440.487H914.42L917.996 452.005L945.921 455.28L942.946 440.487Z" fill="#3D2027"/>
<path d="M816.548 612.372H826.279L877.509 447.258L879.597 440.487H851.087L850.359 444.078L816.548 612.372Z" fill="#6E4945"/>
<path d="M850.359 444.078L877.509 447.258L879.597 440.487H851.087L850.359 444.078Z" fill="#3D2027"/>
<path d="M837.006 519.737H957.55C959.717 519.737 961.474 517.98 961.474 515.813V513.487C961.474 511.32 959.717 509.564 957.55 509.564H837.006C834.839 509.564 833.082 511.32 833.082 513.487V515.813C833.082 517.98 834.839 519.737 837.006 519.737Z" fill="#8C5D55"/>
<path d="M164.949 127.765C182.484 110.229 182.484 81.7994 164.949 64.2643C147.414 46.7292 118.984 46.7292 101.449 64.2643C83.9139 81.7994 83.9139 110.229 101.449 127.765C118.984 145.3 147.414 145.3 164.949 127.765Z" fill="#F2D6BA"/>
<path d="M164.95 121.912C182.486 104.377 182.486 75.9466 164.95 58.4115C147.415 40.8764 118.985 40.8764 101.45 58.4115C83.9151 75.9466 83.9151 104.377 101.45 121.912C118.985 139.447 147.415 139.447 164.95 121.912Z" fill="#FBB416"/>
<path d="M169.257 95.9639C172.464 76.0532 158.923 57.3127 139.012 54.1057C119.102 50.8987 100.361 64.4397 97.1542 84.3503C93.9473 104.261 107.488 123.002 127.399 126.209C147.31 129.415 166.05 115.875 169.257 95.9639Z" fill="white"/>
<path d="M96.7011 90.1668C96.7011 91.1319 96.7328 92.097 96.8119 93.0463C98.2833 74.2504 114.057 59.4256 133.201 59.4256C152.345 59.4256 168.119 74.2662 169.591 93.0463C169.67 92.097 169.702 91.1319 169.702 90.1668C169.702 70.026 153.326 53.6508 133.186 53.6508C113.061 53.6508 96.6695 70.026 96.6695 90.1668H96.7011Z" fill="#F2D6BA"/>
<path d="M133.201 93.964C133.486 93.964 133.755 93.8374 133.929 93.6001L151.839 69.4881C152.14 69.0767 152.061 68.5072 151.649 68.2066C151.238 67.906 150.668 67.9851 150.368 68.3964L132.885 91.923L113.029 83.2054C112.57 82.9997 112.032 83.2054 111.827 83.68C111.621 84.1388 111.827 84.6768 112.301 84.8824L132.822 93.8849C132.948 93.9324 133.059 93.964 133.186 93.964H133.201Z" fill="#28100C"/>
<g opacity="0.06">
<path d="M7.07227 614.713C7.07227 620.488 45.9457 625.171 93.9007 625.171C141.856 625.171 180.729 620.488 180.729 614.713C180.729 608.939 141.856 604.255 93.9007 604.255C45.9457 604.255 7.07227 608.939 7.07227 614.713Z" fill="black"/>
</g>
<path d="M12.9262 317.696L33.1936 614.065H154.608L174.875 317.696H12.9262Z" fill="#6E4945"/>
<path d="M14.2711 337.441L172.898 346.586L174.037 329.958H13.7648L14.2711 337.441Z" fill="#3D2027"/>
<path d="M180.919 311.573H6.88238C4.85517 311.573 3.21179 313.217 3.21179 315.244V326.287C3.21179 328.314 4.85517 329.958 6.88238 329.958H180.919C182.946 329.958 184.59 328.314 184.59 326.287V315.244C184.59 313.217 182.946 311.573 180.919 311.573Z" fill="#8C5D55"/>
<path d="M31.0735 363.721L35.0447 433.873H152.757L156.728 363.721H31.0735Z" fill="#3D2027"/>
<path d="M88.0309 401.692C88.0309 404.936 90.6573 407.562 93.9007 407.562C97.1441 407.562 99.7705 404.936 99.7705 401.692C99.7705 398.449 97.1441 395.823 93.9007 395.823C90.6573 395.823 88.0309 398.449 88.0309 401.692Z" fill="#6E4945"/>
<path d="M36.611 450.312L40.2342 514.278H147.567L151.19 450.312H36.611Z" fill="#3D2027"/>
<path d="M88.0309 484.613C88.0309 487.856 90.6573 490.483 93.9007 490.483C97.1441 490.483 99.7705 487.856 99.7705 484.613C99.7705 481.37 97.1441 478.743 93.9007 478.743C90.6573 478.743 88.0309 481.37 88.0309 484.613Z" fill="#6E4945"/>
<path d="M41.3891 530.432L44.7116 589.067H143.074L146.412 530.432H41.3891Z" fill="#3D2027"/>
<path d="M88.0309 559.749C88.0309 562.993 90.6573 565.619 93.9007 565.619C97.1441 565.619 99.7705 562.993 99.7705 559.749C99.7705 556.506 97.1441 553.88 93.9007 553.88C90.6573 553.88 88.0309 556.506 88.0309 559.749Z" fill="#6E4945"/>
<path d="M41.9745 207.262C43.7623 217.071 45.8191 224.666 45.8191 224.666C45.8191 224.666 50.7396 235.646 55.138 238.889C58.2073 241.152 61.0078 239.633 61.6881 227.956C61.7988 226.058 61.8621 223.89 61.8463 221.438C61.8463 221.438 62.5424 215.837 62.8747 208.132C63.6025 191.377 62.6216 164.702 49.0783 164.212C36.2946 163.753 38.6994 189.241 41.9745 207.246V207.262Z" fill="#5C4DA0"/>
<path d="M62.8589 208.132C60.897 212.072 57.622 216.375 52.8913 216.011C47.9867 215.631 44.2528 211.075 41.9587 207.262C43.7465 217.071 45.8033 224.666 45.8033 224.666C45.8033 224.666 50.7238 235.646 55.1222 238.889C57.8118 237.196 60.0268 233.241 61.6723 227.956L62.8589 208.132Z" fill="#3E3D98"/>
<path d="M54.5209 236.247C54.9323 236.247 55.2804 235.931 55.2962 235.519C56.0556 223.875 52.1477 186.14 51.9737 184.526C51.9262 184.099 51.5465 183.783 51.1193 183.83C50.6921 183.878 50.3757 184.257 50.4232 184.685C50.4706 185.08 54.4893 223.906 53.7457 235.408C53.714 235.836 54.0463 236.215 54.4735 236.247H54.5209Z" fill="white"/>
<path d="M51.325 258.808H67.6686C67.6686 258.808 82.5567 257.701 77.9052 245.139C73.2536 232.561 79.2342 229.586 86.4171 221.311C93.6001 213.037 104.359 195.507 92.3977 190.111C80.4366 184.716 68.4755 197.722 63.6658 211.613C62.1786 215.9 61.6881 219.903 61.166 223.78C60.8812 225.868 60.5964 227.909 60.1218 229.934C59.2991 233.51 57.9226 237.054 55.138 240.661C55.0589 240.756 54.9956 240.851 54.9165 240.946C47.338 250.518 51.325 258.824 51.325 258.824V258.808Z" fill="#5C4DA0"/>
<path d="M51.325 258.808H65.596C68.254 246.135 63.65 235.725 60.106 229.918C59.2833 233.494 57.9068 237.038 55.1222 240.645C55.0431 240.74 54.9798 240.835 54.9007 240.93C47.3222 250.502 51.3092 258.808 51.3092 258.808H51.325Z" fill="#3E3D98"/>
<path d="M63.0329 258.476C63.4601 258.476 63.8082 258.144 63.8082 257.717C64.5835 229.602 83.3952 205.253 83.5851 204.999C83.8541 204.651 83.7908 204.161 83.4585 203.908C83.1263 203.639 82.62 203.702 82.3668 204.034C82.177 204.287 63.0646 229.032 62.2577 257.669C62.2577 258.096 62.5899 258.46 63.0171 258.476H63.0329Z" fill="white"/>
<path d="M13.4325 221.296C25.7891 231.358 32.181 232.45 30.583 242.069C30.0609 245.249 29.6179 248.335 29.6179 251.087C29.6179 256.657 31.4848 260.818 38.1615 261.482C48.1291 262.479 56.4986 258.808 56.4986 258.808C56.4986 258.808 59.4731 251.704 59.9161 243.319C60.3433 235.519 58.5871 226.627 50.265 221.296C32.9721 210.236 36.168 166.521 13.4325 170.635C-9.30303 174.749 1.07588 211.233 13.4325 221.296Z" fill="#5C4DA0"/>
<path d="M29.6179 251.087C29.6179 256.657 31.4848 260.818 38.1615 261.482C48.129 262.479 56.4986 258.808 56.4986 258.808C56.4986 258.808 59.4731 251.704 59.9161 243.319C56.0556 245.724 44.0787 252.258 29.6021 251.087H29.6179Z" fill="#3E3D98"/>
<path d="M46.8317 257.02C47.2272 257.02 47.5595 256.736 47.6069 256.324C47.6386 256.103 50.0751 234.237 35.8041 220.963C21.9919 208.116 16.5493 187.058 16.486 186.852C16.3753 186.425 15.9481 186.172 15.5367 186.282C15.1254 186.393 14.8564 186.82 14.9672 187.232C15.0146 187.453 20.568 208.939 34.7282 222.102C48.4297 234.839 46.0723 255.913 46.0406 256.134C45.9931 256.562 46.2938 256.957 46.7209 257.005C46.7526 257.005 46.7842 257.005 46.8159 257.005L46.8317 257.02Z" fill="white"/>
<path d="M31.1684 311.842L27.1814 277.747L26.9915 276.165L26.4377 271.481L26.2637 269.899L25.7258 265.343L25.5359 263.745L24.4126 254.173H81.3859L80.2625 263.745L80.0727 265.343L79.5348 269.899L79.3449 271.481L78.807 276.165L78.6171 277.747L74.6143 311.842H31.1684Z" fill="#FBB416"/>
<path d="M25.5359 263.745L25.7258 265.343H80.0727L80.2626 263.745H25.5359Z" fill="#F8A81B"/>
<path d="M26.2637 269.899L26.4378 271.481H79.3449L79.5348 269.899H26.2637Z" fill="#F8A81B"/>
<path d="M26.9915 276.165L27.1814 277.747H78.6171L78.807 276.165H26.9915Z" fill="#F8A81B"/>
<path d="M115.418 257.289L115.829 262.083L116.051 264.536L116.256 266.861L116.541 270.137L116.668 271.671L117.269 278.538L117.934 285.99L117.949 286.338L118.361 291.068L118.566 293.378L118.693 294.881L119.357 302.492L120.18 311.937H146.428L146.618 309.769L147.409 300.593L147.899 295.055L148.042 293.378L148.248 291.068L148.691 285.99L148.706 285.831L149.181 280.31L149.94 271.671L149.988 271.054L150.352 266.861L150.463 265.564L150.558 264.536L151.19 257.289H115.418Z" fill="#4A429A"/>
<path d="M116.051 264.536L116.256 266.862H150.352L150.463 265.564L150.558 264.536H116.051Z" fill="#3E3D98"/>
<path d="M118.361 291.068L118.566 293.378H148.042L148.248 291.068H118.361Z" fill="#3E3D98"/>
<path d="M116.668 271.671L117.269 278.538L117.934 285.99H148.691L148.706 285.832L149.181 280.31L149.925 271.671H116.668Z" fill="white"/>
<path d="M153.026 250.312H113.583V257.305H153.026V250.312Z" fill="#4A429A"/>
<path d="M116.557 250.312H150.067V246.721C150.067 245.423 149.023 244.379 147.725 244.379H118.899C117.601 244.379 116.557 245.423 116.557 246.721V250.312Z" fill="#3E3D98"/>
<path d="M895.672 85.0091H954.101L962.644 26.5802H904.231L895.672 85.0091Z" fill="#8C5D55"/>
<path d="M962.644 26.5802L970.745 85.0091H954.101L962.644 26.5802Z" fill="#3D2027"/>
<path d="M950.541 80.8479L957.882 30.7412H907.775L900.45 80.8479H950.541Z" fill="#DFDBC8"/>
<path d="M949.829 80.0095L956.917 31.5798H908.487L901.399 80.0095H949.829Z" fill="white"/>
<path d="M912.838 37.4971L907.49 74.0764H945.51L950.857 37.4971H912.838Z" fill="#E5C09F"/>
<path d="M942.077 58.874C944.675 52.6014 941.696 45.4101 935.424 42.8119C929.151 40.2137 921.96 43.1925 919.362 49.4651C916.763 55.7377 919.742 62.9289 926.015 65.5271C932.287 68.1253 939.479 65.1466 942.077 58.874Z" fill="#F2D6BA"/>
<path d="M931.903 55.1222C931.903 55.1222 924.198 46.0881 911.509 46.7052L907.506 74.0922L931.919 55.138L931.903 55.1222Z" fill="#00443C"/>
<path d="M949.101 49.5372C949.101 49.5372 938.216 47.3222 926.903 55.8025C915.591 64.2828 907.49 74.0922 907.49 74.0922H945.51L949.101 49.5372Z" fill="#006D61"/>
<g opacity="0.06">
<path d="M748.5 109.358H992.373L995.569 98.2358H744.845L748.5 109.358Z" fill="black"/>
</g>
<path d="M744.64 98.2201L995.632 98.2201V84.9933L744.64 84.9933V98.2201Z" fill="#6E4945"/>
<path d="M983.117 98.2358L977.754 109.453H965.128L961.537 98.2358H983.117Z" fill="#3D2027"/>
<path d="M761.047 98.2358L766.41 109.453H779.036L782.627 98.2358H761.047Z" fill="#3D2027"/>
<path d="M773.736 70.8012H771.884V68.0325L842.164 68.1274C844.489 68.1274 846.609 69.0767 848.128 70.6114C849.647 72.1302 850.596 74.2503 850.596 76.5761C850.596 81.2434 846.815 85.009 842.148 85.009L771.869 84.914V82.5092H773.736V70.8171V70.8012Z" fill="#4A429A"/>
<path d="M773.245 70.8012V82.4933L837.718 82.5724C840.866 82.5724 843.413 79.9619 843.429 76.7343C843.429 75.1205 842.796 73.6491 841.768 72.5891C840.74 71.529 839.316 70.8803 837.733 70.8645L773.245 70.7854V70.8012Z" fill="white"/>
<path d="M773.245 73.7599V75.5477L836.056 75.6268C836.547 75.6268 836.942 75.2313 836.942 74.7408C836.942 74.2504 836.547 73.839 836.056 73.839L773.245 73.7599Z" fill="#E5C09F"/>
<path d="M773.245 78.1582V79.946L836.056 80.0251C836.547 80.0251 836.942 79.6296 836.942 79.1391C836.942 78.6487 836.547 78.2373 836.056 78.2373L773.245 78.1582Z" fill="#E5C09F"/>
<path d="M780.017 53.9355H778.165V51.1667L848.445 51.2617C850.77 51.2617 852.891 52.211 854.409 53.7457C855.928 55.2803 856.878 57.3846 856.878 59.7104C856.878 64.3777 853.096 68.1432 848.429 68.1432L778.15 68.0483V65.6434H780.017V53.9513V53.9355Z" fill="#FBB416"/>
<path d="M779.526 53.9196V65.6117L843.999 65.6908C847.147 65.6908 849.695 63.0803 849.71 59.8527C849.71 58.2389 849.077 56.7675 848.049 55.7075C847.021 54.6474 845.597 53.9987 844.015 53.9829L779.526 53.9038V53.9196Z" fill="white"/>
<path d="M779.526 56.8942V58.682L842.338 58.7611C842.828 58.7611 843.224 58.3656 843.224 57.8751C843.224 57.3846 842.828 56.9733 842.338 56.9733L779.526 56.8942Z" fill="#E5C09F"/>
<path d="M779.526 61.2925V63.0803L842.338 63.1594C842.828 63.1594 843.224 62.7639 843.224 62.2734C843.224 61.7829 842.828 61.3716 842.338 61.3716L779.526 61.2925Z" fill="#E5C09F"/>
<path d="M767.755 37.0382H765.904V34.2694L836.183 34.3643C838.509 34.3643 840.629 35.3136 842.148 36.8483C843.667 38.3672 844.616 40.4873 844.616 42.813C844.616 47.4804 840.834 51.2459 836.167 51.2459L765.888 51.151V48.7461H767.755V37.054V37.0382Z" fill="#5C4DA0"/>
<path d="M767.28 37.0382V48.7303L831.753 48.8094C834.901 48.8094 837.449 46.1988 837.465 42.9712C837.465 41.3574 836.832 39.886 835.803 38.826C834.775 37.766 833.351 37.1173 831.769 37.1014L767.28 37.0223V37.0382Z" fill="white"/>
<path d="M767.28 39.9968V41.7847L830.092 41.8638C830.582 41.8638 830.978 41.4682 830.978 40.9778C830.978 40.4873 830.582 40.0759 830.092 40.0759L767.28 39.9968Z" fill="#E5C09F"/>
<path d="M767.264 44.3951V46.183L830.076 46.2621C830.566 46.2621 830.962 45.8665 830.962 45.3761C830.962 44.8856 830.566 44.4743 830.076 44.4743L767.264 44.3951Z" fill="#E5C09F"/>
<path d="M715.188 343.414L792.226 321.062L801.194 351.968C803.372 359.474 799.046 367.335 791.54 369.513L741.716 383.97C734.21 386.148 726.349 381.822 724.171 374.316L715.204 343.41L715.188 343.414Z" fill="#FBB416"/>
<path d="M730.859 349.023L783.307 334.198" stroke="white" stroke-linecap="round" stroke-linejoin="round"/>
<path d="M777.96 344.735L785.427 342.631" stroke="white" stroke-linecap="round" stroke-linejoin="round"/>
<path d="M732.963 357.456L769.464 347.14" stroke="white" stroke-linecap="round" stroke-linejoin="round"/>
<path d="M736.397 367.47L758.531 360.825" stroke="white" stroke-linecap="round" stroke-linejoin="round"/>
<path d="M791.104 307.033L708.627 330.964L712.467 344.199L794.944 320.268L791.104 307.033Z" fill="#F8A81B"/>
<path d="M712.474 344.134C714.152 339.039 715.876 333.391 717.553 328.296L723.629 326.524C721.524 331.888 720.116 336.729 718.74 342.314C718.74 342.314 714.31 343.627 712.49 344.118L712.474 344.134Z" fill="white"/>
<path d="M726.983 339.894C728.66 334.799 730.353 329.214 732.03 324.12L738.026 322.363C735.922 327.727 734.419 332.552 733.042 338.153L726.983 339.894Z" fill="white"/>
<path d="M743.659 335.115C745.336 330.021 747.06 324.357 748.737 319.262L755.224 317.348C753.136 322.711 751.459 327.616 750.082 333.201L743.659 335.115Z" fill="white"/>
<path d="M760.255 330.29C761.933 325.195 763.689 319.436 765.366 314.342C765.366 314.342 771.362 312.791 771.41 312.633C769.305 317.997 767.676 322.917 766.299 328.502C766.299 328.502 760.271 330.211 760.271 330.274L760.255 330.29Z" fill="white"/>
<path d="M776.299 325.607C777.976 320.512 779.716 314.864 781.393 309.769L787.421 308.013L782.279 323.866L776.299 325.623V325.607Z" fill="white"/>
<path d="M771.66 271.287L700.919 319.979L708.732 331.33L779.474 282.638L771.66 271.287Z" fill="#F8A81B"/>
<path d="M708.725 331.318C708.725 325.955 708.567 320.053 708.551 314.69L713.756 311.098C713.455 316.842 713.629 321.889 714.088 327.632C714.088 327.632 710.307 330.274 708.725 331.318Z" fill="white"/>
<path d="M721.16 322.727C721.16 317.364 721.002 311.526 720.986 306.162L726.128 302.602C725.828 308.346 725.923 313.408 726.366 319.152L721.16 322.727Z" fill="white"/>
<path d="M735.479 312.934C735.479 307.57 735.321 301.653 735.305 296.29L740.858 292.429C740.558 298.172 740.51 303.362 740.969 309.089L735.463 312.934H735.479Z" fill="white"/>
<path d="M749.718 303.124C749.718 297.761 749.56 291.749 749.544 286.385C749.544 286.385 754.734 283.015 754.734 282.857C754.433 288.6 754.417 293.79 754.876 299.533C754.876 299.533 749.687 303.045 749.718 303.124Z" fill="white"/>
<path d="M763.483 293.631C763.483 288.268 763.341 282.366 763.325 276.987L768.498 273.411L768.609 290.072L763.483 293.616V293.631Z" fill="white"/>
<path d="M730.385 375.84C733.28 378.973 737.9 380.397 742.061 379.447" stroke="white" stroke-linecap="round" stroke-linejoin="round"/>
<path d="M750.699 375.982L770.524 370.208" stroke="white" stroke-linecap="round" stroke-linejoin="round"/>
<path d="M189.368 403.006H287.35C292.445 403.006 296.574 407.135 296.574 412.23V478.348C296.574 485.61 290.689 491.495 283.427 491.495H193.291C186.029 491.495 180.144 485.61 180.144 478.348V412.23C180.144 407.135 184.273 403.006 189.368 403.006Z" fill="white"/>
<path d="M189.368 403.006H287.35C292.445 403.006 296.574 407.135 296.574 412.23V413.574H180.144V412.23C180.144 407.135 184.273 403.006 189.368 403.006Z" fill="#493293"/>
<path d="M188.007 408.29C188.007 409.049 187.39 409.667 186.631 409.667C185.871 409.667 185.254 409.049 185.254 408.29C185.254 407.531 185.871 406.914 186.631 406.914C187.39 406.914 188.007 407.531 188.007 408.29Z" fill="#010101"/>
<path d="M193.576 409.667C194.336 409.667 194.953 409.05 194.953 408.29C194.953 407.53 194.336 406.914 193.576 406.914C192.816 406.914 192.2 407.53 192.2 408.29C192.2 409.05 192.816 409.667 193.576 409.667Z" fill="white"/>
<path d="M201.107 409.667C201.868 409.667 202.484 409.05 202.484 408.29C202.484 407.53 201.868 406.914 201.107 406.914C200.347 406.914 199.731 407.53 199.731 408.29C199.731 409.05 200.347 409.667 201.107 409.667Z" fill="#C7B7DA"/>
<path d="M191.947 477.667H185.143V484.471H191.947V477.667Z" fill="#493293"/>
<path d="M187.707 482.224V479.898" stroke="white" stroke-width="0.64" stroke-miterlimit="10"/>
<path d="M189.368 482.224V479.898" stroke="white" stroke-width="0.64" stroke-miterlimit="10"/>
<path d="M287.714 479.408H194.083V483.157H287.714V479.408Z" fill="#E5DBED"/>
<path d="M232.988 479.408H194.083V483.157H232.988V479.408Z" fill="#493293"/>
<path d="M294.074 424.159V454.663" stroke="#9A89C1" stroke-linecap="round" stroke-linejoin="round"/>
<path d="M294.074 417.91V420.947" stroke="#9A89C1" stroke-linecap="round" stroke-linejoin="round"/>
<path d="M197.563 489.502H234.143" stroke="#9A89C1" stroke-linecap="round" stroke-linejoin="round"/>
<path d="M246.42 464.303C255.357 460.649 259.64 450.441 255.985 441.504C252.331 432.567 242.123 428.285 233.186 431.939C224.249 435.593 219.966 445.801 223.621 454.738C227.275 463.675 237.483 467.958 246.42 464.303Z" fill="#493293"/>
<path d="M234.459 454.869V441.389L247.069 446.895L234.459 454.869Z" fill="white"/>
<path d="M227.339 440.756C229.428 436.041 234.665 432.94 239.791 433.367" stroke="#9A89C1" stroke-linecap="round" stroke-linejoin="round"/>
<g opacity="0.06">
<path d="M500.862 642.67C658.53 642.67 786.345 630.033 786.345 614.444C786.345 598.856 658.53 586.219 500.862 586.219C343.194 586.219 215.378 598.856 215.378 614.444C215.378 630.033 343.194 642.67 500.862 642.67Z" fill="black"/>
</g>
<path d="M340.827 572.517C344.197 575.887 347.852 579.099 351.823 582.137C371.663 597.373 399.098 608.29 435.535 611.945C621.865 630.598 683.442 543.184 698.488 408.701C705.197 348.769 689.502 309.216 670.041 283.79C668 281.132 665.927 278.633 663.839 276.275C662.652 274.946 661.45 273.649 660.2 272.383C635.076 246.721 598.797 234.633 563.151 240.503C535.131 245.107 509.674 260.074 489.027 289.992C455.992 337.821 487.239 378.941 392.848 381.694C320.591 383.798 274.804 506.652 340.843 572.533L340.827 572.517Z" fill="#FBB416"/>
<path d="M626.089 282.113C626.089 282.113 648.128 329.261 622.687 415.805C597.246 502.349 563.547 495.53 541.776 495.53C503.741 495.53 426.722 459.71 411.676 431.484C396.63 403.259 425.029 401.582 478.205 397.405C531.397 393.228 571.078 263.444 626.089 282.113Z" fill="#F8A81B"/>
<path d="M578.308 531.84C578.719 531.84 579.147 531.682 579.463 531.35C580.064 530.717 580.048 529.72 579.4 529.103C560.382 511.019 542.219 500.371 530.321 494.612C517.395 488.363 509.057 486.417 508.709 486.338C507.855 486.148 507 486.67 506.811 487.524C506.621 488.378 507.143 489.233 507.997 489.423C508.377 489.518 541.491 497.428 577.2 531.397C577.501 531.682 577.897 531.84 578.292 531.84H578.308Z" fill="#F8A81B"/>
<path d="M572.027 510.655C572.533 510.655 573.039 510.418 573.34 509.959C573.83 509.231 573.641 508.25 572.913 507.76C572.169 507.254 554.465 495.514 527.062 492.524C526.192 492.429 525.417 493.062 525.322 493.932C525.227 494.802 525.86 495.577 526.73 495.672C553.357 498.583 570.983 510.26 571.157 510.386C571.426 510.576 571.742 510.655 572.043 510.655H572.027Z" fill="#F8A81B"/>
<path d="M629.49 379.716C630.282 379.716 630.962 379.131 631.057 378.324C633.351 359.987 641.246 345.969 647.448 337.441C654.204 328.17 660.501 323.186 660.564 323.139C661.244 322.601 661.371 321.604 660.833 320.908C660.295 320.212 659.298 320.101 658.602 320.639C658.333 320.844 651.957 325.892 644.948 335.479C638.493 344.324 630.297 358.864 627.892 377.928C627.782 378.799 628.399 379.59 629.269 379.701C629.332 379.701 629.396 379.701 629.475 379.701L629.49 379.716Z" fill="#F8A81B"/>
<path d="M340.827 572.517C344.197 575.887 347.852 579.099 351.823 582.137C374.748 595.901 402.737 604.967 433.557 608.511C443.113 609.619 452.764 610.157 462.415 610.157C489.027 610.157 515.702 606.011 540.843 597.863C606.249 576.678 653.444 531.35 673.728 470.247C684.85 436.737 690.308 404.161 689.96 373.404C689.691 348.769 685.689 325.243 678.11 303.472C675.579 296.21 672.826 289.66 670.041 283.79C668 281.132 665.927 278.633 663.839 276.275C662.652 274.946 661.45 273.649 660.2 272.383C665.168 280.895 670.484 291.701 675.025 304.754C686.717 338.406 695.435 394.256 670.563 469.187C650.628 529.261 604.192 573.83 539.83 594.683C471.449 616.833 392.358 607.847 343.026 572.343C342.346 571.853 341.428 571.948 340.859 572.533L340.827 572.517Z" fill="#F8A81B"/>
<path d="M625.583 603.037C625.836 604.145 626.136 605.236 626.484 606.296C628.81 613.432 633.082 619.127 638.889 621.485C660.88 630.408 681.559 627.323 723.644 626.342C765.714 625.361 796.961 614.223 793.069 579.574C792.753 576.837 792.231 574.289 791.519 571.9C790.585 568.768 789.32 565.936 787.816 563.372C786.06 560.351 783.972 557.693 781.694 555.383C769.891 543.39 752.107 539.466 736.175 544.925C720.448 550.32 692.65 552.93 663.713 553.5C632.623 554.133 620.994 583.181 625.583 603.005V603.037Z" fill="#FBB416"/>
<path d="M625.583 603.037C625.836 604.145 626.136 605.236 626.484 606.296C633.936 612.799 647.986 616.912 668.348 618.526C674.74 619.048 681.781 619.286 689.343 619.286C706.858 619.286 727.268 617.925 749.56 615.251C768.419 612.989 781.171 606.344 787.484 595.506C792.183 587.437 792.421 578.624 791.519 571.916C790.585 568.783 789.32 565.951 787.816 563.388C789.446 568.404 793.038 582.643 786.029 594.683C780.001 605.046 767.66 611.407 749.354 613.606C683.22 621.548 638.208 617.688 625.583 603.037Z" fill="#F8A81B"/>
<path d="M751.316 560.177C764.242 561.221 773.799 573.008 771.679 585.807C771.631 586.061 771.599 586.298 771.536 586.551C768.752 600.49 750.003 600.078 697.95 600.569C657.178 600.949 636.215 586.361 647.068 568.34C655.691 554.006 723.787 557.962 751.316 560.177Z" fill="#F8A81B"/>
<path d="M652.986 570.73C671.956 594.351 749.323 595.68 759.48 577.992C764.432 569.385 763.056 558.341 760.366 549.291C760.081 548.342 759.781 547.409 759.48 546.507C756.696 538.359 753.199 532.41 753.199 532.41C753.199 532.41 753.515 540.827 724.973 537.805C721.714 537.457 717.996 537.314 714.025 537.362C713.281 537.362 712.538 537.378 711.778 537.409C681.005 538.327 636.61 550.336 653.001 570.745L652.986 570.73Z" fill="#28100C"/>
<path d="M715.148 556.648C719.61 561.632 727.378 563.515 737.583 562.075C737.82 562.043 738.042 562.012 738.263 561.98C751.126 560.002 757.392 553.88 760.35 549.291C760.066 548.342 759.765 547.409 759.464 546.507C757.281 550.731 751.522 557.93 737.267 559.923C727.821 561.252 720.717 559.607 716.762 555.193C713.202 551.206 712.253 545.051 713.993 537.346C713.25 537.346 712.506 537.362 711.747 537.394C709.99 545.589 711.161 552.218 715.132 556.648H715.148Z" fill="#FBAB47"/>
<path d="M663.713 553.531C663.713 553.531 645.549 552.187 643.398 543.026C641.246 533.865 682.92 541.903 687.508 523.012C692.112 504.137 673.68 489.075 667.7 494.596C660.612 501.146 676.132 503.931 676.971 513.645C677.667 521.714 672.668 529.15 657.147 530.258C641.626 531.365 634.696 533.77 634.759 540.985C634.838 548.832 647.401 556.933 655.042 557.439C662.684 557.946 663.713 553.531 663.713 553.531Z" fill="#28100C"/>
<path d="M743.405 525.448C743.405 525.448 748.801 518.439 757.566 513.772C758.847 513.092 760.366 514.12 760.208 515.56L758.547 531.634C758.547 531.634 745.953 532.71 743.39 525.464L743.405 525.448Z" fill="#28100C"/>
<path d="M755.477 529.688C756.189 526.049 756.363 522.221 757.202 517.917C757.202 517.917 747.725 523.566 747.171 526.667C747.171 526.667 752.392 530.622 755.477 529.688Z" fill="#5A4C54"/>
<path d="M726.967 526.097C726.967 526.097 719.562 521.635 709.864 520.417C708.282 520.211 707.111 521.888 707.823 523.328L714.452 536.555C714.452 536.555 727.22 533.786 726.951 526.097H726.967Z" fill="#28100C"/>
<path d="M717.268 534.435C715.275 531.302 713.724 527.79 711.383 524.104C711.383 524.104 722.252 525.923 723.913 528.613C723.913 528.613 720.48 534.198 717.268 534.451V534.435Z" fill="#5A4C54"/>
<path d="M750.446 525.733C750.446 525.733 761.664 527.442 760.825 540.589C759.987 553.737 747.187 555.129 747.187 555.129C747.187 555.129 744.909 559.354 736.998 561.062C731.935 562.154 724.404 561.806 722.49 558.088C722.49 558.088 711.509 554.069 711.636 544.276C711.778 533.422 724.847 520.101 750.446 525.733Z" fill="#28100C"/>
<path d="M761.838 556.807C761.838 556.807 757.265 575.46 753.421 579.321C749.592 583.165 745.431 585.285 740.083 585.934C731.46 586.978 733.042 592.737 735.621 594.715C738.596 597.009 743.88 595.696 751.823 595.696C758.673 595.696 765.128 594.335 767.454 589.826C769.764 585.317 769.622 571.995 767.154 564.496C765.635 559.876 763.499 557.455 761.853 556.822L761.838 556.807Z" fill="#28100C"/>
<path d="M703.883 558.041C703.883 558.041 708.456 576.694 712.3 580.555C716.129 584.399 720.322 586.314 725.638 587.168C732.141 588.196 731.539 594.335 730.1 595.949C727.584 598.749 721.841 596.93 713.898 596.93C707.048 596.93 698.947 594.193 696.621 589.684C694.311 585.174 696.099 573.229 698.567 565.73C700.086 561.11 702.222 558.689 703.868 558.056L703.883 558.041Z" fill="#28100C"/>
<path d="M665.579 554.323C665.579 554.323 653.508 551.427 649.616 560.525C643.493 574.827 648.381 583.007 664.693 585.285C681.005 587.564 699.532 590.649 685.53 579.036C671.513 567.439 665.579 554.323 665.579 554.323Z" fill="#28100C"/>
<path d="M730.543 546.966C730.543 546.966 735.416 546.443 736.713 547.045C738.896 548.041 735.384 552.107 733.153 552.456C730.922 552.804 728.755 550.193 728.786 548.484C728.818 546.791 730.543 546.966 730.543 546.966Z" fill="#5A4C54"/>
<path d="M728.043 543.216C728.28 543.073 728.533 543.374 728.359 543.58C727.394 544.735 725.606 546.254 723.186 545.747C721.192 545.32 720.433 543.928 720.164 542.71C720.101 542.441 720.48 542.282 720.607 542.535C721.129 543.437 722.126 544.355 724.072 544.482C725.543 544.576 727.046 543.849 728.043 543.232V543.216Z" fill="#5A4C54"/>
<path d="M746.918 542.219C747.124 542.029 747.424 542.282 747.298 542.52C746.554 543.833 745.083 545.652 742.614 545.605C740.573 545.557 739.577 544.323 739.086 543.168C738.976 542.915 739.308 542.694 739.498 542.915C740.162 543.706 741.317 544.434 743.263 544.197C744.719 544.023 746.079 543.026 746.934 542.235L746.918 542.219Z" fill="#5A4C54"/>
<path d="M457.875 484.771C457.811 463.444 463.333 449.125 463.333 449.125C499.169 446.91 558.389 449.363 558.389 449.363C558.468 449.568 558.547 449.774 558.626 449.98C558.626 449.98 556.696 468.475 553.294 484.028C518.423 504.675 489.707 504.042 457.89 484.755L457.875 484.771Z" fill="#1E1E1E"/>
<path d="M646.989 174.147C646.989 174.147 643.73 169.575 642.48 165.113C641.23 160.652 640.123 155.937 639.395 153.168C638.541 149.846 641.752 150.336 643.493 152.947C646.135 156.902 646.087 159.402 646.087 159.402C646.087 159.402 645.027 141.001 646.689 136.334C648.207 132.078 649.283 142.188 650.66 150.51C650.66 150.51 652.732 132.568 655.501 131.224C659.14 129.467 656.561 151.206 656.561 151.206C656.561 151.206 660.849 135.464 662.653 136.239C664.678 137.109 662.257 153.753 662.257 153.753C662.257 153.753 666.149 143.201 667.177 144.134C669.187 146.001 665.627 169.686 657.605 177.138C657.605 177.138 648.698 176.188 646.989 174.132V174.147Z" fill="#F9AE83"/>
<path d="M634.332 207.847C640.74 189.083 646.198 173.341 646.198 173.341C650.66 170.967 655.343 172.328 660.026 173.72C656.371 207.072 647.859 232.513 639.221 251.436C627.418 271.608 578.34 309.959 578.34 309.959C564.717 303.678 571.979 283.806 571.979 283.806C598.465 260.169 623.383 239.142 623.763 238.81C624.839 235.662 628.874 223.811 634.332 207.831V207.847Z" fill="#5D4EA1"/>
<path d="M499.533 184.463C499.533 184.463 491.954 189.463 494.675 203.022C497.381 216.581 502.634 218.036 502.634 218.036C502.634 218.036 510.576 188.007 499.533 184.463Z" fill="#28120E"/>
<path d="M530.859 247.797L530.321 264.963L530.068 272.826C539.276 280.974 556.158 272.352 556.158 272.352L560.082 247.179C555.794 243.715 543.833 245.233 536.618 246.578C533.217 247.211 530.859 247.797 530.859 247.797Z" fill="#F9AE83"/>
<path d="M530.859 247.797L530.321 264.963C542.108 263.302 553.199 248.129 553.199 248.129L536.618 246.562C533.217 247.195 530.859 247.781 530.859 247.781V247.797Z" fill="#F58A69"/>
<path d="M501.067 191.377C501.067 191.377 482.572 182.77 487.983 167.581C493.41 152.393 515.544 159.37 535.447 160.13C567.502 161.348 577.533 178.024 576.726 195.38C575.919 212.736 576.093 236.01 568.23 244.696C560.366 253.382 554.987 241.104 550.921 230.251C546.855 219.397 521.73 186.156 501.067 191.377Z" fill="#28120E"/>
<path d="M499.39 206.154C499.39 206.74 499.406 207.341 499.422 207.942C499.754 218.717 501.605 231.817 503.441 242.481C505.387 253.793 516.288 261.261 527.537 258.998C541.08 256.261 557.772 252.116 565.398 247.1C567.708 245.582 569.179 243.984 569.48 242.322C570.16 238.43 570.54 233.13 570.714 227.371C571.252 209.888 569.97 188.086 569.97 188.086C553.69 167.866 508.329 175.761 501.431 190.554C499.849 193.94 499.311 199.557 499.406 206.186L499.39 206.154Z" fill="#F9AE83"/>
<path d="M509.421 237.465C509.421 237.465 509.627 237.987 510.086 238.731C510.798 239.886 512.127 241.595 514.247 242.734C516.24 243.81 518.914 244.363 522.426 243.477C525.543 242.686 527.553 241.167 528.834 239.427C530.638 236.975 531.002 234.048 531.002 232.07C531.002 230.694 530.812 229.776 530.812 229.776C522.442 236.104 509.421 237.481 509.421 237.481V237.465Z" fill="#921A1D"/>
<path d="M514.247 242.734C516.24 243.81 518.914 244.363 522.426 243.477C525.543 242.686 527.553 241.167 528.834 239.427C526.888 238.636 523.771 238.114 520.211 239.253C517.189 240.218 515.671 241.579 514.247 242.734Z" fill="#F15D67"/>
<path d="M509.421 237.465C509.421 237.465 509.627 237.987 510.086 238.731C519.42 239.427 527.853 234.269 531.002 232.07C531.002 230.694 530.812 229.776 530.812 229.776C522.442 236.104 509.421 237.481 509.421 237.481V237.465Z" fill="white"/>
<path d="M526.287 215.916C526.287 218.195 527.299 220.03 528.549 220.03C529.799 220.03 530.812 218.195 530.812 215.916C530.812 213.638 529.799 211.803 528.549 211.803C527.299 211.803 526.287 213.638 526.287 215.916Z" fill="#28120E"/>
<path d="M503.14 215.916C503.14 218.195 504.152 220.03 505.402 220.03C506.652 220.03 507.665 218.195 507.665 215.916C507.665 213.638 506.652 211.803 505.402 211.803C504.152 211.803 503.14 213.638 503.14 215.916Z" fill="#28120E"/>
<path d="M570.793 211.328C570.793 211.328 563.546 206.613 557.439 215.03H552.693C552.693 215.03 552.962 205.284 550.652 199.984C548.342 194.7 539.26 194.826 537.9 188.592C537.9 188.592 516.446 197.136 501.067 191.361C485.689 185.602 531.808 159.971 554.054 172.439C576.299 184.922 574.242 194.7 570.793 211.312V211.328Z" fill="#28120E"/>
<path d="M538.105 210.648C538.105 210.648 536.334 206.012 532.267 204.525C528.502 203.148 525.67 203.908 524.214 204.54C523.581 204.809 523.265 205.521 523.439 206.186C523.66 206.977 524.499 207.404 525.258 207.119C527.679 206.233 532.948 205.284 538.09 210.648H538.105Z" fill="#28120E"/>
<path d="M499.659 203.212C499.612 203.797 499.58 204.398 499.548 204.999C503.931 203.338 507.443 204.715 509.215 205.727C509.389 205.838 509.595 205.885 509.801 205.901C510.355 205.949 510.924 205.664 511.177 205.11C511.478 204.493 511.272 203.734 510.703 203.354C509.389 202.484 506.731 201.25 502.776 201.946C501.605 202.152 500.561 202.626 499.659 203.196V203.212Z" fill="#28120E"/>
<path d="M565.398 247.085C567.708 245.566 569.179 243.968 569.48 242.307C570.16 238.414 570.54 233.114 570.714 227.355L558.737 235.582C558.737 235.582 558.579 244.11 565.398 247.085Z" fill="#28120E"/>
<path d="M557.439 215.046C557.439 215.046 564.701 206.233 570.793 211.344C577.501 216.96 572.359 236.025 558.737 235.598L557.439 215.046Z" fill="#F9AE83"/>
<path d="M558.405 231.453C559.006 231.453 559.528 231.01 559.591 230.393C560.699 220.758 566.426 219.27 566.663 219.207C567.296 219.049 567.708 218.416 567.549 217.767C567.407 217.134 566.774 216.723 566.125 216.865C565.809 216.929 558.515 218.685 557.202 230.108C557.123 230.773 557.598 231.358 558.262 231.437C558.31 231.437 558.357 231.437 558.405 231.437V231.453Z" fill="#F58A69"/>
<path d="M566.046 225.33C566.331 225.33 566.616 225.235 566.853 225.029C567.344 224.586 567.391 223.843 566.948 223.352C566.853 223.242 564.48 220.631 560.54 221.501C559.892 221.644 559.48 222.276 559.623 222.925C559.765 223.574 560.398 223.985 561.047 223.843C563.578 223.289 565.081 224.887 565.145 224.95C565.382 225.203 565.714 225.346 566.031 225.346L566.046 225.33Z" fill="#F58A69"/>
<path d="M521.24 248.952C527.394 248.952 530.432 244.965 530.574 244.775C530.97 244.237 530.859 243.493 530.321 243.098C529.783 242.702 529.04 242.813 528.644 243.351C528.502 243.541 525.432 247.433 519.088 246.388C518.439 246.278 517.822 246.721 517.712 247.369C517.601 248.018 518.044 248.635 518.692 248.746C519.594 248.888 520.433 248.967 521.224 248.967L521.24 248.952Z" fill="#F58A69"/>
<path d="M515.386 229.143C515.75 229.143 516.098 228.985 516.335 228.668C516.731 228.146 516.636 227.387 516.114 226.991L512.918 224.555L515.686 223.843C516.145 223.716 516.493 223.337 516.572 222.878L517.791 215.252C517.901 214.603 517.443 213.986 516.794 213.875C516.145 213.764 515.528 214.207 515.417 214.872L514.326 221.723L509.927 222.862C509.484 222.973 509.152 223.337 509.057 223.78C508.962 224.223 509.136 224.697 509.5 224.966L514.658 228.906C514.88 229.064 515.133 229.159 515.386 229.159V229.143Z" fill="#F58A69"/>
<path d="M500.656 490.72C500.656 490.72 439.474 504.437 418.558 510.386C418.558 510.386 417.546 540.858 414.27 562.407C411.407 581.219 407.056 601.819 407.056 601.819L391.867 603.955C391.867 603.955 387.2 514.753 389.795 501.684C392.389 488.632 455.976 447.116 516.525 451.688L500.656 490.72Z" fill="#1E1E1E"/>
<path d="M366.869 643.603L413.669 631.342C415.884 630.756 417.245 628.636 416.976 626.469C416.944 626.168 416.865 625.852 416.77 625.551L408.432 601.471C408.432 601.471 406.249 601.075 403.354 601.154C401.629 601.202 399.968 600.379 399.066 598.923C399.003 598.813 398.939 598.702 398.876 598.591C396.566 594.145 389.352 594.43 389.304 599.382C389.304 600.015 389.304 600.648 389.336 601.233C389.336 601.376 389.336 601.534 389.352 601.676C389.415 602.721 389.51 603.67 389.605 604.508C389.605 604.524 389.605 604.54 389.605 604.556C389.89 606.66 390.253 607.958 390.253 607.958C389.842 608.907 389.447 609.84 389.067 610.758C388.877 611.217 388.687 611.66 388.497 612.119C388.086 613.084 387.706 614.017 387.311 614.919C387.137 615.346 386.947 615.758 386.773 616.153C386.33 617.134 385.903 618.067 385.444 618.953C385.238 619.349 385.032 619.745 384.827 620.14C383.086 623.304 381.093 625.678 378.324 626.833C373.435 628.858 365.287 631.595 363.23 640.091C363.183 640.265 363.167 640.439 363.151 640.613C363.04 642.559 364.892 644.173 366.885 643.651L366.869 643.603Z" fill="#DE9E26"/>
<path d="M366.869 643.603L413.669 631.342C415.884 630.756 417.261 628.636 416.976 626.469L363.135 640.581C363.025 642.527 364.876 644.141 366.869 643.619V643.603Z" fill="#BE812B"/>
<path d="M388.497 612.071C389.241 612.72 390.601 613.4 393.07 613.701C393.481 613.764 393.94 613.796 394.43 613.827L394.509 612.498C394.035 612.467 393.592 612.419 393.196 612.372C390.364 612.008 389.399 611.185 389.083 610.71C388.893 611.169 388.703 611.612 388.513 612.071H388.497Z" fill="white"/>
<path d="M393.006 613.558C393.212 614.365 394.035 614.84 394.842 614.634C395.648 614.429 396.123 613.606 395.917 612.799C395.712 611.992 394.889 611.517 394.082 611.723C393.275 611.929 392.801 612.751 393.006 613.558Z" fill="white"/>
<path d="M386.757 616.121C387.532 616.596 388.703 617.055 390.491 617.292C390.981 617.371 391.519 617.419 392.12 617.45L392.199 616.121C391.646 616.09 391.155 616.042 390.696 615.979C388.877 615.726 387.864 615.283 387.295 614.872C387.121 615.299 386.931 615.71 386.757 616.106V616.121Z" fill="white"/>
<path d="M390.475 617.229C390.681 618.036 391.503 618.511 392.31 618.305C393.117 618.099 393.592 617.277 393.386 616.47C393.18 615.663 392.358 615.188 391.551 615.394C390.744 615.599 390.269 616.422 390.475 617.229Z" fill="white"/>
<path d="M384.811 620.093C385.586 620.551 386.725 620.963 388.418 621.216C388.924 621.295 389.462 621.343 390.064 621.39L390.143 620.061C389.589 620.029 389.083 619.982 388.64 619.903C387.01 619.681 386.029 619.286 385.428 618.922C385.222 619.317 385.016 619.713 384.811 620.108V620.093Z" fill="white"/>
<path d="M388.402 621.169C388.608 621.975 389.431 622.45 390.238 622.244C391.044 622.039 391.519 621.216 391.313 620.409C391.108 619.602 390.285 619.128 389.478 619.333C388.671 619.539 388.197 620.362 388.402 621.169Z" fill="white"/>
<path d="M389.605 604.477C391.741 603.891 393.845 603.622 393.845 603.622L393.212 601.281C391.804 601.138 390.475 601.344 389.367 601.645C389.431 602.689 389.526 603.638 389.621 604.477H389.605Z" fill="white"/>
<path d="M437.37 540.051L372.897 626.057L384.589 636.436C414.998 607.609 443.635 584.13 457.843 558.23C484.344 538.343 541.017 484.043 541.017 484.043C535.716 472.051 519.99 450.676 519.99 450.676C491.337 473.411 437.37 540.067 437.37 540.067V540.051Z" fill="#1E1E1E"/>
<path d="M329.008 620.852L367.233 654.773C369.037 656.371 371.711 656.34 373.467 654.821C373.72 654.599 373.941 654.362 374.147 654.093L390.412 632.639C390.412 632.639 389.478 630.487 387.706 627.988C386.662 626.5 386.393 624.554 387.152 622.909C387.216 622.782 387.279 622.672 387.326 622.545C389.874 617.909 385.396 611.723 381.014 614.587C380.444 614.951 379.906 615.33 379.4 615.694C379.273 615.789 379.147 615.884 379.036 615.963C378.15 616.628 377.375 617.276 376.71 617.846C376.694 617.846 376.679 617.878 376.663 617.878C374.986 619.365 374.052 620.441 374.052 620.441C372.976 620.631 371.932 620.836 370.904 621.042C370.382 621.137 369.875 621.232 369.385 621.343C368.309 621.548 367.249 621.754 366.221 621.944C365.746 622.039 365.271 622.118 364.812 622.197C363.689 622.387 362.613 622.561 361.569 622.672C361.094 622.735 360.636 622.782 360.161 622.814C356.348 623.13 353.105 622.782 350.462 621.026C345.811 617.925 338.644 612.372 329.973 615.552C329.784 615.615 329.625 615.694 329.467 615.789C327.679 616.833 327.363 619.412 328.993 620.852H329.008Z" fill="#DE9E26"/>
<path d="M329.008 620.852L367.233 654.773C369.037 656.371 371.711 656.34 373.467 654.821L329.483 615.789C327.695 616.833 327.379 619.412 329.008 620.852Z" fill="#BE812B"/>
<path d="M369.385 621.343C369.258 622.387 369.448 623.969 370.635 626.311C370.825 626.706 371.062 627.133 371.315 627.576L372.533 626.864C372.28 626.421 372.059 626.01 371.869 625.63C370.524 622.925 370.682 621.596 370.92 621.026C370.397 621.121 369.891 621.216 369.401 621.327L369.385 621.343Z" fill="white"/>
<path d="M370.745 626.184C370.16 626.833 370.223 627.845 370.872 628.415C371.521 629 372.533 628.937 373.103 628.288C373.688 627.639 373.625 626.627 372.976 626.057C372.328 625.472 371.315 625.535 370.745 626.184Z" fill="white"/>
<path d="M364.828 622.197C364.86 623.162 365.161 624.459 365.983 626.168C366.205 626.643 366.474 627.149 366.79 627.703L368.008 626.991C367.708 626.485 367.471 626.026 367.249 625.583C366.41 623.842 366.205 622.687 366.221 621.944C365.746 622.039 365.271 622.118 364.812 622.197H364.828Z" fill="white"/>
<path d="M366.015 626.105C365.43 626.754 365.493 627.766 366.141 628.336C366.79 628.921 367.803 628.858 368.372 628.209C368.958 627.56 368.894 626.548 368.246 625.978C367.597 625.393 366.584 625.456 366.015 626.105Z" fill="white"/>
<path d="M360.177 622.814C360.224 623.763 360.525 625.013 361.316 626.643C361.537 627.133 361.822 627.639 362.139 628.193L363.357 627.481C363.056 626.975 362.819 626.5 362.597 626.073C361.838 624.507 361.601 623.415 361.585 622.672C361.11 622.735 360.651 622.782 360.177 622.814Z" fill="white"/>
<path d="M361.348 626.595C360.762 627.244 360.825 628.256 361.474 628.826C362.123 629.411 363.135 629.348 363.705 628.699C364.29 628.051 364.227 627.038 363.578 626.469C362.93 625.883 361.917 625.947 361.348 626.595Z" fill="white"/>
<path d="M376.71 617.862C378.482 619.396 379.938 621.074 379.938 621.074L381.615 619.143C380.919 617.83 379.938 616.77 379.036 615.979C378.15 616.644 377.375 617.292 376.71 617.862Z" fill="white"/>
<path d="M451.309 157.028C451.309 157.028 455.312 153.089 457.321 148.912C459.314 144.735 461.245 140.289 462.431 137.679C463.855 134.546 460.596 134.483 458.428 136.745C455.138 140.194 454.758 142.647 454.758 142.647C454.758 142.647 458.982 124.705 458.159 119.816C457.4 115.355 454.584 125.132 451.799 133.091C451.799 133.091 452.875 115.054 450.375 113.266C447.1 110.909 445.866 132.758 445.866 132.758C445.866 132.758 444.379 116.51 442.465 116.953C440.329 117.459 439.807 134.277 439.807 134.277C439.807 134.277 437.797 123.202 436.642 123.962C434.332 125.449 433.731 149.387 440.344 158.12C440.344 158.12 449.284 158.721 451.325 157.013L451.309 157.028Z" fill="#F9AE83"/>
<path d="M457.922 192.421C454.869 172.834 452.226 156.38 452.226 156.38C448.239 153.263 443.398 153.785 438.541 154.355C436.342 187.833 440.313 214.366 445.534 234.506C453.65 256.419 495.34 302.713 495.34 302.713C509.848 298.9 506.146 278.063 506.146 278.063C484.17 250.186 463.286 225.156 462.953 224.76C462.447 221.47 460.533 209.097 457.922 192.405V192.421Z" fill="#5D4EA1"/>
<path d="M558.151 453.097C557.519 455.359 555.873 457.242 553.642 458.318C550.209 459.979 556.854 458.286 549.181 459.378C542.251 460.374 514.658 465.975 507.523 465.311C501.21 464.804 498.931 464.425 493.125 462.669C485.594 460.39 475.959 456.593 467.257 452.084C463.444 450.106 461.703 445.85 463.159 442.053L483.743 367.043C483.996 366.363 484.17 365.651 484.217 364.923L499.106 282.303C499.406 278.585 502.365 275.547 506.304 274.93L524.705 272.003L532.252 270.817C536.413 270.152 540.637 270.026 544.814 270.358C548.991 270.754 553.12 271.608 557.107 272.984L565.239 275.801L581.947 281.56C585.713 282.857 588.102 286.354 587.769 290.072L576.156 374.052C576.109 374.511 576.03 374.954 575.919 375.397L558.167 453.128L558.151 453.097Z" fill="#5D4EA1"/>
<path d="M564.29 275.99L531.698 461.735C524.689 462.225 517.807 461.925 510.75 460.722C504.501 459.742 498.678 458.144 493.046 455.929L493.821 451.324L494.612 446.515L496.479 435.329L497.286 430.519L499.153 419.349L499.944 414.539L501.827 403.369L502.618 398.576L504.485 387.406L505.292 382.627L507.159 371.442L507.95 366.648L509.817 355.462L510.624 350.684L512.491 339.482L513.297 334.72L515.164 323.502L515.955 318.74L517.822 307.523L518.629 302.776L520.496 291.575L521.303 286.828L523.17 275.595L523.803 272.62L523.866 272.225L531.666 269.804C535.875 269.44 540.099 269.63 544.244 270.263C548.374 270.975 553.278 271.307 557.139 273L562.74 274.93L564.322 276.022L564.29 275.99Z" fill="white"/>
<path d="M563.246 282.161L562.423 286.844C555.224 286.844 548.31 286.132 542.029 285.088C534.261 283.806 527.442 282.034 522.284 280.468L523.059 275.721C532.141 278.522 547.076 282.161 563.151 282.129L563.23 282.161H563.246Z" fill="#E2E2E2"/>
<path d="M560.904 295.498L560.082 300.213C552.978 300.213 546.159 299.533 539.972 298.504C532.125 297.223 525.258 295.403 520.085 293.79L520.892 289.043C529.973 291.891 544.846 295.577 560.92 295.498H560.904Z" fill="#E2E2E2"/>
<path d="M558.5 309.216L557.661 313.962C550.652 313.978 543.944 313.313 537.837 312.301C529.942 311.003 523.044 309.152 517.807 307.491L518.614 302.745C527.663 305.656 542.457 309.39 558.5 309.216Z" fill="#E2E2E2"/>
<path d="M555.683 325.227L554.845 329.973C547.915 330.005 541.302 329.341 535.274 328.36C527.347 327.062 520.433 325.179 515.164 323.471L515.956 318.708C525.005 321.667 539.704 325.433 555.699 325.227H555.683Z" fill="#E2E2E2"/>
<path d="M552.867 341.254L552.029 345.985C545.209 346.032 538.659 345.399 532.679 344.418C524.705 343.105 517.759 341.191 512.475 339.451L513.282 334.688C522.3 337.694 536.887 341.476 552.867 341.254Z" fill="#E2E2E2"/>
<path d="M550.051 357.25L549.212 361.996C542.457 362.075 536.001 361.442 530.1 360.477C522.094 359.164 515.117 357.202 509.801 355.446L510.608 350.668C519.594 353.737 534.119 357.55 550.051 357.266V357.25Z" fill="#E2E2E2"/>
<path d="M547.25 373.261L546.412 378.008C539.735 378.087 533.327 377.485 527.489 376.536C519.484 375.223 512.491 373.245 507.159 371.426L507.95 366.632C516.936 369.749 531.35 373.593 547.25 373.277V373.261Z" fill="#E2E2E2"/>
<path d="M544.434 389.257L543.596 394.003C536.966 394.114 530.638 393.528 524.863 392.579C516.826 391.266 509.833 389.257 504.485 387.39L505.292 382.612C514.247 385.776 528.581 389.636 544.434 389.272V389.257Z" fill="#E2E2E2"/>
<path d="M541.618 405.268L540.779 410.03C534.214 410.141 527.948 409.556 522.221 408.606C514.184 407.293 507.206 405.252 501.827 403.354L502.618 398.56C511.541 401.803 525.796 405.679 541.618 405.284V405.268Z" fill="#E2E2E2"/>
<path d="M538.802 421.279L537.963 426.026C531.445 426.152 525.243 425.599 519.563 424.665C511.525 423.352 504.532 421.279 499.153 419.333L499.944 414.524C508.867 417.814 523.012 421.722 538.802 421.279Z" fill="#E2E2E2"/>
<path d="M535.985 437.275L535.147 442.053C528.676 442.195 522.537 441.642 516.905 440.724C508.852 439.411 501.858 437.322 496.479 435.329L497.286 430.519C506.178 433.842 520.243 437.781 535.985 437.291V437.275Z" fill="#E2E2E2"/>
<path d="M533.185 453.286L532.347 458.064C525.923 458.207 519.848 457.669 514.247 456.751C506.209 455.438 499.216 453.334 493.821 451.324L494.612 446.515C503.488 449.869 517.474 453.824 533.169 453.286H533.185Z" fill="#E2E2E2"/>
<path d="M413.946 450.694L412.419 466.886C412.395 467.138 412.58 467.362 412.832 467.386L543.192 479.686C543.444 479.709 543.668 479.524 543.692 479.272L545.22 463.079C545.244 462.827 545.058 462.603 544.806 462.58L414.446 450.28C414.194 450.256 413.97 450.441 413.946 450.694Z" fill="#DDDDDD"/>
<path d="M398.655 466.023C393.718 465.564 389.7 461.83 388.877 456.941L372.992 362.677C372.027 356.918 376.774 351.807 382.596 352.345L441.373 357.883C445.344 358.262 448.572 361.221 449.284 365.145L468.823 472.636L398.655 466.023Z" fill="#DDDDDD"/>
<path d="M432.26 446.61L431.563 441.547L435.551 441.847L434.348 437.18L439.632 437.592L440.835 442.259L444.094 442.512L442.892 437.845L448.176 438.256L449.379 442.923L453.998 443.271L454.695 448.334L450.708 448.034L451.783 452.321L456.403 452.669L457.099 457.732L453.112 457.432L454.315 462.099L449.03 461.688L447.828 457.02L444.569 456.767L445.771 461.435L440.487 461.023L439.284 456.356L434.665 456.008L433.968 450.945L437.955 451.245L436.88 446.958L432.26 446.61ZM443.24 451.657L446.499 451.91L445.423 447.622L442.164 447.369L443.24 451.657Z" fill="#4A429A"/>
<path d="M380.238 378.213C381.615 384.368 387.2 389.747 392.722 390.238C398.243 390.712 401.598 386.124 400.221 379.969C398.845 373.815 393.26 368.436 387.738 367.945C382.216 367.47 378.862 372.059 380.238 378.213Z" fill="#FBB416"/>
<path d="M391.408 377.09C391.677 378.324 392.294 379.353 392.769 379.4C393.244 379.447 393.418 378.482 393.133 377.248C392.864 376.014 392.247 374.986 391.772 374.938C391.298 374.891 391.124 375.856 391.408 377.09Z" fill="#28100C"/>
<path d="M386.203 376.631C386.472 377.865 387.089 378.894 387.564 378.941C388.038 378.989 388.212 378.023 387.928 376.789C387.659 375.555 387.042 374.527 386.567 374.479C386.092 374.432 385.918 375.397 386.203 376.631Z" fill="#28100C"/>
<path d="M391.361 384.494C395.664 384.874 395.57 380.159 395.57 380.112C395.57 379.859 395.348 379.59 395.111 379.511C394.858 379.432 394.668 379.574 394.684 379.843C394.684 380.017 394.731 383.846 391.155 383.529C387.564 383.213 385.871 379.226 385.808 379.068C385.697 378.799 385.428 378.609 385.206 378.656C384.985 378.688 384.89 378.941 385.001 379.21C385.017 379.258 387.073 384.131 391.377 384.51L391.361 384.494Z" fill="#28100C"/>
<path d="M449.299 365.161L468.681 471.766L475.405 472.399L456.024 365.793C455.312 361.87 452.084 358.895 448.113 358.531L441.389 357.898C445.36 358.278 448.587 361.237 449.299 365.161Z" fill="#EAEAEA"/>
<path d="M468.064 471.054C468.064 471.054 468.174 471.054 468.238 471.038C468.776 470.943 469.14 470.421 469.029 469.883L449.869 363.515C449.774 362.977 449.252 362.613 448.714 362.708C448.176 362.803 447.812 363.325 447.923 363.863L467.083 470.231C467.162 470.706 467.589 471.054 468.064 471.054Z" fill="#EAEAEA"/>
<path d="M427.909 414.207C428.7 420.109 424.665 424.444 418.89 423.906C413.116 423.368 407.8 418.131 407.008 412.23C406.217 406.328 410.252 401.993 416.027 402.531C421.802 403.069 427.118 408.306 427.909 414.191V414.207Z" fill="white"/>
<path d="M570.824 476.576C572.929 476.576 575.191 475.848 577.501 474.408C585.918 469.14 596.107 453.16 599.889 429.364C599.968 428.826 599.604 428.32 599.066 428.225C598.528 428.13 598.022 428.51 597.927 429.048C594.24 452.242 584.478 467.7 576.441 472.731C573.704 474.44 571.109 474.993 568.942 474.329C567.201 473.791 565.841 472.604 564.828 470.674C557.819 457.463 570.002 417.672 570.128 417.277C570.287 416.754 570.002 416.201 569.48 416.043C568.958 415.884 568.404 416.169 568.246 416.691C567.723 418.352 555.699 457.685 563.088 471.608C564.353 473.997 566.141 475.547 568.388 476.228C569.179 476.465 570.002 476.592 570.84 476.592L570.824 476.576Z" fill="white"/>
</g>
<defs>
<clipPath id="clip0_6_5877">
<rect width="996.091" height="655.96" fill="white"/>
</clipPath>
</defs>
</svg>
